<svg xmlns="http://www.w3.org/2000/svg" width="45" height="45" viewBox="0 0 45 45"><g transform="translate(0.494 -0.342)" opacity="0.55"><path d="M42,45H3a3,3,0,0,1-3-3V3A3,3,0,0,1,3,0H42a3,3,0,0,1,3,3V42A3,3,0,0,1,42,45ZM22.359,16.438H22.3a1.586,1.586,0,0,0-1.553,1.552V34.446A1.585,1.585,0,0,0,22.241,36H22.3a1.587,1.587,0,0,0,1.552-1.553V17.992a1.6,1.6,0,0,0-.442-1.074A1.463,1.463,0,0,0,22.359,16.438Zm-9.608.151v0l-.052.04-.123.093a11.664,11.664,0,0,1-1.093.733,1.583,1.583,0,0,0-.726,1,1.43,1.43,0,0,0,.169,1.121,1.649,1.649,0,0,0,1.363.764,1.5,1.5,0,0,0,.762-.207,18.926,18.926,0,0,0,2.372-1.73c.732-.6,1.516-1.28,2.466-2.148,1.3-1.19,2.655-2.49,4.137-3.973,2.679,2.52,4.8,4.371,6.875,6l.239.188a15.574,15.574,0,0,0,2.4,1.663,1.742,1.742,0,0,0,.8.192,1.457,1.457,0,0,0,1.326-.749,1.733,1.733,0,0,0,.118-1.3,1.359,1.359,0,0,0-.676-.824A12.784,12.784,0,0,1,31.381,16.3l-.068-.051L31.3,16.24h0l-.006,0a.289.289,0,0,0-.026-.021l-.041-.031-.018-.013-.008-.007c-.055-.041-.117-.088-.15-.114-.105-.082-.21-.166-.314-.249-.224-.179-.444-.359-.648-.526-.41-.339-.849-.709-1.341-1.131-1.436-1.235-2.968-2.614-4.685-4.216-.308-.288-.639-.6-.969-.911a1.637,1.637,0,0,0-1.121-.445,1.482,1.482,0,0,0-1.075.445A95.636,95.636,0,0,1,13.606,15.9c-.252.21-.479.4-.692.565-.045.036-.141.107-.208.156Z" transform="translate(-0.494 0.342)" fill="#fff"/></g></svg>