<svg xmlns="http://www.w3.org/2000/svg" width="63" height="63" viewBox="0 0 63 63"><g transform="translate(-1793 -973)"><path d="M60,63H3a3,3,0,0,1-3-3V3A3,3,0,0,1,3,0H60a3,3,0,0,1,3,3V60A3,3,0,0,1,60,63ZM31.3,23.013l-.082,0a2.222,2.222,0,0,0-2.175,2.174V48.225A2.22,2.22,0,0,0,31.138,50.4l.079,0a2.222,2.222,0,0,0,2.176-2.174V25.189a2.234,2.234,0,0,0-.619-1.5A2.021,2.021,0,0,0,31.3,23.013Zm-13.4.177v0l-.122.093-.17.129a16.106,16.106,0,0,1-1.529,1.025,2.217,2.217,0,0,0-1.016,1.406,2,2,0,0,0,.236,1.569,2.306,2.306,0,0,0,1.908,1.069,2.113,2.113,0,0,0,1.067-.289A26.11,26.11,0,0,0,21.6,25.772c1.035-.843,2.1-1.77,3.453-3.007,1.819-1.663,3.713-3.483,5.792-5.563,3.747,3.525,6.715,6.117,9.626,8.4l.342.269a21.7,21.7,0,0,0,3.356,2.321,2.445,2.445,0,0,0,1.119.269,2.038,2.038,0,0,0,1.857-1.049,2.428,2.428,0,0,0,.166-1.822,1.9,1.9,0,0,0-.946-1.154,17.593,17.593,0,0,1-2.411-1.6l-.034-.025-.079-.059-.014-.012-.039-.029-.025-.018-.069-.052c-.081-.06-.172-.129-.22-.167-.16-.125-.319-.252-.44-.349-.274-.219-.562-.453-.907-.737-.6-.5-1.216-1.015-1.876-1.584-2.021-1.738-4.167-3.669-6.56-5.9-.535-.5-.966-.9-1.357-1.275A2.294,2.294,0,0,0,30.759,12a2.078,2.078,0,0,0-1.506.624,133.537,133.537,0,0,1-10.2,9.636c-.318.267-.644.533-.969.791-.082.065-.268.2-.323.241l.091-.065Z" transform="translate(1793 973)" fill="#c8d2d2" opacity="0.8"/></g></svg>