<svg xmlns="http://www.w3.org/2000/svg" width="23.149" height="27.424" viewBox="0 0 23.149 27.424"><g transform="translate(-936.181 -139.965)" opacity="0.75"><path d="M958.58,148.841a12.807,12.807,0,0,1-1.727-1.152l-.068-.051-.013-.009h-.006a.169.169,0,0,0-.026-.021l-.041-.031-.018-.013-.008-.007-.15-.114c-.1-.082-.21-.166-.314-.249-.224-.179-.444-.359-.648-.526-.41-.339-.849-.709-1.341-1.131-1.436-1.235-2.968-2.614-4.685-4.216-.308-.288-.639-.6-.969-.911a1.634,1.634,0,0,0-1.121-.445,1.479,1.479,0,0,0-1.075.445,95.729,95.729,0,0,1-7.292,6.879c-.252.21-.479.4-.692.565-.045.036-.141.107-.208.156l.045-.032-.052.04-.123.093a11.831,11.831,0,0,1-1.093.733,1.579,1.579,0,0,0-.726,1,1.426,1.426,0,0,0,.169,1.121,1.65,1.65,0,0,0,1.363.764,1.511,1.511,0,0,0,.762-.207,19.055,19.055,0,0,0,2.372-1.73c.732-.6,1.516-1.28,2.466-2.148,1.3-1.19,2.655-2.49,4.137-3.973,2.679,2.52,4.8,4.371,6.875,6l.239.188a15.6,15.6,0,0,0,2.4,1.663,1.75,1.75,0,0,0,.8.192,1.458,1.458,0,0,0,1.326-.749,1.737,1.737,0,0,0,.118-1.3A1.358,1.358,0,0,0,958.58,148.841Z" fill="#bdb7ff"/><path d="M947.831,147.827h-.059a1.586,1.586,0,0,0-1.553,1.552v16.456a1.585,1.585,0,0,0,1.494,1.554h.059a1.588,1.588,0,0,0,1.552-1.553V149.381a1.6,1.6,0,0,0-.442-1.074A1.462,1.462,0,0,0,947.831,147.827Z" fill="#bdb7ff"/></g></svg>