<svg xmlns="http://www.w3.org/2000/svg" width="100%" height="100%" viewBox="0 0 150 150"><defs><style>.cls-1{fill:#256a85;}</style></defs><g id="fb"><path class="cls-1" d="M106.7,16.4H43.3A27,27,0,0,0,16.4,43.3v63.4a27,27,0,0,0,26.9,26.9H72.8V85.9h-12V73.1h12V63.7a48.5,48.5,0,0,1,1.3-10.9,26.3,26.3,0,0,1,4.2-9.3,22.5,22.5,0,0,1,7.9-6.3,29.8,29.8,0,0,1,12.4-2.3l4.4.2a26.6,26.6,0,0,1,3.7.7l-1.1,13.6-2.8-.7a16.9,16.9,0,0,0-3.3-.3,10.6,10.6,0,0,0-5.6,1.4,8.7,8.7,0,0,0-3.2,3.4,12.4,12.4,0,0,0-1.5,4.7,27.7,27.7,0,0,0-.4,4.9V73.1h14.7V85.9H88.8v47.7h17.9a27,27,0,0,0,26.9-26.9V43.3A27,27,0,0,0,106.7,16.4Z"/></g></svg>