<svg xmlns="http://www.w3.org/2000/svg" width="35.674" height="36.207" viewBox="0 0 35.674 36.207">
  <defs>
    <style>
      .cls-1 {
        fill: #256a85;
      }
    </style>
  </defs>
  <path id="icon_footer_line" class="cls-1" d="M690.92,543.237c0-8.626-7.986-15.62-17.837-15.62s-17.837,6.993-17.837,15.62,7.986,15.62,17.837,15.62v4.968s11.655-6.271,15.43-12.749l-.006,0A14.1,14.1,0,0,0,690.92,543.237Zm-24.639,5.19h-5.335v-8.469H663v6.687h3.278Zm3.014,0h-2.058v-8.469H669.3Zm9.45,0h-2.321l-3.409-5.539h-.036l.048,5.539h-1.986v-8.469h2.333l3.4,5.526h.036l-.048-5.526h1.986Zm7.656,0h-5.91v-8.469h5.694v1.722h-3.72v1.6h3.517v1.639h-3.517v1.758H686.4Z" transform="translate(-655.246 -527.617)"/>
</svg>
