<svg xmlns="http://www.w3.org/2000/svg" width="60.943" height="52.714" viewBox="0 0 60.943 52.714"><g transform="translate(0)"><path d="M-1215.182-61.665a90.663,90.663,0,0,0-15.4,0c-12.814,1-22.769,10.194-22.769,22.769h0a22.48,22.48,0,0,0,13.741,20.782.706.706,0,0,1,.381.953,16.951,16.951,0,0,1-4.931,7.122.437.437,0,0,0,.356.754c6.418-.935,11.748-2.955,15.707-6.342a2.447,2.447,0,0,1,1.382-.355q5.768.149,11.538-.146c12.572-.333,22.769-10.194,22.769-22.769h0C-1192.413-51.471-1202.546-60.487-1215.182-61.665Z" transform="translate(1253.356 61.993)" fill="#fc6ff0"/><g transform="translate(20.545 9.494)"><g transform="translate(0 0)"><path d="M-1607.745-28.458c.084-.122.171-.241.257-.361.146-.2-.076.035-.069.084a1.259,1.259,0,0,1,.138-.174q.281-.347.587-.674.286-.307.593-.594c.228-.213.506-.395.719-.62-.026.028-.324.24-.085.067l.18-.131q.158-.113.32-.22.391-.259.8-.483c.113-.061.227-.119.342-.175.057-.028.514-.214.241-.116s.135-.05.2-.074q.255-.094.516-.171.364-.108.738-.182c.071-.014.142-.025.213-.039.292-.058-.1.013-.137.015.162-.007.325-.035.488-.044a7.063,7.063,0,0,1,.816,0c.068,0,.136.012.2.016.29.016-.125-.014-.154-.025a4.265,4.265,0,0,0,.454.085,6.351,6.351,0,0,1,.741.217.93.93,0,0,0,.193.073c-.027,0-.392-.18-.128-.054.141.067.281.132.417.206a6.89,6.89,0,0,1,.662.4l.168.12c.16.114-.009.09-.1-.082.054.1.225.189.312.268a6.574,6.574,0,0,1,.569.586c.043.05.083.112.13.156.008.008-.221-.3-.117-.15.085.125.175.246.255.374.141.226.239.477.376.7.007.012-.139-.36-.079-.185.021.062.047.123.069.185.049.14.092.281.127.425.031.124.039.265.081.385-.008-.022-.045-.455-.023-.167,0,.049.009.1.012.148.02.287-.014.564-.021.849,0-.036.083-.441.014-.153-.016.068-.027.138-.043.207-.028.119-.06.237-.1.354-.041.133-.093.261-.136.392-.058.178.081-.182.076-.173-.048.09-.086.19-.131.282a9.747,9.747,0,0,1-.851,1.387q-.125.174-.254.344c-.256.338.164-.206-.026.033s-.383.48-.575.72a21.657,21.657,0,0,0-2.11,3.026,10.247,10.247,0,0,0-1.118,2.482,13.211,13.211,0,0,0-.207,3.66,1.757,1.757,0,0,0,1.73,1.73,1.755,1.755,0,0,0,1.73-1.73c-.025-.628-.045-1.257-.02-1.886.009-.216.028-.431.048-.647.022-.234-.089.49-.012.11.021-.106.041-.212.066-.318a4.572,4.572,0,0,1,.141-.466c.014-.037.03-.074.042-.112.075-.228-.109.28-.106.246a1.034,1.034,0,0,1,.129-.28c.173-.355.37-.7.562-1.045a14.965,14.965,0,0,1,.913-1.474q.126-.175.257-.348c.256-.339-.2.255.061-.079.2-.256.407-.509.61-.763a14.527,14.527,0,0,0,2.146-3.224,6.787,6.787,0,0,0,.444-4.413,7.512,7.512,0,0,0-2.034-3.445,8.679,8.679,0,0,0-3.526-2.1,8.6,8.6,0,0,0-4.277-.1,12.593,12.593,0,0,0-7.441,5.393,1.739,1.739,0,0,0,.621,2.367,1.774,1.774,0,0,0,2.367-.62Z" transform="translate(1610.976 35.816)" fill="#30388a"/></g><g transform="translate(8.926 24.235)"><path d="M-1580.014,49.97v.29a1.3,1.3,0,0,0,.149.666,1.3,1.3,0,0,0,.358.557,1.3,1.3,0,0,0,.557.358,1.3,1.3,0,0,0,.667.149l.46-.062a1.728,1.728,0,0,0,.763-.445l.27-.35a1.723,1.723,0,0,0,.236-.873v-.277a1.3,1.3,0,0,0-.149-.666,1.3,1.3,0,0,0-.358-.557,1.3,1.3,0,0,0-.557-.358,1.3,1.3,0,0,0-.666-.149l-.46.062a1.728,1.728,0,0,0-.763.445l-.27.35a1.719,1.719,0,0,0-.236.873v.29a1.3,1.3,0,0,0,.149.666,1.3,1.3,0,0,0,.358.557,1.3,1.3,0,0,0,.557.358,1.3,1.3,0,0,0,.667.149l.46-.062a1.728,1.728,0,0,0,.763-.445l.27-.35a1.723,1.723,0,0,0,.236-.873v-.29a1.3,1.3,0,0,0-.149-.666,1.3,1.3,0,0,0-.358-.557,1.3,1.3,0,0,0-.557-.358,1.3,1.3,0,0,0-.666-.149l-.46.062a1.728,1.728,0,0,0-.763.445l-.27.35a1.719,1.719,0,0,0-.236.873v.277a1.3,1.3,0,0,0,.149.666,1.3,1.3,0,0,0,.358.557,1.3,1.3,0,0,0,.557.358,1.3,1.3,0,0,0,.667.149l.46-.062a1.728,1.728,0,0,0,.763-.445l.27-.35a1.723,1.723,0,0,0,.236-.873v-.29a1.3,1.3,0,0,0-.149-.666,1.3,1.3,0,0,0-.358-.557,1.293,1.293,0,0,0-.557-.358,1.3,1.3,0,0,0-.666-.149l-.46.062a1.728,1.728,0,0,0-.763.445l-.27.35a1.719,1.719,0,0,0-.236.873Z" transform="translate(1580.015 -48.239)" fill="#30388a"/></g></g></g></svg>