<svg xmlns="http://www.w3.org/2000/svg" width="63.765" height="72" viewBox="0 0 63.765 72"><g transform="translate(-1783 -948)"><g transform="translate(1783 948)"><text transform="translate(0 65)" fill="#616464" font-size="28" font-family="Maple-Medium, Maple" font-weight="500" letter-spacing="0.1em"><tspan x="0" y="0">TOP</tspan></text><g transform="translate(0)"><path d="M-153.808,379.031a2.294,2.294,0,0,1-1.584-.634l-24.094-22.962c-2.706-2.556-4.9-2.559-7.808-.007l-24.1,22.969a2.3,2.3,0,0,1-3.247-.078,2.3,2.3,0,0,1,.078-3.248l24.17-23.035c4.773-4.184,9.615-4.141,14.068.064l24.1,22.97a2.3,2.3,0,0,1,.077,3.248A2.29,2.29,0,0,1-153.808,379.031Z" transform="translate(215.274 -348.922)" fill="#616464"/></g></g></g></svg>