<svg id="icon_footer_ig" xmlns="http://www.w3.org/2000/svg" width="34.625" height="34.625" viewBox="0 0 34.625 34.625">
  <defs>
    <style>
      .cls-1 {
        fill: #256a85;
      }
    </style>
  </defs>
  <ellipse id="Ellipse_90" data-name="Ellipse 90" class="cls-1" cx="1.682" cy="1.682" rx="1.682" ry="1.682" transform="translate(25.084 6.091)"/>
  <path id="Path_1004" data-name="Path 1004" class="cls-1" d="M260.831,556.5a9.71,9.71,0,1,0,9.71,9.71A9.721,9.721,0,0,0,260.831,556.5Zm0,16.514a6.8,6.8,0,1,1,6.8-6.8A6.811,6.811,0,0,1,260.831,573.012Z" transform="translate(-243.519 -548.896)"/>
  <path id="Path_1005" data-name="Path 1005" class="cls-1" d="M251.484,530.339H233.065a8.113,8.113,0,0,0-8.1,8.1V556.86a8.113,8.113,0,0,0,8.1,8.1h18.418a8.113,8.113,0,0,0,8.1-8.1V538.442A8.113,8.113,0,0,0,251.484,530.339Zm5.2,26.521a5.2,5.2,0,0,1-5.2,5.2H233.065a5.2,5.2,0,0,1-5.2-5.2V538.442a5.2,5.2,0,0,1,5.2-5.2h18.418a5.2,5.2,0,0,1,5.2,5.2Z" transform="translate(-224.962 -530.339)"/>
</svg>
