<svg xmlns="http://www.w3.org/2000/svg" width="100%" height="100%" viewBox="0 0 150 150"><defs><style>.cls-1{fill:#256a85;}</style></defs><g id="ig"><circle class="cls-1" cx="107.5" cy="42.2" r="5.8"/><path class="cls-1" d="M75,41.6A33.4,33.4,0,1,0,108.4,75,33.5,33.5,0,0,0,75,41.6Zm0,56.8A23.4,23.4,0,1,1,98.4,75,23.4,23.4,0,0,1,75,98.4Z"/><path class="cls-1" d="M106.7,15.4H43.3A27.9,27.9,0,0,0,15.4,43.3v63.4a27.9,27.9,0,0,0,27.9,27.9h63.4a27.9,27.9,0,0,0,27.9-27.9V43.3A27.9,27.9,0,0,0,106.7,15.4Zm17.9,91.3a18,18,0,0,1-17.9,17.9H43.3a18,18,0,0,1-17.9-17.9V43.3A18,18,0,0,1,43.3,25.4h63.4a18,18,0,0,1,17.9,17.9Z"/></g></svg>