<svg xmlns="http://www.w3.org/2000/svg" width="85.071" height="73.583" viewBox="0 0 85.071 73.583"><g transform="translate(-1771 -818)"><path d="M-1200.069-61.536a126.555,126.555,0,0,0-21.5,0c-17.887,1.4-31.784,14.23-31.784,31.784h0a31.38,31.38,0,0,0,19.181,29.01.985.985,0,0,1,.532,1.33c-1.109,3.547-3.539,6.834-6.884,9.942a.61.61,0,0,0,.5,1.053c8.959-1.3,16.4-4.125,21.926-8.853a3.415,3.415,0,0,1,1.928-.5q8.052.208,16.106-.2c17.549-.464,31.784-14.23,31.784-31.784h0C-1168.285-47.306-1182.43-59.89-1200.069-61.536Z" transform="translate(3024.356 879.993)" fill="#002695"/><g transform="translate(1800.542 832.095)"><g transform="translate(0 0)"><path d="M-1602.546-25.339c.111-.16.225-.317.338-.475.03-.041.182-.244.014-.024.059-.078.121-.154.182-.23q.37-.458.772-.888a16.524,16.524,0,0,1,1.727-1.6c-.24.192.209-.154.26-.19q.207-.149.421-.29.515-.341,1.059-.635c.148-.08.3-.157.45-.231q.13-.063.261-.123c.04-.018.316-.14.137-.064-.131.056.268-.1.342-.131q.336-.124.678-.225.48-.142.97-.239c.085-.016.627-.1.278-.055q.32-.039.643-.058a9.128,9.128,0,0,1,1.073,0c.1.006.6.066.244.012q.3.046.6.113a8.285,8.285,0,0,1,.975.285c.086.031.169.064.254.1-.057-.021-.286-.132-.008,0,.186.086.369.174.549.271a9.072,9.072,0,0,1,.871.532c.085.059.464.369.218.155.136.118.277.23.411.352a8.813,8.813,0,0,1,.749.771c.058.068.113.138.171.206-.014-.017-.151-.211-.049-.061s.23.323.336.492a9.626,9.626,0,0,1,.495.925c-.136-.281.011.039.053.16q.1.276.168.559c.042.168.069.338.105.507-.069-.324,0,.014.01.153a6.076,6.076,0,0,1-.028,1.118c.043-.368-.039.145-.063.248-.036.157-.078.312-.125.466-.053.175-.123.343-.179.517s.023-.046.033-.069q-.082.188-.172.372a12.851,12.851,0,0,1-1.12,1.825q-.165.229-.335.453c-.026.035-.207.269-.09.118s-.037.047-.049.061q-.376.476-.756.948a27.541,27.541,0,0,0-2.673,3.847,12.829,12.829,0,0,0-1.4,3.107A16.746,16.746,0,0,0-1594-7.622a1.632,1.632,0,0,0,1.607,1.607,1.631,1.631,0,0,0,1.607-1.607c-.033-.826-.06-1.655-.026-2.482.012-.285.036-.568.063-.851s-.023.139-.02.146a.788.788,0,0,1,.029-.178c.028-.14.053-.28.087-.419a5.985,5.985,0,0,1,.185-.614c.018-.049.039-.1.055-.148.078-.231-.058.155-.071.165.072-.055.128-.283.17-.368.228-.468.488-.92.74-1.374a19.5,19.5,0,0,1,1.2-1.941q.166-.231.338-.458c.026-.034.208-.271.091-.12s.068-.085.094-.119c.265-.337.535-.671.8-1.005a18.392,18.392,0,0,0,2.72-4.107,8.183,8.183,0,0,0,.517-5.292,9.218,9.218,0,0,0-2.5-4.238,10.467,10.467,0,0,0-9.618-2.726c-3.9.82-7.171,3.582-9.393,6.791a1.616,1.616,0,0,0,.576,2.2,1.648,1.648,0,0,0,2.2-.577Z" transform="translate(1605.547 33.995)" fill="#06c1c1"/></g><g transform="translate(11.746 31.876)"><path d="M-1574.591,51.613V52a1.208,1.208,0,0,0,.139.619,1.2,1.2,0,0,0,.333.518,1.2,1.2,0,0,0,.517.332,1.206,1.206,0,0,0,.619.139l.427-.057a1.608,1.608,0,0,0,.709-.413l.251-.326a1.594,1.594,0,0,0,.219-.811V51.63a1.2,1.2,0,0,0-.138-.619,1.206,1.206,0,0,0-.332-.518,1.2,1.2,0,0,0-.518-.332,1.205,1.205,0,0,0-.619-.139l-.427.057a1.6,1.6,0,0,0-.709.413l-.252.326a1.6,1.6,0,0,0-.219.811v.382a1.211,1.211,0,0,0,.139.619,1.2,1.2,0,0,0,.333.517,1.2,1.2,0,0,0,.517.332,1.209,1.209,0,0,0,.619.138l.427-.057a1.608,1.608,0,0,0,.709-.413l.251-.325a1.6,1.6,0,0,0,.219-.811V51.63a1.2,1.2,0,0,0-.138-.619,1.206,1.206,0,0,0-.332-.518,1.2,1.2,0,0,0-.518-.332,1.205,1.205,0,0,0-.619-.139l-.427.057a1.6,1.6,0,0,0-.709.413l-.252.326a1.6,1.6,0,0,0-.219.811V52a1.208,1.208,0,0,0,.139.619,1.2,1.2,0,0,0,.333.518,1.2,1.2,0,0,0,.517.332,1.206,1.206,0,0,0,.619.139l.427-.057a1.608,1.608,0,0,0,.709-.413l.251-.326a1.594,1.594,0,0,0,.219-.811v-.382a1.2,1.2,0,0,0-.138-.619,1.207,1.207,0,0,0-.332-.517,1.205,1.205,0,0,0-.518-.332,1.209,1.209,0,0,0-.619-.138l-.427.057a1.6,1.6,0,0,0-.709.413l-.252.325a1.6,1.6,0,0,0-.219.811Z" transform="translate(1574.592 -50.005)" fill="#06c1c1"/></g></g></g></svg>