<svg xmlns="http://www.w3.org/2000/svg" width="85.071" height="73.583" viewBox="0 0 85.071 73.583"><g transform="translate(-1771 -818)"><path d="M-1200.069-61.536a126.555,126.555,0,0,0-21.5,0c-17.887,1.4-31.784,14.23-31.784,31.784h0a31.38,31.38,0,0,0,19.181,29.01.985.985,0,0,1,.532,1.33c-1.109,3.547-3.539,6.834-6.884,9.942a.61.61,0,0,0,.5,1.053c8.959-1.3,16.4-4.125,21.926-8.853a3.415,3.415,0,0,1,1.928-.5q8.052.208,16.106-.2c17.549-.464,31.784-14.23,31.784-31.784h0C-1168.285-47.306-1182.43-59.89-1200.069-61.536Z" transform="translate(3024.356 879.993)" fill="#eb64e6"/><g transform="translate(3410.655 867.069)"><g transform="translate(-1610.975 -35.816)"><path d="M-1606.466-25.544c.117-.17.238-.336.359-.5.2-.283-.106.049-.1.118a1.743,1.743,0,0,1,.193-.243q.392-.485.819-.941.4-.429.828-.829c.318-.3.706-.551,1-.866-.036.039-.453.335-.119.093.084-.061.167-.123.251-.183q.22-.158.447-.307.546-.362,1.123-.674.237-.127.478-.245c.079-.039.717-.3.337-.163s.189-.07.278-.1q.356-.131.72-.239.508-.151,1.029-.254c.1-.019.2-.035.3-.054.408-.081-.143.019-.192.021.227-.009.455-.048.682-.062a9.86,9.86,0,0,1,1.139,0c.095.006.19.017.285.022.4.023-.174-.02-.216-.035a5.974,5.974,0,0,0,.634.119,8.875,8.875,0,0,1,1.034.3,1.286,1.286,0,0,0,.27.1c-.038,0-.547-.251-.179-.075.2.093.392.185.583.287a9.649,9.649,0,0,1,.924.563c.079.055.156.111.235.167.224.16-.013.126-.146-.114.076.136.315.264.435.374a9.223,9.223,0,0,1,.795.818c.059.07.116.156.181.218.012.011-.308-.421-.162-.209.119.174.244.343.356.522.2.316.333.666.525.981.01.017-.194-.5-.111-.258.03.087.066.172.1.258.068.2.128.393.177.593.043.173.054.37.112.538-.011-.031-.063-.635-.032-.233.005.069.012.138.017.206.027.4-.02.787-.03,1.186,0-.05.116-.615.019-.214-.023.1-.038.193-.06.289q-.058.249-.133.494c-.057.185-.129.364-.19.548-.081.248.113-.254.106-.242-.068.126-.119.266-.183.394a13.552,13.552,0,0,1-1.188,1.936q-.174.243-.355.481c-.357.472.229-.287-.036.047s-.534.671-.8,1a30.279,30.279,0,0,0-2.946,4.225,14.315,14.315,0,0,0-1.561,3.465,18.438,18.438,0,0,0-.289,5.108,2.452,2.452,0,0,0,2.415,2.415,2.449,2.449,0,0,0,2.415-2.415c-.035-.876-.063-1.755-.027-2.632.013-.3.039-.6.067-.9.031-.327-.124.685-.016.154.03-.148.057-.3.093-.444a6.376,6.376,0,0,1,.2-.651c.019-.052.042-.1.059-.156.105-.318-.152.391-.148.344a1.433,1.433,0,0,1,.18-.39c.242-.5.517-.976.785-1.458a20.835,20.835,0,0,1,1.274-2.058q.176-.244.359-.485c.357-.473-.282.357.085-.11.282-.357.568-.711.852-1.066a20.277,20.277,0,0,0,3-4.5,9.474,9.474,0,0,0,.62-6.16,10.484,10.484,0,0,0-2.839-4.809,12.116,12.116,0,0,0-4.922-2.929,12,12,0,0,0-5.971-.145c-4.32.908-7.928,3.979-10.387,7.528a2.428,2.428,0,0,0,.867,3.3,2.476,2.476,0,0,0,3.3-.866Z" transform="translate(1610.975 35.816)" fill="#002695"/></g><g transform="translate(-1598.515 -1.987)"><path d="M-1580.013,50.656v.4a1.816,1.816,0,0,0,.208.93,1.81,1.81,0,0,0,.5.777,1.81,1.81,0,0,0,.777.5,1.822,1.822,0,0,0,.931.208l.642-.087a2.409,2.409,0,0,0,1.065-.621l.378-.489a2.4,2.4,0,0,0,.33-1.219v-.387a1.819,1.819,0,0,0-.208-.93,1.809,1.809,0,0,0-.5-.777,1.809,1.809,0,0,0-.777-.5,1.817,1.817,0,0,0-.93-.208l-.642.087a2.413,2.413,0,0,0-1.065.621l-.377.489a2.4,2.4,0,0,0-.33,1.219v.4a1.816,1.816,0,0,0,.208.93,1.81,1.81,0,0,0,.5.777,1.81,1.81,0,0,0,.777.5,1.818,1.818,0,0,0,.931.208l.642-.087a2.409,2.409,0,0,0,1.065-.621l.378-.489a2.4,2.4,0,0,0,.33-1.219v-.4a1.819,1.819,0,0,0-.208-.93,1.809,1.809,0,0,0-.5-.777,1.809,1.809,0,0,0-.777-.5,1.817,1.817,0,0,0-.93-.208l-.642.087a2.413,2.413,0,0,0-1.065.621l-.377.489a2.4,2.4,0,0,0-.33,1.219v.387a1.816,1.816,0,0,0,.208.93,1.81,1.81,0,0,0,.5.777,1.81,1.81,0,0,0,.777.5,1.822,1.822,0,0,0,.931.208l.642-.087a2.409,2.409,0,0,0,1.065-.621l.378-.489a2.4,2.4,0,0,0,.33-1.219v-.4a1.819,1.819,0,0,0-.208-.93,1.809,1.809,0,0,0-.5-.777,1.806,1.806,0,0,0-.777-.5,1.817,1.817,0,0,0-.93-.208l-.642.087a2.413,2.413,0,0,0-1.065.621l-.377.489a2.4,2.4,0,0,0-.33,1.219Z" transform="translate(1580.015 -48.239)" fill="#002695"/></g></g></g></svg>