<svg xmlns="http://www.w3.org/2000/svg" width="208.191" height="55.946" viewBox="0 0 208.191 55.946"><g transform="translate(-84.794 -422.372)"><g transform="translate(84.794 422.372)"><path d="M125.8,430.5a57.416,57.416,0,0,0-5.8-4.884l-5.541,3.354s1.555,1.19,3.732,3.142l-.238.038-15.712.874,5.537-8.851-7.74-1.8-7.9,11.21-7.356.409.981,4.263,35.986-2.244h.524c2.774,2.755,4.253,4.272,4.253,4.272l4.92-3.818A78.284,78.284,0,0,0,125.8,430.5Z" transform="translate(-84.794 -422.372)" fill="#c8d2d2"/><path d="M334.724,467.187H346.6v-3.113H334.724v-2.14h-8.132v2.14H314.711v3.113h11.881v2.1H308.65v3.927h44.015v-3.927H334.724Z" transform="translate(-199.615 -442.664)" fill="#c8d2d2"/><path d="M315.9,429.451h29.58v4.009h7.182V426H334.76v-2.792h-8.132V426H308.722v7.462H315.9Z" transform="translate(-199.652 -422.799)" fill="#c8d2d2"/><path d="M121.863,459.134H97.081v13.935h9.106v-1.937h15.676v1.937h9.105V459.134h-9.105Zm-15.676,8.146v-4.652h15.676v4.652Z" transform="translate(-91.096 -441.228)" fill="#c8d2d2"/><path d="M217.646,447.783V425.454H209.9v7.237H198.477V437H209.9v11.876l-11.466,1.612.644,5.5,21.986-4.3-.538-4.3Z" transform="translate(-143.085 -423.953)" fill="#c8d2d2"/><path d="M263.769,444.87a13.165,13.165,0,0,1-.246,3.185c-.234,1.435-1.488,1.768-2.721,1.811a2.721,2.721,0,0,1-2.395-1.231c-.555-1.081-.46-4.131-.46-4.131V437h10.066V432.69H257.948v-7.236h-7.677v21.263a16.218,16.218,0,0,0,.477,4.025c.471,1.255,2.057,4.468,8.722,4.862,6.225.368,8.535-2.525,8.535-2.525a7.49,7.49,0,0,0,1.516-3.974,25.728,25.728,0,0,0,.157-3.19Z" transform="translate(-169.671 -423.953)" fill="#c8d2d2"/><path d="M315.143,448.078l.741,2.9,29-1.583c1.679,1.345,3.421,2.8,3.421,2.8l3.909-2.763s-2.463-2.165-4.343-3.608c-1.022-.784-2.295-1.655-3.187-2.252h2.448v-2.909H320.693v2.909h3.736l-2.285,4.263Zm17.331-4.512h9.873c-1.147.73-2.674,1.749-2.674,1.749s1.06.824,2.322,1.81l-11.461.407Z" transform="translate(-202.946 -431.751)" fill="#c8d2d2"/><path d="M462.572,429.271v-.007H444.811a26.651,26.651,0,0,0,2.407-4.578l-5.149-1.033a48.923,48.923,0,0,1-3.347,5.871,23.835,23.835,0,0,1-3.774,4.2v-2.8h-3.83v-6.882h-6.275v6.882H423.18c.2-1.473.371-2.924.371-2.924l-4.379-1.024a36.249,36.249,0,0,1-1.194,4.72c-.91,2.9-1.934,5.63-1.934,5.63l5.232,1.763s.785-2.682,1.288-4.748h2.278v7.688c-3.776.865-7.832,1.458-7.832,1.458l1.535,4.19s3.566-.595,6.3-1.27v8.5h6.275v-10.4c1.946-.622,3.58-1.156,3.58-1.156l-.4-4.379s-1.336.542-3.182,1.193v-5.827h3.123c-.734.626-1.236,1-1.236,1l4.326,2.42s2.4-2.283,4.841-5.082H444.9a36.858,36.858,0,0,1-3.7,5.425,53.248,53.248,0,0,1-6.559,6.313l3.205,2.466a45.046,45.046,0,0,0,7.053-6.658,51.316,51.316,0,0,0,4.892-7.545h1.4a30.15,30.15,0,0,1-4.4,8.214,35.879,35.879,0,0,1-7.434,7.659c-2.028,1.5-3.379,2.328-3.379,2.328l4.13,2.7a40.236,40.236,0,0,0,10.178-9.5,52.1,52.1,0,0,0,6.4-11.288c-.119,1.435-.3,3.24-.584,5.271a70.77,70.77,0,0,1-1.26,7.2c-.4,1.609-.974,4.972-3.612,4.734a27.91,27.91,0,0,1-3.5-.472v3.984a37.1,37.1,0,0,0,6.325.867c4.245.3,4.841-1.646,5.708-3.856a53.867,53.867,0,0,0,2.261-9.66,96.548,96.548,0,0,0,.868-11.61Z" transform="translate(-254.7 -423.029)" fill="#c8d2d2"/></g><g transform="translate(91.832 462.81)"><path d="M99.244,517.719V505.394h3.96v12.325Z" transform="translate(-99.244 -505.394)" fill="#c8d2d2"/><path d="M116.506,518.362a5.141,5.141,0,0,1-2.462.537c-2.276,0-3.146-1.129-3.146-3.091v-4.127h-1.166v-1.591H110.9v-2.461l3.812-.3v2.757h1.8v1.591h-1.8v4.331c0,.574.2.87.814.87a3.025,3.025,0,0,0,.925-.13Z" transform="translate(-104.624 -506.388)" fill="#c8d2d2"/><path d="M129.01,517.61c.019,1.073.425,1.924,1.314,1.924a.736.736,0,0,0,.814-.832,2.275,2.275,0,0,0-.037-.352l2.905.278a4.892,4.892,0,0,1,.037.5c0,1.795-1.7,2.48-4.09,2.48-3.461,0-4.793-1.906-4.793-4.5,0-2.406,1.647-4.5,4.849-4.5,2.664,0,4.108,1.444,4.108,3.683a8.6,8.6,0,0,1-.149,1.314Zm0-1.222H130.9a3.737,3.737,0,0,0,.056-.611c0-.592-.222-.981-.777-.981C129.417,514.8,129.065,515.611,129.01,516.388Z" transform="translate(-112.537 -509.097)" fill="#c8d2d2"/><path d="M152.418,521.422v-5c0-.574-.241-.925-.8-.925-.98,0-1.332,1.314-1.332,3.331v2.591h-3.812V512.8h2.7l.74,3c.463-2.091,1.462-3.183,3.2-3.183,1.85,0,2.868,1.129,3.072,3.183.24-1.7,1.185-3.183,2.868-3.183,2.11,0,3.109,1.481,3.109,4.053v4.756h-3.812v-5c0-.574-.241-.925-.8-.925-.981,0-1.333,1.314-1.333,3.331v2.591Z" transform="translate(-123.471 -509.097)" fill="#c8d2d2"/><path d="M185.688,521.607a7.551,7.551,0,0,1-4.442-1.388l1-1.758a5.029,5.029,0,0,0,2.869,1.073c.592,0,.851-.167.851-.462,0-.26-.185-.482-1.018-.722-2.794-.814-3.295-1.7-3.295-3.071,0-1.61,1.425-2.665,4-2.665a6.724,6.724,0,0,1,4.035,1.2l-.944,1.758a5.364,5.364,0,0,0-2.646-.888c-.482,0-.74.148-.74.407,0,.351.185.462,1.517.833,1.906.518,2.795,1.314,2.795,2.831C189.667,520.386,188.279,521.607,185.688,521.607Z" transform="translate(-141.305 -509.097)" fill="#c8d2d2"/><path d="M215.555,517.719H209.67V505.394h5.885c4.071,0,6.44,2.628,6.44,6.162S219.627,517.719,215.555,517.719Zm-.481-9.568H213.63v6.811h1.444c1.98,0,2.905-1.462,2.905-3.406S217.054,508.151,215.074,508.151Z" transform="translate(-155.884 -505.394)" fill="#c8d2d2"/><path d="M237.752,508.226v-2.832h3.812v2.832Zm0,9.494V509.1h3.812v8.624Z" transform="translate(-170.288 -505.394)" fill="#c8d2d2"/><path d="M252.758,521.607a7.551,7.551,0,0,1-4.442-1.388l1-1.758a5.026,5.026,0,0,0,2.868,1.073c.592,0,.851-.167.851-.462,0-.26-.186-.482-1.018-.722-2.794-.814-3.294-1.7-3.294-3.071,0-1.61,1.425-2.665,4-2.665a6.724,6.724,0,0,1,4.034,1.2l-.944,1.758a5.364,5.364,0,0,0-2.646-.888c-.481,0-.74.148-.74.407,0,.351.185.462,1.518.833,1.906.518,2.794,1.314,2.794,2.831C256.737,520.386,255.348,521.607,252.758,521.607Z" transform="translate(-175.707 -509.097)" fill="#c8d2d2"/><path d="M275.1,521.607a2.918,2.918,0,0,1-2.72-1.943v4.793H268.57V512.8h2.184l.851,2.424a3.3,3.3,0,0,1,3.2-2.609c2.72,0,3.757,2.258,3.757,4.5C278.563,519.46,277.471,521.607,275.1,521.607Zm-1.555-6.736c-.74,0-1.166.888-1.166,2.239,0,1.425.425,2.239,1.184,2.239.777,0,1.185-.8,1.185-2.239C274.751,515.648,274.307,514.871,273.548,514.871Z" transform="translate(-186.096 -509.097)" fill="#c8d2d2"/><path d="M291.94,517.719V505.394h3.812v12.325Z" transform="translate(-198.083 -505.394)" fill="#c8d2d2"/><path d="M313.422,520.96a3.341,3.341,0,0,1-2.184.648c-1.739,0-2.332-.8-2.517-1.592a2.891,2.891,0,0,1-2.924,1.592,2.308,2.308,0,0,1-2.609-2.332c0-1.537,1.314-2.147,3.368-2.147a16.173,16.173,0,0,1,2.017.148v-1.536c0-.666-.277-1.036-.813-1.036a.683.683,0,0,0-.778.74,1.64,1.64,0,0,0,.111.555l-3.405.8a3.325,3.325,0,0,1-.389-1.462c0-1.629,1.647-2.721,4.645-2.721,2.98,0,4.442,1.184,4.442,3.553v2.906c0,.426.111.666.573.666a1.159,1.159,0,0,0,.463-.074Zm-4.83-2.665c-1.055.148-1.665.314-1.665.962a.58.58,0,0,0,.648.592c.814,0,1.018-.722,1.018-1.388Z" transform="translate(-203.852 -509.097)" fill="#c8d2d2"/><path d="M330.946,521.6c-.925,2.442-2.054,3.2-3.868,3.2a5.079,5.079,0,0,1-2.165-.37l.074-1.573a3.612,3.612,0,0,0,.8.093c.981,0,1.3-.426,1.554-1.24l-3.516-8.716H327.5l1.647,5.829,1.5-5.829h3.442S331.963,518.9,330.946,521.6Z" transform="translate(-214.435 -509.292)" fill="#c8d2d2"/><path d="M354.79,508.226v-2.832H358.6v2.832Zm0,9.494V509.1H358.6v8.624Z" transform="translate(-230.32 -505.394)" fill="#c8d2d2"/><path d="M372.738,521.422v-5c0-.574-.241-.925-.8-.925-.981,0-1.333,1.314-1.333,3.331v2.591H366.8V512.8h2.7l.74,3c.463-2.091,1.462-3.183,3.2-3.183,2.11,0,3.109,1.481,3.109,4.053v4.756Z" transform="translate(-236.479 -509.097)" fill="#c8d2d2"/><path d="M404.872,508.281v9.438h-3.96v-9.438h-3.9v-2.887h11.77v2.887Z" transform="translate(-251.974 -505.394)" fill="#c8d2d2"/><path d="M430.383,520.96a3.339,3.339,0,0,1-2.184.648c-1.739,0-2.332-.8-2.517-1.592a2.89,2.89,0,0,1-2.924,1.592,2.308,2.308,0,0,1-2.609-2.332c0-1.537,1.314-2.147,3.368-2.147a16.173,16.173,0,0,1,2.016.148v-1.536c0-.666-.277-1.036-.813-1.036a.683.683,0,0,0-.777.74,1.639,1.639,0,0,0,.111.555l-3.405.8a3.333,3.333,0,0,1-.389-1.462c0-1.629,1.647-2.721,4.645-2.721,2.98,0,4.442,1.184,4.442,3.553v2.906c0,.426.111.666.573.666a1.155,1.155,0,0,0,.463-.074Zm-4.83-2.665c-1.055.148-1.665.314-1.665.962a.58.58,0,0,0,.647.592c.814,0,1.018-.722,1.018-1.388Z" transform="translate(-263.845 -509.097)" fill="#c8d2d2"/><path d="M443.633,508.226v-2.832h3.812v2.832Zm0,9.494V509.1h3.812v8.624Z" transform="translate(-275.89 -505.394)" fill="#c8d2d2"/><path d="M462.174,521.607a2.918,2.918,0,0,1-2.72-1.943v4.793h-3.812V512.8h2.184l.851,2.424a3.305,3.305,0,0,1,3.2-2.609c2.72,0,3.757,2.258,3.757,4.5C465.634,519.46,464.542,521.607,462.174,521.607Zm-1.554-6.736c-.741,0-1.166.888-1.166,2.239,0,1.425.425,2.239,1.185,2.239.777,0,1.184-.8,1.184-2.239C461.822,515.648,461.378,514.871,460.619,514.871Z" transform="translate(-282.049 -509.097)" fill="#c8d2d2"/><path d="M481.834,517.61c.018,1.073.425,1.924,1.314,1.924a.736.736,0,0,0,.814-.832,2.273,2.273,0,0,0-.037-.352l2.905.278a4.892,4.892,0,0,1,.037.5c0,1.795-1.7,2.48-4.089,2.48-3.461,0-4.793-1.906-4.793-4.5,0-2.406,1.647-4.5,4.849-4.5,2.664,0,4.108,1.444,4.108,3.683a8.657,8.657,0,0,1-.148,1.314Zm0-1.222h1.887a3.737,3.737,0,0,0,.056-.611c0-.592-.222-.981-.777-.981C482.242,514.8,481.889,515.611,481.834,516.388Z" transform="translate(-293.51 -509.097)" fill="#c8d2d2"/><path d="M499.3,508.226v-2.832h3.812v2.832Zm0,9.494V509.1h3.812v8.624Z" transform="translate(-304.444 -505.394)" fill="#c8d2d2"/></g></g></svg>