<svg xmlns="http://www.w3.org/2000/svg" width="100%" height="100%" viewBox="0 0 150 15.9"><defs><style>.cls-1{fill:#dbe3c5;}</style></defs><path class="cls-1" d="M143.3,1.2V0h-3.5V1.2h-8.2V3.1c0,1.4,0,2-.1,3.2s-.2,2.5-.3,3.8-.2,1.4-.5,2.8l-.3,1.3c-.1.2-.1.5-.2.6l3.6.8c0-.2.1-.3.1-.6l.3-1.5c.3-1.4.4-2.2.5-3s.3-2.6.4-4.1.1-1.5.1-2.3H150V1.2Z"/><path class="cls-1" d="M143.6,4.7h-3.3V8.8h-4.9v6.9h3.5v-.6h6.7v.6h3.5V8.8h-5.5V8h6V5.6h-6Zm2.1,6.5V12H139v-.8Z"/><path class="cls-1" d="M104.3.6H88.4V3c0,1.4,0,2-.1,3.2S88.1,8.7,88,10s-.2,1.4-.5,2.8l-.3,1.3c-.1.2-.1.5-.2.7l3.6.8c0-.2.1-.3.1-.6s.2-.9.3-1.5l.4-2.4h4v4.5h3.1V11.1h4.2v.8a1,1,0,0,1-.1.4.5.5,0,0,1-.4.2H99.8l.8,3.1h1.7a9.2,9.2,0,0,0,2.3-.1,1.5,1.5,0,0,0,1.4-1.3,9.7,9.7,0,0,0,.1-1.6V.6ZM95.6,8.8H91.8c0-.5.1-1,.1-1.5h3.6V8.8Zm0-3.7H92V3.7h3.5V5.1Zm7.2,3.7H98.5V7.3h4.3Zm0-3.7H98.5V3.7h4.3Z"/><path class="cls-1" d="M114.3,7.6h-5.9v8.1h3.3v-.6h2.7v.6h3.5V7.6h-3.6Zm0,5.1h-2.7V9.9h2.7Z"/><path class="cls-1" d="M125,7.6h-6.1v8.1h3.3v-.6H125v.6h3.5V7.6H125Zm0,5.1h-2.8V9.9H125Z"/><path class="cls-1" d="M113.8,6.8h11.6V.6H111.2V6.8Zm1.1-4h6.8V4.6h-6.8Z"/><path class="cls-1" d="M62.2.6H52.4v12H50.7l1.7-1.4-.4-.5a25.5,25.5,0,0,1-2.1-2.8h2V5.4H49.5v-2l2-1L50.1.2a35.3,35.3,0,0,1-6.5,2.1l1.2,2.4,1.4-.3v1H43.6V7.9h2.6a27,27,0,0,1-2.9,4l1.9,2.3,1-1.7v3.1h3.3V11.5l.6.7.4.5h0v2.9H63.1V12.5h-.9Zm-3.5,12H55.9V10.8h2.8Zm0-4H55.9V7.2h2.8Zm0-3.6H55.9V3.7h2.8Z"/><path class="cls-1" d="M78.9,13.3v-.4h5.3V11.2H82.6l1.1-.8L82,8h2.3V6.2H70.1V7.9h2.4l-.8,1.2H70.3v1.5h5.3V11H70.3v1.7h5.3v.4H69.2v2.4H84.9V13.1Zm2.5-2.2H78.9v-.7h2ZM74.9,9l.7-1.1h3.5l.7.9Z"/><polygon class="cls-1" points="8.9 11.1 8.9 0.7 5.1 0.7 5.1 5.2 0.3 5.2 0.3 8.6 5.1 8.6 5.1 11.6 0 12.3 0.9 15.8 10.5 14 9.7 10.9 8.9 11.1"/><path class="cls-1" d="M16.9,11.5c0,.2-.1.3-.1.5v.2c0,.1-.1.1-.2.1H14.9v-.2h0V8.5l5.2-1.1-1-3.3L14.9,5V.8H11V12h0a13.4,13.4,0,0,0,.1,2,2,2,0,0,0,1,1.4l1.7.3h3.7l.9-.3c1.2-.6,1.5-2.2,1.6-2.9a.9.9,0,0,1,.1-.5,4.9,4.9,0,0,1,.1-1.1L17.1,9.7A9.9,9.9,0,0,1,16.9,11.5Z"/><path class="cls-1" d="M26.3,1.8A16.7,16.7,0,0,0,23.7.1l-1.8,2a22,22,0,0,1,3.2,2.1l1.1-1.9v.8h4.5v.5H27V7.3H40.6V3.7h-4V3.2h5V.6H26.3Zm10,3.4H38v.7H36.3Zm-3.4-2h1.6v.5H32.9Zm-.1,2h1.7v.7H32.8Zm-1.7.7H29.6V5.2h1.5Z"/><path class="cls-1" d="M26.5,11.9h1.8a17.5,17.5,0,0,1-2.7,1.6l1.7,2.2a11,11,0,0,0,3.2-2l.6,2.1h1.5a6.2,6.2,0,0,0,1.9-.1,1.3,1.3,0,0,0,1.2-1.1,7.1,7.1,0,0,0,.1-1.4V11.9h1.7l-1,1.8.4.2a12,12,0,0,1,2.7,1.9L41.5,14a9.7,9.7,0,0,0-2.8-2.1h2.9V9.7h-15v2.2Zm6.2,0v.8a.5.5,0,0,1-.1.3H31l-1-1.2Z"/><rect class="cls-1" x="27.3" y="7.8" width="13.2" height="1.5"/><path class="cls-1" d="M26.3,5.8,23.6,3.9l-1.8,2A15.4,15.4,0,0,1,24.9,8Z"/><path class="cls-1" d="M69.7,6.6V5.7H84.4V3.9h0V.6H66.5V3.2c0,1.4,0,2-.1,3.2s-.2,2.5-.3,3.8a24.3,24.3,0,0,1-.5,2.8l-.3,1.3c-.1.2-.1.5-.2.6l3.2.7c0-.2.1-.4.1-.6l.3-1.5c.3-1.4.4-2.2.5-3A21.8,21.8,0,0,0,69.7,6.6Zm.1-3.4H81.4v.7H69.8Z"/><path class="cls-1" d="M23.9,8.2a18.7,18.7,0,0,1-2.4,6.3l2.6,1.3a20.8,20.8,0,0,0,2.2-6.5Z"/></svg>