<svg xmlns="http://www.w3.org/2000/svg" width="380.117" height="40.82" viewBox="0 0 380.117 40.82">
  <g id="Group_461" data-name="Group 461" transform="translate(781.696 -241.305)">
    <path id="Path_1050" data-name="Path 1050" d="M-612.914,264.192l.012-.013c-1.323-.381-2.752-.866-4.391-1.513-.439,2.569-.8,4.5-.949,4.942-.24.726-1.036.778-1.951.878a14.378,14.378,0,0,1-2.6.03,1.224,1.224,0,0,1-.888-.779,17.443,17.443,0,0,1-.243-2.191c-.042.025-.082.048-.12.073-.21.033-.064-.072.112-.174,0-.043-.007-.09-.01-.134a1.357,1.357,0,0,1-.485.084c.037-.076.24-.136.477-.193-.006-.07-.011-.136-.016-.208a3.025,3.025,0,0,1-.7.138c.022-.1.375-.173.688-.245-.086-1.219-.17-2.754-.227-4.465,4.318-.688,8.147-1.454,14.243-1.964-.753-3.19-1.528-6.543-2.169-9.646-4.821,1.093-8.14,1.6-12.02,2.373a40.508,40.508,0,0,1,.967-7.439c-3.567-.134-6.366-.188-9.841-.008-.991,8.866-.053,29.865-.067,29.145a33.566,33.566,0,0,0,.406,5.18c.412,2.12,1.573,3.388,2.611,3.506a12.931,12.931,0,0,0,1.944-.055,81.285,81.285,0,0,1,12.451-.063,13.716,13.716,0,0,0,2.066.082c4.245-.651,4.055-14.935,4.188-16.517-1.112-.215-2.24-.478-3.457-.829Zm-1.543-6.482c.111.143-.279.249-.712.352C-615.28,257.919-614.891,257.813-614.456,257.71Zm-3.312.867c-.033.2-.7.269-1.04.327C-618.774,258.772-618.071,258.689-617.768,258.577Zm-9.726,1.611a5.454,5.454,0,0,1-1.765.631C-629.184,260.525-628.226,260.428-627.494,260.188Zm-2.063,5.828c.217-.208.789-.153,1.336-.393.07.263-.569.2-1,.46C-629.356,266.079-629.346,265.968-629.557,266.016Zm.522,10.371c.083-.226.429-.16.873-.313-.692.019,1.187-.564,1.749-.624l.071.257C-627.395,275.8-627.91,276.183-629.035,276.387Zm1.151,4.616c.128-.278.954-.505,1.588-.634C-626.788,280.582-627.4,280.789-627.884,281Zm5.666-1.547c-.022.09-.172.15-.387.335a9.208,9.208,0,0,1-1.084.153c.139-.317.808-.3,1.6-.583C-622.044,279.4-622.128,279.426-622.218,279.456Z" transform="translate(-65.735 -1.027)" fill="#002695"/>
    <path id="Path_1051" data-name="Path 1051" d="M-660.531,266.816a2.919,2.919,0,0,1,1.388-.516c-.1-7.928-.439-16.368-.661-22.534-3.635-.223-6.255-.223-10.532-.272a78.984,78.984,0,0,1,1.255,8.818c-5.122-.551-9.678-.576-13.686-.687.1,3.805.149,6.046.156,9.935,5.345-.1,9.429.031,13.993.307.034,2.08.037,4.226.02,6.457a80.927,80.927,0,0,1-14.535.476c.273.776.536,1.508.8,2.219.045-.022.081-.09.107-.2.073-.1.039.089-.039.39.761,2.081,1.483,3.975,2.264,6.168.09-.516.005-.685.07-1.152.423-.531.335.4.644.321-.131.683.047.88-.179,1.315-.092-.082.013-.559.044-.887a1.9,1.9,0,0,0-.268.854c-.05-.159-.127-.263-.25-.277.463,1.3.947,2.712,1.474,4.333a94.207,94.207,0,0,1,19.022-.267c.1-1.422.315-7.03.309-7.591.034-2.4.029-4.953,0-7.566A6.118,6.118,0,0,0-660.531,266.816Zm-20.178-8.36c.057-.576.156-.938.343-.844C-680.421,258.188-680.52,258.552-680.709,258.456Zm-1.717,10.988.375.052C-682.1,270.39-682.619,270.318-682.426,269.444Zm8.5,6.921a6.6,6.6,0,0,1,.211,1.82C-674.112,278.225-674.008,277.269-673.93,276.364Zm3.128-7.642a14.1,14.1,0,0,1,1.84-.243A5.361,5.361,0,0,1-670.8,268.722Zm10.471-14.766a8.115,8.115,0,0,1-1.464.487A2.737,2.737,0,0,1-660.331,253.957Zm-2.25,9.242a8.276,8.276,0,0,0,1.211-.3c.277.163-1.812.733-1.733.732-.1.2-.416.059-.614.125C-663.457,263.564-662.594,263.4-662.581,263.2Zm-.475-9.259c0,.12-.648.128-.915.2C-663.992,254-663.266,253.9-663.057,253.94Zm-1.555-9.2c.017.137-.474.234-.87.338C-665.673,244.93-664.911,244.852-664.612,244.741Zm-2.648,16.284c-.193.136-.938.181-1.212.3C-668.4,261.058-667.92,261.174-667.26,261.025Zm-1.094,7.356a6.042,6.042,0,0,1,2-.215C-666.747,268.318-667.577,268.214-668.353,268.381Zm1.858.78c-.152.169-.807.135-.637-.059l1.067-.173C-665.952,269.156-667.37,269.081-666.5,269.16Zm.478-4.557c-.462.113-.467-.018-.928.1.433-.113.676-.258,1.037-.383C-665.84,264.43-665.9,264.52-666.018,264.6Zm.75-3.954c-.14-.021-.116-.129-.335-.107.47-.265.9-.026,1.258-.042C-664.731,260.739-664.8,260.423-665.268,260.649Zm1.266.012c-.2.191-.337.1-.905.254C-664.954,260.757-664.132,260.638-664,260.66Zm1.353,3.4a15.894,15.894,0,0,0-1.72.062c.221-.115,1.183-.14,1.838-.3C-662.448,263.923-662.613,263.98-662.649,264.059Zm2.19,4.626a1.874,1.874,0,0,1-1.158.452A3.139,3.139,0,0,1-660.459,268.685Zm-.622.628c-.014-.119.624-.208.876-.314C-660.167,269.14-660.87,269.326-661.081,269.312Z" transform="translate(-43.712 -0.971)" fill="#002695"/>
    <path id="Path_1052" data-name="Path 1052" d="M-776.129,277.94c-.1.932-.183,1.845-.251,2.746a.882.882,0,0,1,.317-.035c.417-.136-.248-.1.113-.239a2.6,2.6,0,0,1,.619-.067c-.339.123-.386.287-.712.411.019.1.425-.014.34.15l-.455.09c.054.085.284.067.628-.014-.252.19-.56.086-.872.078a97.982,97.982,0,0,0,.274,15.908,30.274,30.274,0,0,0,8.9,0v-1.5q14.265-.588,27.831,0v1.5a30.355,30.355,0,0,0,8.9,0,87.871,87.871,0,0,0,0-19.028A216.965,216.965,0,0,0-776.129,277.94Zm41.73,5.471c.345-.07-.462.776.056.368.074.017-.012.11-.106.208l-.309.318a.752.752,0,0,1,.2-.426c-.124.042-.249.08-.315,0C-734.719,283.717-734.558,283.566-734.4,283.411Zm-2.087-5.568a14.332,14.332,0,0,0-1.281,1.239C-738.115,279.083-736.479,277.5-736.486,277.843Zm-10.786,3.5c.789.319.269.391.895.678C-746.616,282.089-747.615,281.41-747.273,281.345Zm-1.179,1.162,1.165.656c-.672.262.552.519,1.012.918-.579.124-1.627-.851-2.44-1.115C-748.283,282.884-748.131,282.976-748.451,282.507Zm-1.831-2.2.776.437c-.042.206-.392.065-.888-.239Zm-6.308,3.03c.107-.132.839.436,1.2.59-.132.1-.6-.166-.728-.063a2.664,2.664,0,0,0-.547-.395C-756.574,283.4-755.79,283.8-756.591,283.332Zm-10.519,6.734a13.6,13.6,0,0,0-1.994.066c.312-.383-.19-.175-.255-.514a6.311,6.311,0,0,0,1.328-.095c-.036.2.841.414,1.341.134C-766.177,289.68-767.053,289.949-767.11,290.067Zm17.9.011c0-.076.111-.02.233.043-.459-.308-.789-.967-1.2-1.023-.477-.234.279-.238-.465-.523a2.935,2.935,0,0,1,1.232.52c.24.444.221.461,1.236.958C-748.507,290.077-748.585,290.386-749.213,290.077Zm8.8,2.091c-.659-.253-.127-.642-.659-.632-.6-.425.29-.009.306-.089-.293-.429-1.61-.672-1.434-1.069l2.358,1.242C-740.045,291.893-740.447,291.692-740.416,292.168Zm2.441-5.244a92.293,92.293,0,0,0-18.446-.837c-.128.166.557.522.018.416-.208-.148-.422-.391-.118-.24a1.53,1.53,0,0,0-.152-.159c-3.422.21-6.942.621-10.779,1.242l-.267-1.647a94.261,94.261,0,0,1,21.8-1.255c-.177-.217-.172-.34.46.009a.128.128,0,0,0-.026.016c2.486.165,5.04.432,7.74.8Zm-1.481-4.7a4.141,4.141,0,0,1,1.764-.353C-737.7,282.194-738.937,282.237-739.455,282.226Zm.65-.712a15,15,0,0,1,2.158-2.252c-.347.481-.307.779-.853,1.353C-737.768,280.3-738.3,281.424-738.8,281.514Zm1.257-.315c.039-.127.075-.253-.005-.321.568-.367.794-.8,1.174-1.031A13.907,13.907,0,0,1-737.548,281.2Zm2.707,4.278c-.341.384-.327.023-.624.317-.219-.078.884-.825.665-.9.227-.2.263,0,.369.056C-734.654,285.168-734.878,285.389-734.841,285.477Zm1.023,1.338c-.341.276-.554.279-.73.208.115-.166.229-.332.2-.425.332-.312.345.05.676-.261C-733.653,286.463-733.857,286.7-733.818,286.815Zm1.434,4.207c-.6.427-.037-.4.041-.585.315-.245.121.074.161.16a2.725,2.725,0,0,0,.572-.371C-731.578,290.611-732.417,290.637-732.384,291.022Z" transform="translate(-2.255 -15.713)" fill="#002695"/>
    <path id="Path_1053" data-name="Path 1053" d="M-732.245,253.212c.406-.173.012-.192-.024-.378.569-.006.986-.026,1.352-.057-2.814-2.892-5.3-5.187-8.656-6.641a14.857,14.857,0,0,0-3.56,3.455,26.125,26.125,0,0,1,2.036,1.933q-8.392-.331-17.484-.457c-.1.015-.2.031-.273.051a.11.11,0,0,0,.018-.055l-.474-.007a.423.423,0,0,0,.294.034c-.023.047-.146.078-.136.13l-.307.051c-.288-.092.2-.2-.479-.029-.069-.081.024-.134.083-.194q-1.391-.017-2.8-.031a93.537,93.537,0,0,1,9.719-5.738,24.128,24.128,0,0,0-10.79-3c-1.121.684-2.174,1.4-3.175,2.136.065-.015.122-.031.2-.044.009.073-.171.141-.4.2a39.587,39.587,0,0,0-6.779,6.409q-3.843.007-7.792.038a25.215,25.215,0,0,0,2.033,10.255c15.479-1.481,28.773-1.918,43.835-2.686.519.764,1.047,1.521,1.613,2.267a23.439,23.439,0,0,0,4.117-7.2c-.149-.156-.292-.3-.439-.454C-731.017,253.213-731.576,253.219-732.245,253.212Zm-30.348-5.367c.371-.13.77-.006.772-.127C-761.095,247.7-762.82,248.1-762.593,247.844Zm-1.829,4.805a4.275,4.275,0,0,1-1.219.239C-765.615,252.625-764.912,252.811-764.422,252.65Zm-5.577,2.8.764-.15C-768.969,255.418-770.2,255.66-770,255.454Zm2.742,1.037a4.8,4.8,0,0,1,1.525-.3A2.943,2.943,0,0,1-767.257,256.491Zm.918-1.809.767-.15C-765.307,254.647-766.543,254.889-766.339,254.682Zm2.4-.227a2.264,2.264,0,0,1-.6.172c.246-.16-.133-.081.113-.24.565-.151.368.136.8.061C-763.707,254.557-763.968,254.549-763.939,254.455Zm1.4-2.732.613-.1.028.158C-762.191,251.806-762.558,251.869-762.535,251.723Zm1.539,6.094c.055-.2.726-.277,1.045-.313C-759.945,257.658-760.57,257.724-761,257.817Zm-.162-3.674c.24-.2.821-.1,1.224-.2C-759.971,254.207-760.765,254.049-761.159,254.143Zm2.613.7c-.241.359-1.692.318,0,0Zm-.344-.15c-.158-.175.711-.208,1.05-.314A5.26,5.26,0,0,1-758.89,254.689Zm12.137,1.263c-.815.144-.293-.114-.953-.032a2.55,2.55,0,0,1,.823-.269,9.771,9.771,0,0,1,1.157-.137C-745.7,255.722-746.981,255.711-746.753,255.952Z" transform="translate(0 -0.432)" fill="#002695"/>
    <path id="Path_1054" data-name="Path 1054" d="M-144.415,265.391v-2.222a31.318,31.318,0,0,0-8.347,0v6.153a8.536,8.536,0,0,0,1.257-.264,2.923,2.923,0,0,1-1.257.35v3.359q-6.207.213-12.406.911V291.3a31.155,31.155,0,0,0,8.9,0v-1.543h17.072V291.3a31.155,31.155,0,0,0,8.9,0V273.677q-7.086-.834-14.127-.968v-1.818a135.129,135.129,0,0,1,14.714.242v-5.488A96.822,96.822,0,0,0-144.415,265.391Zm-15.634,23.78c-.545.071.626-.431-.353-.128-.494.053.515-.189.734-.247-.222.168.031.061.053.206C-159.829,289.052-160.041,289.1-160.05,289.17Zm14.232-24.263c.189.154-.631.241-.743.226A1.126,1.126,0,0,1-145.817,264.908Zm-5.523,12.2c1.808-.405,2.989-.607,4.064-.933a13.12,13.12,0,0,1-4.051.985C-152.021,277.355-152.051,277.231-151.34,277.105Zm-3.648.545c-.009-.119.633-.189.89-.288A.983.983,0,0,1-154.988,277.65Zm13.432,3.113-.122.825-.122.826a41.022,41.022,0,0,0-7.219-.445,5.405,5.405,0,0,0-.886.313,1.263,1.263,0,0,1,.5-.3,33.876,33.876,0,0,0-4.685.5l-.149-.822-.148-.821A39.569,39.569,0,0,1-141.556,280.763Zm-1.264-13.24c.14-.165.657-.051.925-.093C-141.9,267.688-142.447,267.445-142.82,267.524Zm2.673,1.821c.495-.062.661.028,1.236-.071.25.03-.863.173-1.061.267C-139.961,269.444-140.17,269.448-140.147,269.344Zm2.4.776c-.159.2-.3.114-.122.334C-138.326,270.5-138.347,270.123-137.742,270.121Zm-1.2.388c-.274.035-.33-.032-.62.009-.213-.257.613-.269,1.208-.335C-138.317,270.347-139.212,270.291-138.944,270.509Z" transform="translate(-273.429 -9.573)" fill="#002695"/>
    <path id="Path_1055" data-name="Path 1055" d="M-156.116,243.74v-2.035a38.052,38.052,0,0,0-8.9,0v1.985q-10.458.112-21.059.994c0,.992.013,1.315.022,1.578.009.3.017.52-.016,2.821l-.009.634c-.051,3.525-.075,5.134-.229,8.242-.13,2.607-.306,4.853-.562,7.131a8.475,8.475,0,0,1,.979-.282c.037.142-.721.319-.985.334-.091.806-.191,1.616-.3,2.448-.27,2-.515,3.677-1.213,7.081-.256,1.247-.541,2.362-.792,3.346-.159.62-.3,1.174-.408,1.654a20.773,20.773,0,0,1,9.226,2.1c.093-.409.214-.88.349-1.409.263-1.032.642-2.42,1.022-3.87a59.726,59.726,0,0,0,1.644-7.362,73.842,73.842,0,0,0,.944-10.428,36.968,36.968,0,0,0-.252-6.226h37.681v-7.791Q-147.5,243.923-156.116,243.74Zm-27.519,1.5c-.138.214.5-.087.356.127a3.319,3.319,0,0,0-1.332.4c0-.1-.42-.124-.7-.2A4.363,4.363,0,0,0-183.635,245.245Zm-.042,18.875c-.728.361-.346.306-1.184.365a1.5,1.5,0,0,1,.977-.531C-184.1,264.11-184.637,264.4-183.677,264.12Zm.157,2.327a7.157,7.157,0,0,1-2.09.547A6.92,6.92,0,0,1-183.52,266.446Zm-2.4-1.135c-.068-.1-.662.156-.775.1.076-.155.832-.244,1.181-.371-.019.217-.5.4-.8.594C-186.644,265.686-186.073,265.389-185.916,265.311Zm1.436,14.16c-.022.09-.173.15-.387.336a9.189,9.189,0,0,1-1.084.153c.139-.317.808-.3,1.6-.583C-184.306,279.411-184.39,279.441-184.48,279.471Zm.5-12.354c.052-.147.531-.262.852-.388C-183.154,266.883-183.633,267.137-183.975,267.117Zm1.328-.4c-.042-.156.818-.441.746-.195Zm1.668-.326c-.1-.175.5-.3.84-.44A2.3,2.3,0,0,1-180.979,266.387Zm-.091-7.468c.034-.131.737-.214,1.04-.327C-180.063,258.79-180.734,258.861-181.07,258.919Zm3.639-.842c-.111-.143.279-.249.712-.352C-176.608,257.869-177,257.974-177.431,258.077Zm2.634-13.262c.133-.162,1.73-.838,1.781-.521C-173.633,244.239-173.837,244.615-174.8,244.815Zm15.546,4.364c-.534.175-.18-.2-.651-.07-.837.421-1.283.195-2.257.519.135-.1.383-.2.4-.312.193.057,1.05-.306,1.24-.121l.868-.363c.317-.057-.191.192.337.086.218-.073-.075-.052-.036-.156a1.466,1.466,0,0,1,.811.087C-159.43,248.96-159.313,249.076-159.251,249.179Z" transform="translate(-262.595 -0.062)" fill="#002695"/>
    <path id="Path_1056" data-name="Path 1056" d="M-288.451,277.138v8.119a3.065,3.065,0,0,1,.367.179c-.267.1.176.326.006.439a3.651,3.651,0,0,1-.372-.341v11.641a26.344,26.344,0,0,0,8.348,0v-1.525h6.929v1.525a30.012,30.012,0,0,0,8.9,0V277.138A184.534,184.534,0,0,0-288.451,277.138Zm21.944,8.032.376.052C-266.178,286.117-266.7,286.045-266.507,285.17Zm.016,1.572c.084.048.141-.032.181-.2.193-.269-.358,1.487-.494,1.951C-266.985,287.907-266.484,287.674-266.491,286.741Zm-13.684-4.88c.568-.367.794-.8,1.174-1.031a13.906,13.906,0,0,1-1.168,1.352C-280.131,282.054-280.1,281.929-280.175,281.862Zm1.066-3.035a14.277,14.277,0,0,0-1.281,1.239C-280.738,280.067-279.1,278.484-279.109,278.827Zm-.16,1.419c-.347.481-.308.779-.853,1.353-.269-.311-.8.809-1.306.9A14.968,14.968,0,0,1-279.269,280.246Zm-1.045,2.61c-.009.322-1.246.365-1.764.353A4.143,4.143,0,0,1-280.314,282.856Zm-2.725,10.3c-.659-.253-.127-.642-.659-.632-.6-.425.29-.009.306-.088-.293-.429-1.61-.672-1.434-1.069l2.357,1.242C-282.667,292.877-283.07,292.675-283.039,293.152Zm6.6-5.353c-.341.276-.554.279-.73.208.115-.166.229-.332.2-.425.332-.312.345.05.676-.261C-276.275,287.447-276.48,287.685-276.44,287.8Zm1.434,4.207c-.6.427-.037-.4.041-.585.315-.245.121.073.161.16a2.75,2.75,0,0,0,.572-.371C-274.2,291.595-275.04,291.621-275.007,292.005Zm2.888-5.726-.157.82a24.308,24.308,0,0,0-5.8-.333l-.013.011s0-.007,0-.009a27.361,27.361,0,0,0-3.326.386l-.034-.191a1.146,1.146,0,0,1-.589-.045c.957-.454-2.534-.439-2.139-.972a16.592,16.592,0,0,0,2.654.6l-.04-.216-.148-.821a29.254,29.254,0,0,1,4.4-.44.887.887,0,0,1,.137-.206c-.125.041-.249.08-.315,0,.152-.161.314-.313.473-.467.345-.07-.462.776.056.368.074.018-.012.11-.106.208l-.092.1a25.356,25.356,0,0,1,5.2.393Z" transform="translate(-218.754 -15.716)" fill="#002695"/>
    <path id="Path_1057" data-name="Path 1057" d="M-239.951,277.193v20.036a26.357,26.357,0,0,0,8.348,0V295.7h7.029v1.525a30.011,30.011,0,0,0,8.9,0v-14.4a2.428,2.428,0,0,0-1.021.159,1.839,1.839,0,0,1,1.021-.279v-5.516A224.874,224.874,0,0,0-239.951,277.193Zm3.451,14.953a6.554,6.554,0,0,1,.211,1.82C-236.683,294.006-236.579,293.05-236.5,292.146Zm8.02-12.049c.07.115.009.205-.109.288-.462.113-.467-.018-.928.1A10.857,10.857,0,0,0-228.48,280.1Zm-.585,4.845c-.153.169-.808.135-.637-.059l1.067-.173C-228.522,284.937-229.94,284.863-229.065,284.942Zm.142-.995c-.395.152-1.225.049-2,.215A6.023,6.023,0,0,1-228.923,283.947Zm-4.562-3.84c-.079-.907.334-1.2.3-2.188C-232.811,278.084-233.1,280.068-233.484,280.107Zm1.952,4.154a5.351,5.351,0,0,1-1.84.243A14.216,14.216,0,0,1-231.533,284.26Zm7.832,2.074-.157.82a26.036,26.036,0,0,0-9.142.054l-.3-1.643a27.842,27.842,0,0,1,9.753-.051Zm.05-1.241c-.014-.119.624-.208.876-.314C-222.737,284.921-223.44,285.107-223.652,285.094Zm-.536-.176a3.136,3.136,0,0,1,1.158-.452A1.874,1.874,0,0,1-224.188,284.918Zm3.828,2.04c-.194-.144.562-.243.858-.364C-219.48,286.729-219.968,286.841-220.359,286.957Zm.28-5.082c.231-.248.681-.194,1.16-.452C-218.956,281.7-219.5,281.687-220.079,281.875Zm.9,4.734a12.494,12.494,0,0,1,2.8-.878A13.246,13.246,0,0,1-219.176,286.609Zm1.891-2.334c.03.141-.267.346-.548.328C-217.918,284.481-217.562,284.38-217.285,284.275Zm-.3-1.025a3.524,3.524,0,0,0,.906-.21c-.058.188-.076.129.073.255-1,.259-.591.093-1.513.334.007-.067.257-.123.431-.183S-217.588,283.318-217.582,283.25Zm-.17-5.616c-.514.276-1.1.277-1.777.579A4.813,4.813,0,0,1-217.752,277.635Zm-1.554.791a7.638,7.638,0,0,1-2.21.762A13.267,13.267,0,0,1-219.306,278.426Zm-1.727,3.508c-.464.417-1.347.309-2.069.664C-222.668,282.171-221.6,282.1-221.033,281.934Zm-4.119-2.954a8.272,8.272,0,0,0,1.212-.3c.277.162-1.812.733-1.732.732-.1.2-.417.059-.614.125C-226.027,279.345-225.165,279.181-225.152,278.98Zm.05.625c.083.1-.081.156-.118.235a16,16,0,0,0-1.72.061C-226.719,279.787-225.756,279.762-225.1,279.6Z" transform="translate(-240.263 -15.771)" fill="#002695"/>
    <path id="Path_1058" data-name="Path 1058" d="M-239.585,258.948q.159-2.281.227-4.521c-.328.1-.754.192-1.024.293a2.473,2.473,0,0,1,1.028-.444,105.133,105.133,0,0,0-.231-11.1,129.36,129.36,0,0,0-36.225,0,122.46,122.46,0,0,0,0,15.768Zm-19.711-.215c.057-.576.156-.938.343-.844C-259.008,258.465-259.107,258.829-259.3,258.733Zm17.652-4.517c0,.12-.648.127-.915.2C-242.578,254.274-241.853,254.176-241.643,254.216Zm-1.555-9.2c.017.136-.474.233-.87.338C-244.259,245.207-243.5,245.129-243.2,245.017Zm-8.092,4.241-.245,1.652a37.877,37.877,0,0,0-12.293.066l-.3-1.643A39.572,39.572,0,0,1-251.289,249.258Zm-12.311,4.064c-.058.184-.762.2-.643.425.761,0,.264-.327,1.1-.3-.079.188.413.135.243.362a27.13,27.13,0,0,1-4.214.224c.406-.173.012-.192-.024-.378A23.949,23.949,0,0,0-263.6,253.321Zm-6.55-8.444c-.158.3-.771.06-1.1.229.123.054.238.107.237.213.683.007.413-.239,1.1-.23-.5.2.092.289.03.529.678.007.642-.176,1.321-.17a8.009,8.009,0,0,1-2.188.536c-.253,0-.127-.068,0-.076-.04-.137-.751.007-.893-.089-.017-.128.154-.208.429-.258-.883-.032-.6-.111-1.122-.224C-271.509,245.23-271.013,244.741-270.15,244.878Z" transform="translate(-224.248 -0.266)" fill="#002695"/>
    <path id="Path_1059" data-name="Path 1059" d="M-534.064,252.856a7.17,7.17,0,0,0,1.227.755l-.023-10.173a72.546,72.546,0,0,0-26.912,0l.016,12.214q-3.476-.311-7.059-.391v-4.87c2.01-.972,4.064-1.494,6.669-2.656a25.675,25.675,0,0,1-4.414-6.43c-5.436,1.694-10.407,3.742-15.9,6.01,1.293,2.223,2.231,4.243,3.1,5.807,1.618-.308,3.127-.81,4.533-1.166v3.322q-3.766.1-7.629.407a21.464,21.464,0,0,1,0,6.344c2.323-.2,4.614-.321,6.881-.382-.4,5.042-2,4.472-7.085,5.01a65.344,65.344,0,0,1,.313,12.311,8.9,8.9,0,0,0,7.521-3.09V281.8a14.226,14.226,0,0,0,6.017,0v-6.471a8.629,8.629,0,0,0,7.089,3.638l0,2.966a143.1,143.1,0,0,1,26.953.136l-.066-28.336C-533.419,253.466-534.256,252.932-534.064,252.856Zm-39.5-4.72c-.534.175-.18-.2-.651-.07-.837.421-1.283.2-2.257.519.135-.1.383-.2.4-.311.193.056,1.049-.306,1.24-.121l.867-.363c.317-.057-.19.192.337.086.218-.073-.075-.052-.036-.156a1.471,1.471,0,0,1,.811.087C-573.747,247.917-573.63,248.034-573.568,248.136Zm-4.875,10.869c.109-.287,1.1-.253,1.785-.5C-577.254,258.894-577.773,258.721-578.443,259.005Zm1.952,7.547c1.808-.405,2.989-.607,4.064-.933a13.128,13.128,0,0,1-4.051.986C-577.172,266.8-577.2,266.677-576.491,266.552Zm1.435,5.178c.452-.556,2.968-.831,3.87-1.07C-572.229,271.238-573.668,271.082-575.057,271.73Zm3.345-17.15a1.122,1.122,0,0,1,.743-.225C-570.779,254.508-571.6,254.6-571.712,254.58Zm3.741,2.39c.14-.165.657-.051.925-.092C-567.056,257.135-567.6,256.891-567.971,256.97Zm5.078,2.6c-.159.2-.3.114-.123.334C-563.477,259.944-563.5,259.569-562.893,259.567Zm-1.2.388c-.274.035-.331-.032-.62.009-.213-.257.613-.269,1.208-.335C-563.468,259.794-564.363,259.737-564.1,259.955Zm.034-1.235c.25.03-.863.173-1.061.267.01-.1-.2-.093-.175-.2C-564.8,258.729-564.637,258.819-564.062,258.72Zm-1.459,2.966q2.913.1,5.773.315l.006,4.393C-564.016,266.02-565.2,266.314-565.521,261.686Zm32.043-17.859c.054.2-1,.145-.432.234-.095.137-.858.162-1.22.254.1-.169-.239-.1-.2-.238C-534.676,244.3-534.134,243.84-533.478,243.827Zm-.639,3.746a5.3,5.3,0,0,1-1.05.314C-535.325,247.712-534.456,247.679-534.118,247.573Zm-6.582-1.725a4.3,4.3,0,0,1-1.219.239C-541.892,245.823-541.189,246.009-540.7,245.848Zm-1.917,2.032.767-.15C-541.585,247.846-542.82,248.088-542.616,247.88Zm.608,1.51a2.936,2.936,0,0,1-1.525.3A4.816,4.816,0,0,1-542.009,249.39Zm-4.267-.738.765-.15C-545.246,248.616-546.479,248.858-546.276,248.651Zm-7.959,10.172-.455.09c.054.085.284.068.628-.014-.389.3-.918-.121-1.378.216a2.592,2.592,0,0,0-.943.021c.077-.191.853-.2.41-.351.426.043,1.163-.266,1.38-.216.417-.135-.248-.1.113-.239a2.6,2.6,0,0,1,.619-.067c-.339.123-.386.287-.712.411C-554.556,258.777-554.149,258.658-554.235,258.823ZM-540.4,272.3a37.92,37.92,0,0,0-12.292.066l-.3-1.643a39.574,39.574,0,0,1,12.834-.073Zm-7.491-4.768a6.317,6.317,0,0,0,1.328-.095c-.036.2.841.413,1.341.133.514.023-.363.291-.419.409a13.668,13.668,0,0,0-1.994.066C-547.323,267.666-547.825,267.874-547.891,267.535Zm7.491-5.41a37.906,37.906,0,0,0-12.292.066l-.3-1.643a39.6,39.6,0,0,1,12.834-.075Zm0-9.7a37.873,37.873,0,0,0-12.292.066l-.3-1.643a39.6,39.6,0,0,1,12.834-.074Zm.184-4.776a2.255,2.255,0,0,1-.6.172c.245-.159-.134-.081.113-.24.565-.151.368.136.8.061C-539.985,247.754-540.245,247.747-540.216,247.653Zm1.4-2.732.613-.1.028.158C-538.468,245-538.835,245.067-538.812,244.921Zm1.539,6.094c.056-.2.727-.277,1.045-.313C-536.222,250.856-536.847,250.922-537.273,251.015Zm-.163-3.674c.24-.2.821-.1,1.224-.2C-536.248,247.405-537.042,247.247-537.436,247.341Zm1.223-2.9c-.085-.1.08-.156.117-.236.568-.134.369.146.8.085-.023.047-.146.077-.136.13l-.307.051C-536.023,244.376-535.538,244.267-536.213,244.44Zm1.39,3.6c-.241.36-1.692.318,0,0Zm-.111,16.381c-.208-.148-.422-.391-.118-.24a2.8,2.8,0,0,0-.5-.458c.075-.059.383.144.615.26C-535.151,264.134-534.372,264.529-534.934,264.418Zm.284-2.643a2.668,2.668,0,0,0-.547-.395c.091-.066.875.332.074-.132.107-.132.839.437,1.2.59C-534.054,261.942-534.518,261.673-534.65,261.775Z" transform="translate(-89.157)" fill="#002695"/>
    <path id="Path_1060" data-name="Path 1060" d="M-355.971,242.787c.068-.053.166-.1.248-.154q-13.874-.211-27.67.83c0,.906.013,1.411.025,1.888.017.753.032,1.4,0,3.8l-.009.614c-.051,3.534-.073,5.148-.229,8.261-.176,3.543-.437,6.423-.871,9.631-.27,2-.515,3.678-1.214,7.082-.255,1.244-.539,2.357-.791,3.34-.159.623-.3,1.18-.41,1.662a19.886,19.886,0,0,1,9.227,2.092c.092-.41.214-.883.35-1.412.264-1.031.592-2.315.892-3.779.478-2.329.761-3.918.979-5.322q4.984-.192,10.179-.257.045,5.395.147,10.922a37.811,37.811,0,0,1,8.348,0q.111-5.544.153-10.93,4.948.047,10.072.213l0,.43c.014.863-.056,1.331-1.3,1.331-.787,0-4.007-.012-4.007-.012a55.132,55.132,0,0,1,.206,8.832c1.394.1,4.863,0,7.076,0,6.247,0,6.759-1.439,6.759-7.3,0-1.31.006-2.283.016-3.077a.342.342,0,0,0-.228,0c-.492-.287-.26-.439-.165-.615a.98.98,0,0,1,.4.261c.027-1.982.072-2.828.072-5.409l.053-5.793c-.074-.063-.145-.124-.208-.172a.363.363,0,0,1,.209.029l.15-16.311q-8.937-.683-17.839-.821A4.008,4.008,0,0,0-355.971,242.787ZM-377.7,257.113c-.215.156-.754.45.206.166-.727.361-.346.306-1.184.365A1.5,1.5,0,0,1-377.7,257.113Zm.363,2.493a7.143,7.143,0,0,1-2.09.547A6.951,6.951,0,0,1-377.334,259.606Zm-2.374-1.637c.039.15-.814.34-1.031.337C-380.707,258.167-380.01,258.077-379.707,257.969Zm-.022.5c-.068-.1-.662.156-.774.1.076-.155.831-.245,1.18-.371-.019.217-.5.4-.8.595C-380.457,258.846-379.886,258.549-379.729,258.471Zm1.436,14.16c-.022.09-.172.15-.386.336a9.2,9.2,0,0,1-1.084.152c.139-.316.809-.3,1.6-.583C-378.119,272.571-378.2,272.6-378.293,272.631Zm.5-12.354c.052-.147.532-.262.852-.389C-376.966,260.043-377.446,260.3-377.788,260.277Zm1.328-.4c-.043-.156.817-.442.745-.2Zm17.338-6.3a3.037,3.037,0,0,1-.9.235C-359.7,253.5-358.036,253.461-359.122,253.572Zm-2.783.343c.137.112-.283.181-.409.272.15.044.22-.072.612-.105-.082.251-.88.132-.859.39l-.3.078c-.091-.02-.179-.043-.19-.116C-362.353,254.278-362.855,254.14-361.9,253.915Zm-1.122,1.23c-.267,0-.945.268-.937.08C-363.509,255.1-362.987,254.938-363.027,255.146Zm-1.49-.216c.566-.2.564-.013.936-.08-.291.386-1.792.534-2.365.73C-365.94,255.219-363.968,255.245-364.516,254.93Zm1.108-1.282c-.029.221-1.073.564-1.607.586C-364.934,254-363.758,253.857-363.408,253.648Zm-7.124-2.762c.111.143-.279.249-.712.352C-371.355,251.094-370.965,250.988-370.532,250.885Zm-4.2.8a27.787,27.787,0,0,1,9.752-.051l-.157.82-.156.82a26.076,26.076,0,0,0-9.142.055l-.149-.821-.083-.459-.213.034c.011-.041.091-.077.2-.111Zm8.783,2.632c-.218.243-.967.332-1.484.444A6.817,6.817,0,0,1-365.952,254.314Zm-2.331,2.7c-.062.13-.18.255-.706.35A1.053,1.053,0,0,1-368.283,257.018Zm-5.669,2.09a2.307,2.307,0,0,1-.84.44C-374.895,259.372-374.291,259.25-373.952,259.107Zm8.656,3.134a26.062,26.062,0,0,0-9.142.055l-.149-.822-.148-.821a27.786,27.786,0,0,1,9.752-.051l-.157.819Zm.6,10.578c-.545.072.626-.431-.353-.128-.494.054.515-.189.733-.247-.222.168.031.062.053.206C-364.476,272.7-364.689,272.753-364.7,272.819Zm2.712-6.071-.455.089c.054.085.284.068.628-.014-.389.3-.918-.12-1.378.216a2.567,2.567,0,0,0-.943.021c.077-.191.853-.205.41-.352.426.043,1.163-.266,1.38-.216.417-.135-.248-.1.113-.239a2.54,2.54,0,0,1,.619-.067c-.34.123-.386.287-.712.411C-362.307,266.7-361.9,266.583-361.985,266.748Zm-.287-11.139c.175-.189.782-.165,1.057-.223C-361.389,255.576-362,255.552-362.273,255.609Zm1.233-.158c.043-.165.7-.283,1.006-.429-.009.066.057.083.175.065A4.346,4.346,0,0,1-361.039,255.451Zm1.4,5.848c-.009-.119.633-.189.89-.288A.984.984,0,0,1-359.635,261.3Zm5.083,4.633c.452-.556,2.968-.831,3.87-1.07C-351.725,265.44-353.163,265.284-354.553,265.932Zm7.444-4.512-.157.82a26.062,26.062,0,0,0-9.142.055l-.3-1.643a28.862,28.862,0,0,1,2.874-.362c.718-.154,1.33-.294,1.907-.469a8.688,8.688,0,0,1-1.125.415,25.927,25.927,0,0,1,6.1.366Zm-6.918-4.844.764-.15C-353,256.541-354.229,256.782-354.026,256.576Zm5.576-1.066c.565-.151.368.136.8.061-.083.108-.343.1-.314.006a2.238,2.238,0,0,1-.6.173C-348.318,255.59-348.7,255.669-348.451,255.51Zm-1.218-1.5c.026-.263.728-.077,1.219-.239A4.276,4.276,0,0,1-349.668,254.011Zm.068,1.644c.265.115-.971.357-.767.15Zm-.159,1.66a2.943,2.943,0,0,1-1.525.3A4.8,4.8,0,0,1-349.759,257.315Zm2.651-4.864-.157.82a26.076,26.076,0,0,0-9.142.055l-.082-.454c-.465.171-.908.107-1.449.336.091-.242.8-.258,1.437-.4l-.2-1.122a27.79,27.79,0,0,1,9.753-.051Zm.546.4.613-.1.028.157C-346.219,252.929-346.585,252.991-346.563,252.846Zm1.539,6.094c.055-.2.727-.276,1.045-.313C-343.973,258.781-344.6,258.847-345.024,258.939Zm.812-4.773c-.213-.258.613-.269,1.208-.336.039.165-.855.108-.588.327C-343.866,254.192-343.922,254.126-344.212,254.167Zm1.638,1.8c-.241.36-1.692.318,0,0Zm.062-1.858c-.461.043-.483-.332.123-.334C-342.548,253.967-342.686,253.884-342.512,254.1Zm.644,1.393a5.3,5.3,0,0,1-1.05.314C-343.076,255.637-342.206,255.6-341.868,255.5Zm-.816,16.846c-.208-.148-.422-.391-.118-.241a2.815,2.815,0,0,0-.5-.457c.075-.059.383.143.615.26C-342.9,272.059-342.123,272.455-342.684,272.343Zm.284-2.643a2.646,2.646,0,0,0-.547-.395c.091-.066.875.331.074-.132.107-.132.839.436,1.2.59C-341.8,269.866-342.268,269.6-342.4,269.7Zm.168,10.486c.135-.226.922-.143,1.377-.191A2.265,2.265,0,0,1-342.232,280.186Zm3.126-8.629-.073-.039a.567.567,0,0,0-.158,0c-.248-.18-.038-.1.158,0,.031,0,.052,0,.088.006C-339.1,271.534-339.091,271.549-339.106,271.557Zm1.317-20.435c.089.05-1.311.329-1.658.487.014-.066-.052-.086-.174-.075C-339.381,251.241-338.534,251.346-337.789,251.122Zm-4.025,9.66a7.2,7.2,0,0,0,1.747.984C-340.017,262.074-342.106,260.9-341.814,260.781Zm.585-9.03c.054.2-1,.146-.432.234-.095.137-.858.162-1.22.254.1-.17-.239-.1-.2-.238C-342.427,252.22-341.884,251.765-341.229,251.752Zm-2.618.377c.568-.134.369.146.8.084-.023.047-.146.077-.136.13l-.307.051c-.288-.092.2-.2-.479-.029C-344.048,252.265-343.884,252.208-343.846,252.129Zm.288.794c.25.03-.863.173-1.061.267.011-.1-.2-.093-.175-.2C-344.3,252.931-344.133,253.022-343.558,252.922Zm-.4,2.142c-.036.265-.83.107-1.224.2C-344.946,255.067-344.366,255.161-343.963,255.064Zm-2.658-6.1c.371-.13.77-.006.772-.127C-345.122,248.824-346.848,249.22-346.62,248.967Zm.078,2.113c-.009.257-.551.014-.925.092C-347.327,251.008-346.811,251.121-346.543,251.08Zm-4.666-2.3a1.123,1.123,0,0,1,.743-.225C-350.276,248.71-351.1,248.8-351.208,248.782Zm-.123-3.117a2.258,2.258,0,0,1,.6-.173C-350.7,245.757-353.142,245.972-351.331,245.665Z" transform="translate(-175.094 -0.573)" fill="#002695"/>
    <path id="Path_1061" data-name="Path 1061" d="M-454.95,289.8c0,.056-.043.17-.021.216a2.008,2.008,0,0,0,.37-.224Z" transform="translate(-144.899 -21.504)" fill="#002695"/>
    <path id="Path_1062" data-name="Path 1062" d="M-450.374,274.967q.019-.943.018-1.879,6.657.056,13.219.287a9.229,9.229,0,0,0,0-4.585c-1.115-.029-2.226-.042-3.34-.066a12.158,12.158,0,0,0,2.441-2.177,42.19,42.19,0,0,0-4.85-7.612c1.991.11,4,.237,6.046.4l.242-.049-.013-15.819c-14.061-1.709-29.341-1.581-45.648.007,0,.879.013,1.414.023,1.926.018.869.033,1.62,0,4.056l-.009.614c-.05,3.542-.073,5.159-.227,8.283-.176,3.564-.435,6.46-.865,9.682-.269,2.011-.513,3.7-1.207,7.122-.255,1.258-.538,2.378-.787,3.366-.156.618-.295,1.17-.4,1.648a24.2,24.2,0,0,1,8.608,1.854c.057-.254.941-3.137,1.733-6.275a36,36,0,0,0,.026,6.152c13.782-.617,27.2-.569,40.211-.03a23.459,23.459,0,0,0,0-6.467Q-442.721,275.043-450.374,274.967Zm5.991-12.738c-.153.17-.807.135-.637-.059l1.067-.173C-443.839,262.224-445.257,262.15-444.383,262.229Zm.143-1c-.395.152-1.225.049-2,.215A6.039,6.039,0,0,1-444.24,261.234Zm-2.12-6.836c.073-.27.552-.155,1.213-.3C-445.34,254.23-446.085,254.274-446.36,254.4Zm5.823,2.73a16.028,16.028,0,0,0-1.72.062c.221-.115,1.183-.14,1.838-.3C-440.336,256.992-440.5,257.048-440.537,257.127Zm2.318-10.1a8.068,8.068,0,0,1-1.464.487A2.743,2.743,0,0,1-438.219,247.025Zm-2.25,9.242a8.338,8.338,0,0,0,1.211-.3c.278.162-1.812.732-1.732.732-.1.2-.417.06-.614.126C-441.344,256.633-440.481,256.468-440.469,256.267Zm-.476-9.258c0,.119-.648.127-.915.2C-441.879,247.065-441.154,246.968-440.944,247.008Zm-.945,6.72c-.2.192-.336.1-.905.254C-442.842,253.826-442.02,253.707-441.89,253.729Zm-.343-.16c-.386.239-.456-.076-.923.149-.14-.021-.116-.129-.334-.108C-443.02,253.344-442.591,253.585-442.233,253.569Zm-1.673,4.1c-.462.114-.466-.018-.928.1a10.86,10.86,0,0,0,1.037-.383C-443.728,257.5-443.788,257.589-443.906,257.672Zm-19-11.558c-.058.183-.762.2-.643.425.761,0,.264-.328,1.1-.306-.079.188.413.135.243.362a27.066,27.066,0,0,1-4.214.224c.406-.173.012-.191-.024-.378A24.03,24.03,0,0,0-462.9,246.114Zm18.238,4.2-.245,1.652c-2.579-.383-5.118-.634-7.619-.783l-5.806.032c-.06.247-.142.371-.263.311.011-.113.025-.214.04-.309l-4.1.023a66.817,66.817,0,0,0-6.946.861l-.3-1.643A77.832,77.832,0,0,1-444.664,250.313Zm-2.186,11.235a5.361,5.361,0,0,1-1.84.243A14.208,14.208,0,0,1-446.85,261.548Zm-1.952-4.154c-.079-.907.334-1.2.3-2.188C-448.128,255.372-448.422,257.356-448.8,257.394Zm-25.181,1.81c.568-.367.794-.8,1.174-1.031a13.832,13.832,0,0,1-1.168,1.351C-473.938,259.4-473.9,259.271-473.983,259.2Zm1.066-3.035a14.35,14.35,0,0,0-1.281,1.239C-474.545,257.409-472.909,255.826-472.917,256.169Zm-.16,1.419c-.347.481-.308.779-.853,1.353-.269-.311-.8.809-1.306.9A14.971,14.971,0,0,1-473.076,257.588Zm-1.045,2.61c-.009.322-1.246.365-1.764.353A4.152,4.152,0,0,1-474.121,260.2Zm-7.765,3.018c-.375-.294-1.058-1.02-.006-.438C-482.158,262.874-481.716,263.1-481.886,263.217Zm.958-13.657c-.815.144-.293-.114-.953-.033a2.552,2.552,0,0,1,.822-.269,9.789,9.789,0,0,1,1.157-.137C-479.872,249.33-481.157,249.319-480.928,249.56Zm4.082,20.934c-.659-.253-.127-.642-.659-.632-.6-.425.29-.009.307-.089-.293-.429-1.611-.672-1.434-1.069l2.357,1.243C-476.475,270.219-476.877,270.018-476.846,270.494Zm1-6.234c.957-.455-2.534-.439-2.139-.972a15.385,15.385,0,0,0,3.474.689C-474.984,264.049-475.049,264.5-475.849,264.26Zm15.672,13.234c.243.1-.114,1.406.09,1.585C-460.371,279.687-460.376,278.381-460.178,277.494Zm.842-8.911q-4.377.028-8.742.112c-.155.255-.765.323-.736.652-.6.427-.037-.4.041-.585.032-.025.055-.04.077-.054-1.307.026-2.615.046-3.92.081a10.855,10.855,0,0,0,0,4.585q6.61-.222,13.127-.282,0,.932.035,1.88-7.883.086-15.86.456a48.351,48.351,0,0,0,1.081-5.351,59.931,59.931,0,0,0,.633-10.724c1.914-.172,3.842-.3,5.776-.421-.78,1.112-1.539,2.3-2.283,3.543l-1.024.1-.058.06.011-.055c-.5.048-1.006.094-1.514.144a21.521,21.521,0,0,0,.125,4.419q6.565-.553,13.448-.8Q-459.254,267.444-459.336,268.583Zm-11.895-5.366c.227-.2.263,0,.369.056-.223.221-.446.442-.409.53-.341.383-.328.023-.625.317C-472.114,264.042-471.011,263.294-471.23,263.217Zm.455,1.707c.332-.313.345.049.676-.262.017.126-.188.364-.148.479-.341.275-.554.279-.73.208C-470.863,265.183-470.748,265.018-470.776,264.924Zm10.477-.841c.083.048.141-.032.181-.2.193-.269-.358,1.487-.494,1.952C-460.793,265.25-460.291,265.016-460.3,264.084Zm-.016-1.572.376.052C-459.985,263.459-460.507,263.387-460.314,262.512Zm2.958,8.411c-.092-.082.012-.559.044-.887a1.9,1.9,0,0,0-.269.855c-.062-.2-.162-.319-.345-.274a9.428,9.428,0,0,0,.1-1.329c.423-.531.335.4.645.321C-457.31,270.291-457.131,270.488-457.356,270.923ZM-461,261.779a17.428,17.428,0,0,1,1.865-3.178q3.19-.053,6.45-.006c.778.927,1.557,1.888,2.324,2.872C-453.731,261.447-457.293,261.562-461,261.779Zm9.186,7.654a6.58,6.58,0,0,1,.21,1.82C-452,271.294-451.9,270.338-451.817,269.433Zm1.158-3.306q1.841-.024,3.7-.029c.595.858,1.155,1.7,1.688,2.532-1.741-.025-3.479-.033-5.217-.045Q-450.553,267.349-450.659,266.127Z" transform="translate(-131.258 -0.41)" fill="#002695"/>
  </g>
</svg>
