<?xml version="1.0" encoding="utf-8"?>
<!-- Generator: Adobe Illustrator 24.3.0, SVG Export Plug-In . SVG Version: 6.00 Build 0)  -->
<svg version="1.1" id="圖層_1" xmlns="http://www.w3.org/2000/svg" xmlns:xlink="http://www.w3.org/1999/xlink" x="0px" y="0px"
	 viewBox="0 0 380.1 40.8" style="enable-background:new 0 0 380.1 40.8;" xml:space="preserve">
<style type="text/css">
	.st0{fill:#FFFFFF;}
</style>
<g id="Group_461" transform="translate(781.696 -241.305)">
	<path id="Path_1050" class="st0" d="M-678.6,263.2L-678.6,263.2c-1.3-0.4-2.7-0.9-4.4-1.5c-0.4,2.6-0.8,4.5-0.9,4.9
		c-0.2,0.7-1,0.8-2,0.9c-0.9,0.1-1.7,0.1-2.6,0c-0.4-0.1-0.7-0.4-0.9-0.8c-0.1-0.7-0.2-1.5-0.2-2.2c0,0-0.1,0-0.1,0.1
		c-0.2,0-0.1-0.1,0.1-0.2c0,0,0-0.1,0-0.1c-0.2,0.1-0.3,0.1-0.5,0.1c0-0.1,0.2-0.1,0.5-0.2c0-0.1,0-0.1,0-0.2
		c-0.2,0.1-0.5,0.1-0.7,0.1c0-0.1,0.4-0.2,0.7-0.2c-0.1-1.2-0.2-2.8-0.2-4.5c4.3-0.7,8.1-1.5,14.2-2c-0.8-3.2-1.5-6.5-2.2-9.6
		c-4.8,1.1-8.1,1.6-12,2.4c0.1-2.5,0.4-5,1-7.4c-3.6-0.1-6.4-0.2-9.8,0c-1,8.9-0.1,29.9-0.1,29.1c0,1.7,0.1,3.5,0.4,5.2
		c0.4,2.1,1.6,3.4,2.6,3.5c0.6,0,1.3,0,1.9-0.1c4.1-0.3,8.3-0.4,12.5-0.1c0.7,0.1,1.4,0.1,2.1,0.1c4.2-0.7,4.1-14.9,4.2-16.5
		C-676.3,263.8-677.4,263.5-678.6,263.2L-678.6,263.2z M-680.2,256.7c0.1,0.1-0.3,0.2-0.7,0.4C-681,256.9-680.6,256.8-680.2,256.7
		L-680.2,256.7z M-683.5,257.5c0,0.2-0.7,0.3-1,0.3C-684.5,257.7-683.8,257.7-683.5,257.5L-683.5,257.5z M-693.2,259.2
		c-0.5,0.3-1.1,0.5-1.8,0.6C-694.9,259.5-694,259.4-693.2,259.2L-693.2,259.2z M-695.3,265c0.2-0.2,0.8-0.2,1.3-0.4
		c0.1,0.3-0.6,0.2-1,0.5C-695.1,265.1-695.1,264.9-695.3,265L-695.3,265z M-694.8,275.4c0.1-0.2,0.4-0.2,0.9-0.3
		c-0.7,0,1.2-0.6,1.7-0.6l0.1,0.3C-693.1,274.8-693.6,275.2-694.8,275.4L-694.8,275.4z M-693.6,280c0.1-0.3,1-0.5,1.6-0.6
		C-692.5,279.6-693.1,279.8-693.6,280L-693.6,280z M-688,278.4c0,0.1-0.2,0.1-0.4,0.3c-0.4,0.1-0.7,0.1-1.1,0.2
		c0.1-0.3,0.8-0.3,1.6-0.6C-687.8,278.4-687.9,278.4-688,278.4L-688,278.4z"/>
	<path id="Path_1051" class="st0" d="M-704.2,265.8c0.4-0.3,0.9-0.5,1.4-0.5c-0.1-7.9-0.4-16.4-0.7-22.5c-3.6-0.2-6.3-0.2-10.5-0.3
		c0.6,2.9,1,5.9,1.3,8.8c-5.1-0.6-9.7-0.6-13.7-0.7c0.1,3.8,0.1,6,0.2,9.9c5.3-0.1,9.4,0,14,0.3c0,2.1,0,4.2,0,6.5
		c-4.8,0.6-9.7,0.8-14.5,0.5c0.3,0.8,0.5,1.5,0.8,2.2c0,0,0.1-0.1,0.1-0.2c0.1-0.1,0,0.1,0,0.4c0.8,2.1,1.5,4,2.3,6.2
		c0.1-0.5,0-0.7,0.1-1.2c0.4-0.5,0.3,0.4,0.6,0.3c-0.1,0.7,0,0.9-0.2,1.3c-0.1-0.1,0-0.6,0-0.9c-0.2,0.3-0.2,0.6-0.3,0.9
		c0-0.2-0.1-0.3-0.2-0.3c0.5,1.3,0.9,2.7,1.5,4.3c6.3-0.7,12.7-0.8,19-0.3c0.1-1.4,0.3-7,0.3-7.6c0-2.4,0-5,0-7.6
		C-703.3,265.6-703.8,265.7-704.2,265.8z M-724.4,257.5c0.1-0.6,0.2-0.9,0.3-0.8C-724.1,257.2-724.2,257.6-724.4,257.5L-724.4,257.5
		z M-726.1,268.5l0.4,0.1C-725.8,269.4-726.3,269.3-726.1,268.5L-726.1,268.5z M-717.6,275.4c0.2,0.6,0.2,1.2,0.2,1.8
		C-717.8,277.3-717.7,276.3-717.6,275.4L-717.6,275.4z M-714.5,267.8c0.6-0.1,1.2-0.2,1.8-0.2C-713.3,267.7-713.9,267.8-714.5,267.8
		L-714.5,267.8z M-704,253c-0.5,0.2-1,0.4-1.5,0.5C-705.1,253.2-704.6,253-704,253L-704,253z M-706.3,262.2c0.4-0.1,0.8-0.2,1.2-0.3
		c0.3,0.2-1.8,0.7-1.7,0.7c-0.1,0.2-0.4,0.1-0.6,0.1C-707.2,262.6-706.3,262.4-706.3,262.2L-706.3,262.2z M-706.8,253
		c0,0.1-0.6,0.1-0.9,0.2C-707.7,253-707,252.9-706.8,253L-706.8,253z M-708.3,243.8c0,0.1-0.5,0.2-0.9,0.3
		C-709.4,244-708.6,243.9-708.3,243.8L-708.3,243.8z M-711,260.1c-0.2,0.1-0.9,0.2-1.2,0.3C-712.1,260.1-711.6,260.2-711,260.1
		L-711,260.1z M-712.1,267.4c0.6-0.2,1.3-0.3,2-0.2C-710.5,267.3-711.3,267.2-712.1,267.4L-712.1,267.4z M-710.2,268.2
		c-0.2,0.2-0.8,0.1-0.6-0.1l1.1-0.2C-709.7,268.2-711.1,268.1-710.2,268.2L-710.2,268.2z M-709.7,263.6c-0.5,0.1-0.5,0-0.9,0.1
		c0.4-0.1,0.7-0.3,1-0.4C-709.6,263.5-709.6,263.5-709.7,263.6L-709.7,263.6z M-709,259.7c-0.1,0-0.1-0.1-0.3-0.1
		c0.5-0.3,0.9,0,1.3,0C-708.4,259.8-708.5,259.5-709,259.7L-709,259.7z M-707.7,259.7c-0.2,0.2-0.3,0.1-0.9,0.3
		C-708.7,259.8-707.8,259.7-707.7,259.7L-707.7,259.7z M-706.4,263.1c-0.6,0-1.1,0-1.7,0.1c0.2-0.1,1.2-0.1,1.8-0.3
		C-706.2,263-706.3,263-706.4,263.1L-706.4,263.1z M-704.2,267.7c-0.3,0.3-0.7,0.4-1.2,0.5C-705,267.9-704.6,267.8-704.2,267.7
		L-704.2,267.7z M-704.8,268.3c0-0.1,0.6-0.2,0.9-0.3C-703.9,268.2-704.6,268.4-704.8,268.3L-704.8,268.3z"/>
	<path id="Path_1052" class="st0" d="M-778.4,262.2c-0.1,0.9-0.2,1.8-0.3,2.7c0.1,0,0.2,0,0.3,0c0.4-0.1-0.2-0.1,0.1-0.2
		c0.2,0,0.4-0.1,0.6-0.1c-0.3,0.1-0.4,0.3-0.7,0.4c0,0.1,0.4,0,0.3,0.1l-0.5,0.1c0.1,0.1,0.3,0.1,0.6,0c-0.3,0.2-0.6,0.1-0.9,0.1
		c-0.3,5.3-0.2,10.6,0.3,15.9c3,0.4,5.9,0.4,8.9,0v-1.5c9.5-0.4,18.8-0.4,27.8,0v1.5c3,0.4,5.9,0.4,8.9,0c0.7-6.3,0.7-12.7,0-19
		C-747.9,260.6-763.2,260.6-778.4,262.2z M-736.7,267.7c0.3-0.1-0.5,0.8,0.1,0.4c0.1,0,0,0.1-0.1,0.2l-0.3,0.3
		c0-0.2,0.1-0.3,0.2-0.4c-0.1,0-0.2,0.1-0.3,0C-737,268-736.8,267.9-736.7,267.7L-736.7,267.7z M-738.7,262.1
		c-0.5,0.4-0.9,0.8-1.3,1.2C-740.4,263.4-738.7,261.8-738.7,262.1L-738.7,262.1z M-749.5,265.6c0.8,0.3,0.3,0.4,0.9,0.7
		C-748.9,266.4-749.9,265.7-749.5,265.6L-749.5,265.6z M-750.7,266.8l1.2,0.7c-0.7,0.3,0.6,0.5,1,0.9c-0.6,0.1-1.6-0.9-2.4-1.1
		C-750.5,267.2-750.4,267.3-750.7,266.8L-750.7,266.8z M-752.5,264.6l0.8,0.4c0,0.2-0.4,0.1-0.9-0.2L-752.5,264.6z M-758.8,267.6
		c0.1-0.1,0.8,0.4,1.2,0.6c-0.1,0.1-0.6-0.2-0.7-0.1c-0.2-0.2-0.3-0.3-0.5-0.4C-758.8,267.7-758,268.1-758.8,267.6L-758.8,267.6z
		 M-769.4,274.4c-0.7,0-1.3,0-2,0.1c0.3-0.4-0.2-0.2-0.3-0.5c0.4,0,0.9,0,1.3-0.1c0,0.2,0.8,0.4,1.3,0.1
		C-768.4,274-769.3,274.2-769.4,274.4L-769.4,274.4z M-751.5,274.4c0-0.1,0.1,0,0.2,0c-0.5-0.3-0.8-1-1.2-1
		c-0.5-0.2,0.3-0.2-0.5-0.5c0.4,0.1,0.9,0.3,1.2,0.5c0.2,0.4,0.2,0.5,1.2,1C-750.8,274.4-750.8,274.7-751.5,274.4L-751.5,274.4z
		 M-742.7,276.5c-0.7-0.3-0.1-0.6-0.7-0.6c-0.6-0.4,0.3,0,0.3-0.1c-0.3-0.4-1.6-0.7-1.4-1.1l2.4,1.2
		C-742.3,276.2-742.7,276-742.7,276.5L-742.7,276.5z M-740.2,271.2c-6.1-0.9-12.3-1.2-18.4-0.8c-0.1,0.2,0.6,0.5,0,0.4
		c-0.2-0.1-0.4-0.4-0.1-0.2c0-0.1-0.1-0.1-0.2-0.2c-3.4,0.2-6.9,0.6-10.8,1.2l-0.3-1.6c7.2-1.3,14.5-1.7,21.8-1.3
		c-0.2-0.2-0.2-0.3,0.5,0c0,0,0,0,0,0c2.5,0.2,5,0.4,7.7,0.8L-740.2,271.2z M-741.7,266.5c0.6-0.2,1.2-0.4,1.8-0.4
		C-740,266.5-741.2,266.5-741.7,266.5L-741.7,266.5z M-741.1,265.8c0.6-0.8,1.4-1.6,2.2-2.3c-0.3,0.5-0.3,0.8-0.9,1.4
		C-740,264.6-740.6,265.7-741.1,265.8L-741.1,265.8z M-739.8,265.5c0-0.1,0.1-0.3,0-0.3c0.6-0.4,0.8-0.8,1.2-1
		C-739,264.6-739.4,265.1-739.8,265.5L-739.8,265.5z M-737.1,269.8c-0.3,0.4-0.3,0-0.6,0.3c-0.2-0.1,0.9-0.8,0.7-0.9
		c0.2-0.2,0.3,0,0.4,0.1C-736.9,269.5-737.1,269.7-737.1,269.8L-737.1,269.8z M-736.1,271.1c-0.3,0.3-0.6,0.3-0.7,0.2
		c0.1-0.2,0.2-0.3,0.2-0.4c0.3-0.3,0.3,0,0.7-0.3C-735.9,270.8-736.1,271-736.1,271.1L-736.1,271.1z M-734.6,275.3
		c-0.6,0.4,0-0.4,0-0.6c0.3-0.2,0.1,0.1,0.2,0.2c0.2-0.1,0.4-0.2,0.6-0.4C-733.8,274.9-734.7,274.9-734.6,275.3L-734.6,275.3z"/>
	<path id="Path_1053" class="st0" d="M-732.2,252.8c0.4-0.2,0-0.2,0-0.4c0.6,0,1,0,1.4-0.1c-2.8-2.9-5.3-5.2-8.7-6.6
		c-1.4,0.9-2.6,2.1-3.6,3.5c0.7,0.6,1.4,1.3,2,1.9c-5.6-0.2-11.4-0.4-17.5-0.5c-0.1,0-0.2,0-0.3,0.1c0,0,0,0,0-0.1l-0.5,0
		c0.1,0,0.2,0.1,0.3,0c0,0-0.1,0.1-0.1,0.1l-0.3,0.1c-0.3-0.1,0.2-0.2-0.5,0c-0.1-0.1,0-0.1,0.1-0.2c-0.9,0-1.9,0-2.8,0
		c3.1-2.1,6.4-4,9.7-5.7c-3.3-1.8-7-2.9-10.8-3c-1.1,0.7-2.2,1.4-3.2,2.1c0.1,0,0.1,0,0.2,0c0,0.1-0.2,0.1-0.4,0.2
		c-2.5,1.9-4.8,4-6.8,6.4c-2.6,0-5.2,0-7.8,0c0,3.5,0.6,7,2,10.3c15.5-1.5,28.8-1.9,43.8-2.7c0.5,0.8,1,1.5,1.6,2.3
		c1.8-2.1,3.2-4.6,4.1-7.2c-0.1-0.2-0.3-0.3-0.4-0.5C-731,252.8-731.6,252.8-732.2,252.8z M-762.6,247.4c0.4-0.1,0.8,0,0.8-0.1
		C-761.1,247.3-762.8,247.7-762.6,247.4L-762.6,247.4z M-764.4,252.2c-0.4,0.1-0.8,0.2-1.2,0.2
		C-765.6,252.2-764.9,252.4-764.4,252.2z M-770,255l0.8-0.1C-769,255-770.2,255.2-770,255L-770,255z M-767.3,256.1
		c0.5-0.2,1-0.3,1.5-0.3C-766.2,256-766.7,256.1-767.3,256.1L-767.3,256.1z M-766.3,254.2l0.8-0.1
		C-765.3,254.2-766.5,254.5-766.3,254.2L-766.3,254.2z M-763.9,254c-0.2,0.1-0.4,0.1-0.6,0.2c0.2-0.2-0.1-0.1,0.1-0.2
		c0.6-0.2,0.4,0.1,0.8,0.1C-763.7,254.1-764,254.1-763.9,254L-763.9,254z M-762.5,251.3l0.6-0.1l0,0.2
		C-762.2,251.4-762.6,251.4-762.5,251.3L-762.5,251.3z M-761,257.4c0.1-0.2,0.7-0.3,1-0.3C-759.9,257.2-760.6,257.3-761,257.4
		L-761,257.4z M-761.2,253.7c0.2-0.2,0.8-0.1,1.2-0.2C-760,253.8-760.8,253.6-761.2,253.7L-761.2,253.7z M-758.5,254.4
		C-758.8,254.8-760.2,254.7-758.5,254.4z M-758.9,254.3c-0.2-0.2,0.7-0.2,1-0.3C-758.2,254.1-758.5,254.2-758.9,254.3L-758.9,254.3z
		 M-746.8,255.5c-0.8,0.1-0.3-0.1-1,0c0.3-0.1,0.5-0.2,0.8-0.3c0.4-0.1,0.8-0.1,1.2-0.1C-745.7,255.3-747,255.3-746.8,255.5
		L-746.8,255.5z"/>
	<path id="Path_1054" class="st0" d="M-417.8,255.8v-2.2c-2.8-0.4-5.6-0.4-8.3,0v6.2c0.4-0.1,0.8-0.1,1.3-0.3
		c-0.4,0.2-0.8,0.3-1.3,0.4v3.4c-4.1,0.1-8.3,0.4-12.4,0.9v17.6c3,0.4,5.9,0.4,8.9,0v-1.5h17.1v1.5c3,0.4,5.9,0.4,8.9,0v-17.6
		c-4.7-0.6-9.4-0.9-14.1-1v-1.8c4.9-0.2,9.8-0.1,14.7,0.2v-5.5C-408,255.6-412.9,255.5-417.8,255.8z M-433.5,279.6
		c-0.5,0.1,0.6-0.4-0.4-0.1c-0.5,0.1,0.5-0.2,0.7-0.2c-0.2,0.2,0,0.1,0.1,0.2C-433.3,279.5-433.5,279.5-433.5,279.6L-433.5,279.6z
		 M-419.2,255.3c0.2,0.2-0.6,0.2-0.7,0.2C-419.8,255.4-419.5,255.3-419.2,255.3z M-424.8,267.5c1.8-0.4,3-0.6,4.1-0.9
		C-422,267.1-423.4,267.5-424.8,267.5C-425.4,267.8-425.5,267.7-424.8,267.5L-424.8,267.5z M-428.4,268.1c0-0.1,0.6-0.2,0.9-0.3
		C-427.8,268-428.1,268.1-428.4,268.1L-428.4,268.1z M-415,271.2l-0.1,0.8l-0.1,0.8c-2.4-0.4-4.8-0.5-7.2-0.4
		c-0.3,0.1-0.6,0.2-0.9,0.3c0.1-0.1,0.3-0.2,0.5-0.3c-1.6,0.1-3.1,0.2-4.7,0.5l-0.1-0.8l-0.1-0.8
		C-423.6,270.5-419.2,270.5-415,271.2L-415,271.2z M-416.2,258c0.1-0.2,0.7-0.1,0.9-0.1C-415.3,258.1-415.9,257.9-416.2,258
		L-416.2,258z M-413.6,259.8c0.5-0.1,0.7,0,1.2-0.1c0.2,0-0.9,0.2-1.1,0.3C-413.4,259.9-413.6,259.9-413.6,259.8L-413.6,259.8z
		 M-411.2,260.6c-0.2,0.2-0.3,0.1-0.1,0.3C-411.8,260.9-411.8,260.5-411.2,260.6L-411.2,260.6z M-412.4,260.9c-0.3,0-0.3,0-0.6,0
		c-0.2-0.3,0.6-0.3,1.2-0.3C-411.7,260.8-412.6,260.7-412.4,260.9L-412.4,260.9z"/>
	<path id="Path_1055" class="st0" d="M-418.7,243.7v-2c-3-0.3-5.9-0.3-8.9,0v2c-7,0.1-14,0.4-21.1,1c0,1,0,1.3,0,1.6
		c0,0.3,0,0.5,0,2.8l0,0.6c-0.1,3.5-0.1,5.1-0.2,8.2c-0.1,2.6-0.3,4.9-0.6,7.1c0.3-0.1,0.6-0.2,1-0.3c0,0.1-0.7,0.3-1,0.3
		c-0.1,0.8-0.2,1.6-0.3,2.4c-0.3,2-0.5,3.7-1.2,7.1c-0.3,1.2-0.5,2.4-0.8,3.3c-0.2,0.6-0.3,1.2-0.4,1.7c3.2,0,6.4,0.7,9.2,2.1
		c0.1-0.4,0.2-0.9,0.3-1.4c0.3-1,0.6-2.4,1-3.9c0.7-2.4,1.3-4.9,1.6-7.4c0.6-3.4,0.9-6.9,0.9-10.4c0.1-2.1,0-4.2-0.3-6.2h37.7v-7.8
		C-407.3,244.1-413,243.8-418.7,243.7z M-446.2,245.2c-0.1,0.2,0.5-0.1,0.4,0.1c-0.5,0-0.9,0.2-1.3,0.4c0-0.1-0.4-0.1-0.7-0.2
		C-447.3,245.5-446.8,245.4-446.2,245.2L-446.2,245.2z M-446.3,264.1c-0.7,0.4-0.3,0.3-1.2,0.4c0.2-0.3,0.6-0.5,1-0.5
		C-446.7,264-447.2,264.3-446.3,264.1L-446.3,264.1z M-446.1,266.4c-0.7,0.3-1.4,0.5-2.1,0.5C-447.5,266.6-446.8,266.5-446.1,266.4
		L-446.1,266.4z M-448.5,265.2c-0.1-0.1-0.7,0.2-0.8,0.1c0.1-0.2,0.8-0.2,1.2-0.4c0,0.2-0.5,0.4-0.8,0.6
		C-449.2,265.6-448.7,265.3-448.5,265.2L-448.5,265.2z M-447.1,279.4c0,0.1-0.2,0.1-0.4,0.3c-0.4,0.1-0.7,0.1-1.1,0.2
		c0.1-0.3,0.8-0.3,1.6-0.6C-446.9,279.3-447,279.4-447.1,279.4L-447.1,279.4z M-446.6,267.1c0.1-0.1,0.5-0.3,0.9-0.4
		C-445.7,266.8-446.2,267.1-446.6,267.1L-446.6,267.1z M-445.3,266.7c0-0.2,0.8-0.4,0.7-0.2L-445.3,266.7z M-443.6,266.3
		c-0.1-0.2,0.5-0.3,0.8-0.4C-443,266.1-443.3,266.2-443.6,266.3L-443.6,266.3z M-443.7,258.9c0-0.1,0.7-0.2,1-0.3
		C-442.7,258.7-443.3,258.8-443.7,258.9L-443.7,258.9z M-440,258c-0.1-0.1,0.3-0.2,0.7-0.4C-439.2,257.8-439.6,257.9-440,258
		L-440,258z M-437.4,244.8c0.1-0.2,1.7-0.8,1.8-0.5C-436.2,244.2-436.4,244.6-437.4,244.8L-437.4,244.8z M-421.9,249.1
		c-0.5,0.2-0.2-0.2-0.7-0.1c-0.8,0.4-1.3,0.2-2.3,0.5c0.1-0.1,0.4-0.2,0.4-0.3c0.2,0.1,1-0.3,1.2-0.1l0.9-0.4
		c0.3-0.1-0.2,0.2,0.3,0.1c0.2-0.1-0.1-0.1,0-0.2c0.3,0,0.6,0,0.8,0.1C-422,248.9-421.9,249-421.9,249.1L-421.9,249.1z"/>
	<path id="Path_1056" class="st0" d="M-507.2,261.4v8.1c0.1,0.1,0.2,0.1,0.4,0.2c-0.3,0.1,0.2,0.3,0,0.4c-0.1-0.1-0.3-0.2-0.4-0.3
		v11.6c2.8,0.4,5.6,0.4,8.3,0v-1.5h6.9v1.5c3,0.4,5.9,0.4,8.9,0v-20C-491.1,260.9-499.2,260.9-507.2,261.4z M-485.3,269.5l0.4,0.1
		C-484.9,270.4-485.5,270.3-485.3,269.5z M-485.2,271c0.1,0,0.1,0,0.2-0.2c0.2-0.3-0.4,1.5-0.5,2C-485.7,272.2-485.2,272-485.2,271
		L-485.2,271z M-498.9,266.1c0.6-0.4,0.8-0.8,1.2-1c-0.4,0.5-0.8,0.9-1.2,1.4C-498.9,266.3-498.9,266.2-498.9,266.1z M-497.9,263.1
		c-0.5,0.4-0.9,0.8-1.3,1.2C-499.5,264.4-497.9,262.8-497.9,263.1L-497.9,263.1z M-498,264.5c-0.3,0.5-0.3,0.8-0.9,1.4
		c-0.3-0.3-0.8,0.8-1.3,0.9C-499.5,266-498.8,265.2-498,264.5L-498,264.5z M-499.1,267.1c0,0.3-1.2,0.4-1.8,0.4
		C-500.3,267.2-499.7,267.1-499.1,267.1z M-501.8,277.4c-0.7-0.3-0.1-0.6-0.7-0.6c-0.6-0.4,0.3,0,0.3-0.1c-0.3-0.4-1.6-0.7-1.4-1.1
		l2.4,1.2C-501.4,277.2-501.8,277-501.8,277.4L-501.8,277.4z M-495.2,272.1c-0.3,0.3-0.6,0.3-0.7,0.2c0.1-0.2,0.2-0.3,0.2-0.4
		c0.3-0.3,0.3,0,0.7-0.3C-495,271.7-495.2,272-495.2,272.1L-495.2,272.1z M-493.8,276.3c-0.6,0.4,0-0.4,0-0.6
		c0.3-0.2,0.1,0.1,0.2,0.2c0.2-0.1,0.4-0.2,0.6-0.4C-493,275.9-493.8,275.9-493.8,276.3L-493.8,276.3z M-490.9,270.6l-0.2,0.8
		c-1.9-0.3-3.9-0.5-5.8-0.3l0,0c0,0,0,0,0,0c-1.1,0.1-2.2,0.2-3.3,0.4l0-0.2c-0.2,0-0.4,0-0.6,0c1-0.5-2.5-0.4-2.1-1
		c0.9,0.3,1.8,0.5,2.7,0.6l0-0.2l-0.1-0.8c1.5-0.3,2.9-0.4,4.4-0.4c0-0.1,0.1-0.1,0.1-0.2c-0.1,0-0.2,0.1-0.3,0
		c0.2-0.2,0.3-0.3,0.5-0.5c0.3-0.1-0.5,0.8,0.1,0.4c0.1,0,0,0.1-0.1,0.2l-0.1,0.1c1.7,0,3.5,0.1,5.2,0.4L-490.9,270.6z"/>
	<path id="Path_1057" class="st0" d="M-480.2,261.4v20c2.8,0.4,5.6,0.4,8.3,0v-1.5h7v1.5c3,0.4,5.9,0.4,8.9,0v-14.4
		c-0.3,0-0.7,0-1,0.2c0.3-0.2,0.7-0.3,1-0.3v-5.5C-464,261-472.1,261-480.2,261.4z M-476.8,276.4c0.2,0.6,0.2,1.2,0.2,1.8
		C-476.9,278.2-476.8,277.3-476.8,276.4z M-468.7,264.3c0.1,0.1,0,0.2-0.1,0.3c-0.5,0.1-0.5,0-0.9,0.1
		C-469.4,264.6-469.1,264.5-468.7,264.3L-468.7,264.3z M-469.3,269.2c-0.2,0.2-0.8,0.1-0.6-0.1l1.1-0.2
		C-468.8,269.2-470.2,269.1-469.3,269.2z M-469.2,268.2c-0.4,0.2-1.2,0-2,0.2C-470.5,268.2-469.9,268.1-469.2,268.2z M-473.7,264.3
		c-0.1-0.9,0.3-1.2,0.3-2.2C-473.1,262.3-473.4,264.3-473.7,264.3L-473.7,264.3z M-471.8,268.5c-0.6,0.2-1.2,0.3-1.8,0.2
		C-473,268.6-472.4,268.5-471.8,268.5L-471.8,268.5z M-464,270.6l-0.2,0.8c-3-0.5-6.1-0.5-9.1,0.1l-0.3-1.6c3.2-0.6,6.5-0.6,9.8-0.1
		L-464,270.6z M-463.9,269.3c0-0.1,0.6-0.2,0.9-0.3C-463,269.1-463.7,269.3-463.9,269.3L-463.9,269.3z M-464.5,269.1
		c0.4-0.2,0.7-0.4,1.2-0.5C-463.6,269-464,269.1-464.5,269.1L-464.5,269.1z M-460.6,271.2c-0.2-0.1,0.6-0.2,0.9-0.4
		C-459.7,271-460.2,271.1-460.6,271.2L-460.6,271.2z M-460.3,266.1c0.2-0.2,0.7-0.2,1.2-0.5C-459.2,265.9-459.8,265.9-460.3,266.1
		L-460.3,266.1z M-459.4,270.8c0.9-0.4,1.8-0.7,2.8-0.9C-457.5,270.4-458.5,270.7-459.4,270.8L-459.4,270.8z M-457.6,268.5
		c0,0.1-0.3,0.3-0.5,0.3C-458.2,268.7-457.8,268.6-457.6,268.5L-457.6,268.5z M-457.9,267.5c0.3,0,0.6-0.1,0.9-0.2
		c-0.1,0.2-0.1,0.1,0.1,0.3c-1,0.3-0.6,0.1-1.5,0.3c0-0.1,0.3-0.1,0.4-0.2C-457.8,267.6-457.9,267.5-457.9,267.5L-457.9,267.5z
		 M-458,261.9c-0.5,0.3-1.1,0.3-1.8,0.6C-459.2,262.1-458.6,261.9-458,261.9L-458,261.9z M-459.6,262.7c-0.7,0.4-1.4,0.6-2.2,0.8
		C-461.1,263.1-460.3,262.8-459.6,262.7L-459.6,262.7z M-461.3,266.2c-0.5,0.4-1.3,0.3-2.1,0.7
		C-462.9,266.4-461.9,266.3-461.3,266.2L-461.3,266.2z M-465.4,263.2c0.4-0.1,0.8-0.2,1.2-0.3c0.3,0.2-1.8,0.7-1.7,0.7
		c-0.1,0.2-0.4,0.1-0.6,0.1C-466.3,263.6-465.4,263.4-465.4,263.2L-465.4,263.2z M-465.4,263.8c0.1,0.1-0.1,0.2-0.1,0.2
		c-0.6,0-1.1,0-1.7,0.1C-467,264-466,264-465.4,263.8L-465.4,263.8z"/>
	<path id="Path_1058" class="st0" d="M-463.8,258.7c0.1-1.5,0.2-3,0.2-4.5c-0.3,0.1-0.8,0.2-1,0.3c0.3-0.2,0.7-0.4,1-0.4
		c0.1-3.7,0-7.4-0.2-11.1c-12-1.7-24.2-1.7-36.2,0c-0.3,5.3-0.3,10.5,0,15.8L-463.8,258.7z M-483.5,258.5c0.1-0.6,0.2-0.9,0.3-0.8
		C-483.3,258.2-483.4,258.6-483.5,258.5L-483.5,258.5z M-465.9,253.9c0,0.1-0.6,0.1-0.9,0.2C-466.8,254-466.1,253.9-465.9,253.9
		L-465.9,253.9z M-467.4,244.8c0,0.1-0.5,0.2-0.9,0.3C-468.5,244.9-467.7,244.9-467.4,244.8L-467.4,244.8z M-475.5,249l-0.2,1.7
		c-4.1-0.6-8.2-0.6-12.3,0.1l-0.3-1.6C-484.1,248.3-479.8,248.3-475.5,249L-475.5,249z M-487.9,253.1c-0.1,0.2-0.8,0.2-0.6,0.4
		c0.8,0,0.3-0.3,1.1-0.3c-0.1,0.2,0.4,0.1,0.2,0.4c-1.4,0.2-2.8,0.3-4.2,0.2c0.4-0.2,0-0.2,0-0.4
		C-490.2,253.4-489,253.3-487.9,253.1L-487.9,253.1z M-494.4,244.6c-0.2,0.3-0.8,0.1-1.1,0.2c0.1,0.1,0.2,0.1,0.2,0.2
		c0.7,0,0.4-0.2,1.1-0.2c-0.5,0.2,0.1,0.3,0,0.5c0.7,0,0.6-0.2,1.3-0.2c-0.7,0.3-1.4,0.5-2.2,0.5c-0.3,0-0.1-0.1,0-0.1
		c0-0.1-0.8,0-0.9-0.1c0-0.1,0.2-0.2,0.4-0.3c-0.9,0-0.6-0.1-1.1-0.2C-495.8,245-495.3,244.5-494.4,244.6L-494.4,244.6z"/>
	<path id="Path_1059" class="st0" d="M-623.2,252.9c0.4,0.3,0.8,0.5,1.2,0.8l0-10.2c-8.9-1.7-18-1.7-26.9,0l0,12.2
		c-2.3-0.2-4.7-0.3-7.1-0.4v-4.9c2-1,4.1-1.5,6.7-2.7c-1.8-1.9-3.3-4.1-4.4-6.4c-5.4,1.7-10.4,3.7-15.9,6c1.3,2.2,2.2,4.2,3.1,5.8
		c1.6-0.3,3.1-0.8,4.5-1.2v3.3c-2.5,0.1-5.1,0.2-7.6,0.4c0.3,2.1,0.3,4.2,0,6.3c2.3-0.2,4.6-0.3,6.9-0.4c-0.4,5-2,4.5-7.1,5
		c0.5,4.1,0.6,8.2,0.3,12.3c2.9,0.2,5.7-0.9,7.5-3.1v5.9c2,0.4,4,0.4,6,0v-6.5c1.6,2.3,4.3,3.7,7.1,3.6v3c9-0.8,18-0.8,27,0.1
		l-0.1-28.3C-622.6,253.5-623.4,252.9-623.2,252.9z M-662.7,248.1c-0.5,0.2-0.2-0.2-0.7-0.1c-0.8,0.4-1.3,0.2-2.3,0.5
		c0.1-0.1,0.4-0.2,0.4-0.3c0.2,0.1,1-0.3,1.2-0.1l0.9-0.4c0.3-0.1-0.2,0.2,0.3,0.1c0.2-0.1-0.1-0.1,0-0.2c0.3,0,0.6,0,0.8,0.1
		C-662.9,247.9-662.8,248-662.7,248.1L-662.7,248.1z M-667.6,259c0.1-0.3,1.1-0.3,1.8-0.5C-666.4,258.9-666.9,258.7-667.6,259
		L-667.6,259z M-665.6,266.6c1.8-0.4,3-0.6,4.1-0.9C-662.9,266.2-664.2,266.5-665.6,266.6C-666.3,266.8-666.4,266.7-665.6,266.6
		L-665.6,266.6z M-664.2,271.7c0.5-0.6,3-0.8,3.9-1.1C-661.4,271.2-662.8,271.1-664.2,271.7L-664.2,271.7z M-660.9,254.6
		c0.2-0.2,0.5-0.2,0.7-0.2C-659.9,254.5-660.8,254.6-660.9,254.6L-660.9,254.6z M-657.1,257c0.1-0.2,0.7-0.1,0.9-0.1
		C-656.2,257.1-656.8,256.9-657.1,257L-657.1,257z M-652,259.6c-0.2,0.2-0.3,0.1-0.1,0.3C-652.6,259.9-652.7,259.6-652,259.6
		L-652,259.6z M-653.2,260c-0.3,0-0.3,0-0.6,0c-0.2-0.3,0.6-0.3,1.2-0.3C-652.6,259.8-653.5,259.7-653.2,260L-653.2,260z
		 M-653.2,258.7c0.2,0-0.9,0.2-1.1,0.3c0-0.1-0.2-0.1-0.2-0.2C-654,258.7-653.8,258.8-653.2,258.7L-653.2,258.7z M-654.7,261.7
		c1.9,0.1,3.9,0.2,5.8,0.3l0,4.4C-653.2,266-654.4,266.3-654.7,261.7L-654.7,261.7z M-622.6,243.8c0.1,0.2-1,0.1-0.4,0.2
		c-0.1,0.1-0.9,0.2-1.2,0.3c0.1-0.2-0.2-0.1-0.2-0.2C-623.8,244.3-623.3,243.8-622.6,243.8L-622.6,243.8z M-623.3,247.6
		c-0.3,0.1-0.7,0.2-1,0.3C-624.5,247.7-623.6,247.7-623.3,247.6L-623.3,247.6z M-629.8,245.9c-0.4,0.1-0.8,0.2-1.2,0.2
		C-631,245.8-630.3,246-629.8,245.9L-629.8,245.9z M-631.8,247.9l0.8-0.1C-630.7,247.8-632,248.1-631.8,247.9L-631.8,247.9z
		 M-631.2,249.4c-0.5,0.2-1,0.3-1.5,0.3C-632.2,249.5-631.7,249.4-631.2,249.4L-631.2,249.4z M-635.4,248.7l0.8-0.1
		C-634.4,248.6-635.6,248.9-635.4,248.7L-635.4,248.7z M-643.4,258.8l-0.5,0.1c0.1,0.1,0.3,0.1,0.6,0c-0.4,0.3-0.9-0.1-1.4,0.2
		c-0.3-0.1-0.6,0-0.9,0c0.1-0.2,0.9-0.2,0.4-0.4c0.4,0,1.2-0.3,1.4-0.2c0.4-0.1-0.2-0.1,0.1-0.2c0.2,0,0.4-0.1,0.6-0.1
		c-0.3,0.1-0.4,0.3-0.7,0.4C-643.7,258.8-643.3,258.7-643.4,258.8L-643.4,258.8z M-629.6,272.3c-4.1-0.6-8.2-0.6-12.3,0.1l-0.3-1.6
		c4.2-0.7,8.6-0.7,12.8-0.1L-629.6,272.3z M-637,267.5c0.4,0,0.9,0,1.3-0.1c0,0.2,0.8,0.4,1.3,0.1c0.5,0-0.4,0.3-0.4,0.4
		c-0.7,0-1.3,0-2,0.1C-636.5,267.7-637,267.9-637,267.5L-637,267.5z M-629.6,262.1c-4.1-0.6-8.2-0.6-12.3,0.1l-0.3-1.6
		c4.2-0.7,8.6-0.7,12.8-0.1L-629.6,262.1z M-629.6,252.4c-4.1-0.6-8.2-0.6-12.3,0.1l-0.3-1.6c4.2-0.7,8.6-0.7,12.8-0.1L-629.6,252.4
		z M-629.4,247.6c-0.2,0.1-0.4,0.1-0.6,0.2c0.2-0.2-0.1-0.1,0.1-0.2c0.6-0.2,0.4,0.1,0.8,0.1C-629.1,247.8-629.4,247.7-629.4,247.6
		L-629.4,247.6z M-628,244.9l0.6-0.1l0,0.2C-627.6,245-628,245.1-628,244.9L-628,244.9z M-626.4,251c0.1-0.2,0.7-0.3,1-0.3
		C-625.4,250.9-626,250.9-626.4,251L-626.4,251z M-626.6,247.3c0.2-0.2,0.8-0.1,1.2-0.2C-625.4,247.4-626.2,247.2-626.6,247.3
		L-626.6,247.3z M-625.4,244.4c-0.1-0.1,0.1-0.2,0.1-0.2c0.6-0.1,0.4,0.1,0.8,0.1c0,0-0.1,0.1-0.1,0.1l-0.3,0.1
		C-625.2,244.4-624.7,244.3-625.4,244.4L-625.4,244.4z M-624,248C-624.2,248.4-625.7,248.4-624,248z M-624.1,264.4
		c-0.2-0.1-0.4-0.4-0.1-0.2c-0.1-0.2-0.3-0.3-0.5-0.5c0.1-0.1,0.4,0.1,0.6,0.3C-624.3,264.1-623.5,264.5-624.1,264.4L-624.1,264.4z
		 M-623.8,261.8c-0.2-0.2-0.3-0.3-0.5-0.4c0.1-0.1,0.9,0.3,0.1-0.1c0.1-0.1,0.8,0.4,1.2,0.6C-623.2,261.9-623.7,261.7-623.8,261.8
		L-623.8,261.8z"/>
	<path id="Path_1060" class="st0" d="M-531.1,242.2c0.1-0.1,0.2-0.1,0.2-0.2c-9.2-0.1-18.5,0.1-27.7,0.8c0,0.9,0,1.4,0,1.9
		c0,0.8,0,1.4,0,3.8l0,0.6c-0.1,3.5-0.1,5.1-0.2,8.3c-0.2,3.5-0.4,6.4-0.9,9.6c-0.3,2-0.5,3.7-1.2,7.1c-0.3,1.2-0.5,2.4-0.8,3.3
		c-0.2,0.6-0.3,1.2-0.4,1.7c3.2-0.1,6.4,0.7,9.2,2.1c0.1-0.4,0.2-0.9,0.3-1.4c0.3-1,0.6-2.3,0.9-3.8c0.5-2.3,0.8-3.9,1-5.3
		c3.3-0.1,6.7-0.2,10.2-0.3c0,3.6,0.1,7.2,0.1,10.9c2.8-0.3,5.6-0.3,8.3,0c0.1-3.7,0.1-7.3,0.2-10.9c3.3,0,6.7,0.1,10.1,0.2v0.4
		c0,0.9-0.1,1.3-1.3,1.3c-0.8,0-4,0-4,0c0.3,2.9,0.4,5.9,0.2,8.8c1.4,0.1,4.9,0,7.1,0c6.2,0,6.8-1.4,6.8-7.3c0-1.3,0-2.3,0-3.1
		c-0.1,0-0.2,0-0.2,0c-0.5-0.3-0.3-0.4-0.2-0.6c0.2,0.1,0.3,0.1,0.4,0.3c0-2,0.1-2.8,0.1-5.4l0.1-5.8c-0.1-0.1-0.1-0.1-0.2-0.2
		c0.1,0,0.1,0,0.2,0l0.1-16.3c-6-0.5-11.9-0.7-17.8-0.8C-530.7,242.1-530.9,242.1-531.1,242.2z M-552.8,256.5
		c-0.2,0.2-0.8,0.5,0.2,0.2c-0.7,0.4-0.3,0.3-1.2,0.4C-553.5,256.8-553.2,256.6-552.8,256.5z M-552.4,259c-0.7,0.3-1.4,0.5-2.1,0.5
		C-553.9,259.3-553.1,259.1-552.4,259L-552.4,259z M-554.8,257.4c0,0.1-0.8,0.3-1,0.3C-555.8,257.6-555.1,257.5-554.8,257.4
		L-554.8,257.4z M-554.8,257.9c-0.1-0.1-0.7,0.2-0.8,0.1c0.1-0.2,0.8-0.2,1.2-0.4c0,0.2-0.5,0.4-0.8,0.6
		C-555.6,258.3-555,258-554.8,257.9L-554.8,257.9z M-553.4,272.1c0,0.1-0.2,0.1-0.4,0.3c-0.4,0.1-0.7,0.1-1.1,0.2
		c0.1-0.3,0.8-0.3,1.6-0.6C-553.2,272-553.3,272-553.4,272.1L-553.4,272.1z M-552.9,259.7c0.1-0.1,0.5-0.3,0.9-0.4
		C-552.1,259.5-552.5,259.7-552.9,259.7L-552.9,259.7z M-551.6,259.3c0-0.2,0.8-0.4,0.7-0.2L-551.6,259.3z M-534.2,253
		c-0.3,0.1-0.6,0.2-0.9,0.2C-534.8,252.9-533.1,252.9-534.2,253L-534.2,253z M-537,253.3c0.1,0.1-0.3,0.2-0.4,0.3
		c0.2,0,0.2-0.1,0.6-0.1c-0.1,0.3-0.9,0.1-0.9,0.4l-0.3,0.1c-0.1,0-0.2,0-0.2-0.1C-537.4,253.7-537.9,253.6-537,253.3L-537,253.3z
		 M-538.1,254.6c-0.3,0-0.9,0.3-0.9,0.1C-538.6,254.5-538.1,254.4-538.1,254.6L-538.1,254.6z M-539.6,254.4c0.6-0.2,0.6,0,0.9-0.1
		c-0.3,0.4-1.8,0.5-2.4,0.7C-541,254.6-539.1,254.7-539.6,254.4L-539.6,254.4z M-538.5,253.1c0,0.2-1.1,0.6-1.6,0.6
		C-540,253.4-538.9,253.3-538.5,253.1L-538.5,253.1z M-545.6,250.3c0.1,0.1-0.3,0.2-0.7,0.4C-546.4,250.5-546.1,250.4-545.6,250.3
		L-545.6,250.3z M-549.8,251.1c3.2-0.6,6.5-0.6,9.8-0.1l-0.2,0.8l-0.2,0.8c-3-0.5-6.1-0.5-9.1,0.1l-0.1-0.8l-0.1-0.5l-0.2,0
		c0,0,0.1-0.1,0.2-0.1L-549.8,251.1z M-541.1,253.7c-0.2,0.2-1,0.3-1.5,0.4C-542.1,254-541.6,253.8-541.1,253.7L-541.1,253.7z
		 M-543.4,256.4c-0.1,0.1-0.2,0.3-0.7,0.4C-543.9,256.6-543.7,256.5-543.4,256.4L-543.4,256.4z M-549.1,258.5
		c-0.2,0.2-0.5,0.4-0.8,0.4C-550,258.8-549.4,258.7-549.1,258.5L-549.1,258.5z M-540.4,261.7c-3-0.5-6.1-0.5-9.1,0.1l-0.1-0.8
		l-0.1-0.8c3.2-0.6,6.5-0.6,9.8-0.1l-0.2,0.8L-540.4,261.7z M-539.8,272.2c-0.5,0.1,0.6-0.4-0.4-0.1c-0.5,0.1,0.5-0.2,0.7-0.2
		c-0.2,0.2,0,0.1,0.1,0.2C-539.6,272.1-539.8,272.2-539.8,272.2L-539.8,272.2z M-537.1,266.2l-0.5,0.1c0.1,0.1,0.3,0.1,0.6,0
		c-0.4,0.3-0.9-0.1-1.4,0.2c-0.3-0.1-0.6,0-0.9,0c0.1-0.2,0.9-0.2,0.4-0.4c0.4,0,1.2-0.3,1.4-0.2c0.4-0.1-0.2-0.1,0.1-0.2
		c0.2,0,0.4-0.1,0.6-0.1c-0.3,0.1-0.4,0.3-0.7,0.4C-537.4,266.1-537,266-537.1,266.2L-537.1,266.2z M-537.4,255
		c0.2-0.2,0.8-0.2,1.1-0.2C-536.5,255-537.1,255-537.4,255L-537.4,255z M-536.1,254.9c0-0.2,0.7-0.3,1-0.4c0,0.1,0.1,0.1,0.2,0.1
		C-535.3,254.7-535.7,254.8-536.1,254.9L-536.1,254.9z M-534.7,260.7c0-0.1,0.6-0.2,0.9-0.3C-534.1,260.7-534.4,260.8-534.7,260.7
		L-534.7,260.7z M-529.7,265.4c0.5-0.6,3-0.8,3.9-1.1C-526.8,264.9-528.3,264.7-529.7,265.4L-529.7,265.4z M-522.2,260.9l-0.2,0.8
		c-3-0.5-6.1-0.5-9.1,0.1l-0.3-1.6c1-0.2,1.9-0.3,2.9-0.4c0.7-0.2,1.3-0.3,1.9-0.5c-0.4,0.2-0.7,0.3-1.1,0.4c2-0.1,4.1,0,6.1,0.4
		L-522.2,260.9z M-529.1,256l0.8-0.1C-528.1,256-529.3,256.2-529.1,256L-529.1,256z M-523.6,254.9c0.6-0.2,0.4,0.1,0.8,0.1
		c-0.1,0.1-0.3,0.1-0.3,0c-0.2,0.1-0.4,0.1-0.6,0.2C-523.4,255-523.8,255.1-523.6,254.9L-523.6,254.9z M-524.8,253.4
		c0-0.3,0.7-0.1,1.2-0.2C-523.9,253.3-524.3,253.4-524.8,253.4L-524.8,253.4z M-524.7,255.1c0.3,0.1-1,0.4-0.8,0.1L-524.7,255.1z
		 M-524.9,256.7c-0.5,0.2-1,0.3-1.5,0.3C-525.9,256.9-525.4,256.8-524.9,256.7L-524.9,256.7z M-522.2,251.9l-0.2,0.8
		c-3-0.5-6.1-0.5-9.1,0.1l-0.1-0.5c-0.5,0.2-0.9,0.1-1.4,0.3c0.1-0.2,0.8-0.3,1.4-0.4l-0.2-1.1c3.2-0.6,6.5-0.6,9.8-0.1
		L-522.2,251.9z M-521.7,252.3l0.6-0.1l0,0.2C-521.3,252.4-521.7,252.4-521.7,252.3L-521.7,252.3z M-520.1,258.4
		c0.1-0.2,0.7-0.3,1-0.3C-519.1,258.2-519.7,258.3-520.1,258.4L-520.1,258.4z M-519.3,253.6c-0.2-0.3,0.6-0.3,1.2-0.3
		c0,0.2-0.9,0.1-0.6,0.3C-519,253.6-519,253.6-519.3,253.6L-519.3,253.6z M-517.7,255.4C-517.9,255.8-519.4,255.7-517.7,255.4z
		 M-517.6,253.5c-0.5,0-0.5-0.3,0.1-0.3C-517.6,253.4-517.8,253.3-517.6,253.5L-517.6,253.5z M-517,254.9c-0.3,0.1-0.7,0.2-1,0.3
		C-518.2,255.1-517.3,255-517,254.9L-517,254.9z M-517.8,271.8c-0.2-0.1-0.4-0.4-0.1-0.2c-0.1-0.2-0.3-0.3-0.5-0.5
		c0.1-0.1,0.4,0.1,0.6,0.3C-518,271.5-517.2,271.9-517.8,271.8L-517.8,271.8z M-517.5,269.1c-0.2-0.2-0.3-0.3-0.5-0.4
		c0.1-0.1,0.9,0.3,0.1-0.1c0.1-0.1,0.8,0.4,1.2,0.6C-516.9,269.3-517.4,269-517.5,269.1L-517.5,269.1z M-517.3,279.6
		c0.1-0.2,0.9-0.1,1.4-0.2C-516.4,279.6-516.9,279.7-517.3,279.6L-517.3,279.6z M-514.2,271L-514.2,271c-0.1,0-0.2,0-0.2,0
		C-514.7,270.8-514.5,270.9-514.2,271C-514.3,271-514.2,271-514.2,271C-514.2,271-514.2,271-514.2,271L-514.2,271z M-512.9,250.6
		c0.1,0.1-1.3,0.3-1.7,0.5c0-0.1-0.1-0.1-0.2-0.1C-514.5,250.7-513.6,250.8-512.9,250.6L-512.9,250.6z M-516.9,260.2
		c0.5,0.4,1.1,0.7,1.7,1C-515.1,261.5-517.2,260.3-516.9,260.2L-516.9,260.2z M-516.3,251.2c0.1,0.2-1,0.1-0.4,0.2
		c-0.1,0.1-0.9,0.2-1.2,0.3c0.1-0.2-0.2-0.1-0.2-0.2C-517.5,251.6-517,251.2-516.3,251.2L-516.3,251.2z M-518.9,251.6
		c0.6-0.1,0.4,0.1,0.8,0.1c0,0-0.1,0.1-0.1,0.1l-0.3,0.1c-0.3-0.1,0.2-0.2-0.5,0C-519.1,251.7-519,251.6-518.9,251.6L-518.9,251.6z
		 M-518.7,252.4c0.2,0-0.9,0.2-1.1,0.3c0-0.1-0.2-0.1-0.2-0.2C-519.4,252.4-519.2,252.4-518.7,252.4L-518.7,252.4z M-519.1,254.5
		c0,0.3-0.8,0.1-1.2,0.2C-520,254.5-519.5,254.6-519.1,254.5L-519.1,254.5z M-521.7,248.4c0.4-0.1,0.8,0,0.8-0.1
		C-520.2,248.3-521.9,248.6-521.7,248.4L-521.7,248.4z M-521.6,250.5c0,0.3-0.6,0-0.9,0.1C-522.4,250.4-521.9,250.5-521.6,250.5
		L-521.6,250.5z M-526.3,248.2c0.2-0.2,0.5-0.2,0.7-0.2C-525.4,248.1-526.2,248.2-526.3,248.2L-526.3,248.2z M-526.4,245.1
		c0.2-0.1,0.4-0.1,0.6-0.2C-525.8,245.2-528.2,245.4-526.4,245.1L-526.4,245.1z"/>
	<path id="Path_1061" class="st0" d="M-599.8,268.3c0,0.1,0,0.2,0,0.2c0.1-0.1,0.3-0.1,0.4-0.2L-599.8,268.3z"/>
	<path id="Path_1062" class="st0" d="M-581.6,274.6c0-0.6,0-1.3,0-1.9c4.4,0,8.8,0.1,13.2,0.3c0.4-1.5,0.4-3.1,0-4.6
		c-1.1,0-2.2,0-3.3-0.1c0.9-0.6,1.7-1.3,2.4-2.2c-1.3-2.7-3-5.3-4.8-7.6c2,0.1,4,0.2,6,0.4l0.2,0l0-15.8c-14.1-1.7-29.3-1.6-45.6,0
		c0,0.9,0,1.4,0,1.9c0,0.9,0,1.6,0,4.1l0,0.6c0,3.5-0.1,5.2-0.2,8.3c-0.2,3.6-0.4,6.5-0.9,9.7c-0.3,2-0.5,3.7-1.2,7.1
		c-0.3,1.3-0.5,2.4-0.8,3.4c-0.2,0.6-0.3,1.2-0.4,1.6c3,0.1,5.9,0.7,8.6,1.9c0.1-0.3,0.9-3.1,1.7-6.3c-0.2,2-0.2,4.1,0,6.2
		c13.8-0.6,27.2-0.6,40.2,0c0.3-2.1,0.3-4.3,0-6.5C-571.5,274.8-576.5,274.6-581.6,274.6z M-575.6,261.8c-0.2,0.2-0.8,0.1-0.6-0.1
		l1.1-0.2C-575.1,261.8-576.5,261.7-575.6,261.8z M-575.5,260.8c-0.4,0.2-1.2,0-2,0.2C-576.8,260.9-576.2,260.8-575.5,260.8
		L-575.5,260.8z M-577.6,254c0.1-0.3,0.6-0.2,1.2-0.3C-576.6,253.8-577.3,253.9-577.6,254L-577.6,254z M-571.8,256.7
		c-0.6,0-1.1,0-1.7,0.1c0.2-0.1,1.2-0.1,1.8-0.3C-571.6,256.6-571.8,256.6-571.8,256.7L-571.8,256.7z M-569.5,246.6
		c-0.5,0.2-1,0.4-1.5,0.5C-570.5,246.8-570,246.6-569.5,246.6L-569.5,246.6z M-571.7,255.9c0.4-0.1,0.8-0.2,1.2-0.3
		c0.3,0.2-1.8,0.7-1.7,0.7c-0.1,0.2-0.4,0.1-0.6,0.1C-572.6,256.2-571.7,256.1-571.7,255.9L-571.7,255.9z M-572.2,246.6
		c0,0.1-0.6,0.1-0.9,0.2C-573.1,246.7-572.4,246.6-572.2,246.6L-572.2,246.6z M-573.1,253.3c-0.2,0.2-0.3,0.1-0.9,0.3
		C-574.1,253.4-573.3,253.3-573.1,253.3L-573.1,253.3z M-573.5,253.2c-0.4,0.2-0.5-0.1-0.9,0.1c-0.1,0-0.1-0.1-0.3-0.1
		C-574.3,252.9-573.8,253.2-573.5,253.2L-573.5,253.2z M-575.2,257.3c-0.5,0.1-0.5,0-0.9,0.1c0.4-0.1,0.7-0.2,1-0.4
		C-575,257.1-575,257.2-575.2,257.3L-575.2,257.3z M-594.2,245.7c-0.1,0.2-0.8,0.2-0.6,0.4c0.8,0,0.3-0.3,1.1-0.3
		c-0.1,0.2,0.4,0.1,0.2,0.4c-1.4,0.2-2.8,0.3-4.2,0.2c0.4-0.2,0-0.2,0-0.4C-596.5,246-595.3,245.9-594.2,245.7L-594.2,245.7z
		 M-575.9,249.9l-0.2,1.7c-2.6-0.4-5.1-0.6-7.6-0.8l-5.8,0c-0.1,0.2-0.1,0.4-0.3,0.3c0-0.1,0-0.2,0-0.3l-4.1,0
		c-2.3,0.2-4.6,0.5-6.9,0.9l-0.3-1.6C-592.8,248.6-584.3,248.6-575.9,249.9L-575.9,249.9z M-578.1,261.1c-0.6,0.2-1.2,0.3-1.8,0.2
		C-579.3,261.3-578.7,261.2-578.1,261.1L-578.1,261.1z M-580.1,257c-0.1-0.9,0.3-1.2,0.3-2.2C-579.4,255-579.7,256.9-580.1,257
		L-580.1,257z M-605.2,258.8c0.6-0.4,0.8-0.8,1.2-1c-0.4,0.5-0.8,0.9-1.2,1.4C-605.2,259-605.2,258.9-605.2,258.8L-605.2,258.8z
		 M-604.2,255.8c-0.5,0.4-0.9,0.8-1.3,1.2C-605.8,257-604.2,255.4-604.2,255.8L-604.2,255.8z M-604.3,257.2
		c-0.3,0.5-0.3,0.8-0.9,1.4c-0.3-0.3-0.8,0.8-1.3,0.9C-605.9,258.6-605.1,257.9-604.3,257.2L-604.3,257.2z M-605.4,259.8
		c0,0.3-1.2,0.4-1.8,0.4C-606.6,259.9-606,259.8-605.4,259.8L-605.4,259.8z M-613.1,262.8c-0.4-0.3-1.1-1,0-0.4
		C-613.4,262.5-613,262.7-613.1,262.8L-613.1,262.8z M-612.2,249.1c-0.8,0.1-0.3-0.1-1,0c0.3-0.1,0.5-0.2,0.8-0.3
		c0.4-0.1,0.8-0.1,1.2-0.1C-611.1,248.9-612.4,248.9-612.2,249.1L-612.2,249.1z M-608.1,270.1c-0.7-0.3-0.1-0.6-0.7-0.6
		c-0.6-0.4,0.3,0,0.3-0.1c-0.3-0.4-1.6-0.7-1.4-1.1l2.4,1.2C-607.7,269.8-608.1,269.6-608.1,270.1L-608.1,270.1z M-607.1,263.8
		c1-0.5-2.5-0.4-2.1-1c1.1,0.4,2.3,0.6,3.5,0.7C-606.2,263.6-606.3,264.1-607.1,263.8L-607.1,263.8z M-591.4,277.1
		c0.2,0.1-0.1,1.4,0.1,1.6C-591.6,279.3-591.6,278-591.4,277.1L-591.4,277.1z M-590.6,268.2c-2.9,0-5.8,0.1-8.7,0.1
		c-0.2,0.3-0.8,0.3-0.7,0.7c-0.6,0.4,0-0.4,0-0.6c0,0,0.1,0,0.1-0.1c-1.3,0-2.6,0-3.9,0.1c-0.3,1.5-0.3,3.1,0,4.6
		c4.4-0.1,8.8-0.2,13.1-0.3c0,0.6,0,1.2,0,1.9c-5.3,0.1-10.5,0.2-15.9,0.5c0.5-1.8,0.8-3.5,1.1-5.4c0.5-3.5,0.7-7.1,0.6-10.7
		c1.9-0.2,3.8-0.3,5.8-0.4c-0.8,1.1-1.5,2.3-2.3,3.5l-1,0.1l-0.1,0.1l0-0.1c-0.5,0-1,0.1-1.5,0.1c-0.1,1.5-0.1,3,0.1,4.4
		c4.4-0.4,8.9-0.6,13.4-0.8C-590.5,266.7-590.5,267.4-590.6,268.2L-590.6,268.2z M-602.5,262.8c0.2-0.2,0.3,0,0.4,0.1
		c-0.2,0.2-0.4,0.4-0.4,0.5c-0.3,0.4-0.3,0-0.6,0.3C-603.4,263.6-602.3,262.9-602.5,262.8L-602.5,262.8z M-602,264.5
		c0.3-0.3,0.3,0,0.7-0.3c0,0.1-0.2,0.4-0.1,0.5c-0.3,0.3-0.6,0.3-0.7,0.2C-602.1,264.8-602,264.6-602,264.5L-602,264.5z
		 M-591.6,263.7c0.1,0,0.1,0,0.2-0.2c0.2-0.3-0.4,1.5-0.5,2C-592.1,264.8-591.5,264.6-591.6,263.7L-591.6,263.7z M-591.6,262.1
		l0.4,0.1C-591.2,263-591.8,263-591.6,262.1L-591.6,262.1z M-588.6,270.5c-0.1-0.1,0-0.6,0-0.9c-0.2,0.3-0.2,0.6-0.3,0.9
		c-0.1-0.2-0.2-0.3-0.3-0.3c0.1-0.4,0.1-0.9,0.1-1.3c0.4-0.5,0.3,0.4,0.6,0.3C-588.6,269.9-588.4,270.1-588.6,270.5L-588.6,270.5z
		 M-592.3,261.4c0.5-1.1,1.1-2.2,1.9-3.2c2.1,0,4.3,0,6.5,0c0.8,0.9,1.6,1.9,2.3,2.9C-585,261-588.6,261.2-592.3,261.4z M-583.1,269
		c0.2,0.6,0.2,1.2,0.2,1.8C-583.3,270.9-583.2,269.9-583.1,269L-583.1,269z M-581.9,265.7c1.2,0,2.5,0,3.7,0
		c0.6,0.9,1.2,1.7,1.7,2.5c-1.7,0-3.5,0-5.2,0C-581.8,267.4-581.8,266.5-581.9,265.7L-581.9,265.7z"/>
</g>
</svg>
