<svg xmlns="http://www.w3.org/2000/svg" width="265px" height="auto" viewBox="0 0 290.287 27.755"><g transform="translate(-84.794 -135.362)"><path d="M120.333,142.4a49.757,49.757,0,0,0-5.023-4.233l-4.8,2.907s1.348,1.032,3.234,2.723l-.206.033-13.616.757,4.8-7.67-6.708-1.558-6.843,9.715-6.375.355.851,3.695,31.185-1.945h.454c2.4,2.387,3.685,3.7,3.685,3.7l4.264-3.309A67.749,67.749,0,0,0,120.333,142.4Z" fill="#c8d2d2"/><path d="M331.245,179.477h10.3v-2.7h-10.3v-1.854H324.2v1.854H313.9v2.7h10.3v1.82H308.65v3.4h38.143v-3.4H331.245Z" transform="translate(-129.367 -22.863)" fill="#c8d2d2"/><path d="M314.946,141.608H340.58v3.474H346.8v-6.467H331.287V136.2h-7.047v2.42H308.722v6.467h6.224Z" transform="translate(-129.408 -0.482)" fill="#c8d2d2"/><path d="M456.365,141.505H440.973a23.1,23.1,0,0,0,2.086-3.967l-4.462-.895a42.392,42.392,0,0,1-2.9,5.088,20.655,20.655,0,0,1-3.27,3.637v-2.424h-3.319V136.98h-5.438v5.964h-1.441c.173-1.277.322-2.534.322-2.534l-3.795-.887a31.411,31.411,0,0,1-1.035,4.091c-.788,2.514-1.676,4.879-1.676,4.879l4.534,1.528s.68-2.325,1.116-4.115h1.974v6.662c-3.272.749-6.787,1.264-6.787,1.264l1.33,3.63s3.09-.515,5.456-1.1v7.369h5.438v-9.012c1.686-.539,3.1-1,3.1-1l-.345-3.8s-1.158.47-2.758,1.034v-5.05h2.707c-.637.543-1.071.868-1.071.868l3.749,2.1s2.082-1.978,4.2-4.4h2.364a31.971,31.971,0,0,1-3.2,4.7,46.128,46.128,0,0,1-5.684,5.47l2.778,2.137a39.038,39.038,0,0,0,6.112-5.77,44.5,44.5,0,0,0,4.24-6.539h1.215a26.133,26.133,0,0,1-3.813,7.118,31.092,31.092,0,0,1-6.442,6.638c-1.757,1.3-2.928,2.018-2.928,2.018l3.579,2.343a34.869,34.869,0,0,0,8.821-8.229,45.153,45.153,0,0,0,5.544-9.782c-.1,1.244-.261,2.808-.506,4.568a61.33,61.33,0,0,1-1.092,6.242c-.351,1.395-.844,4.309-3.13,4.1a24.153,24.153,0,0,1-3.036-.409v3.452a32.151,32.151,0,0,0,5.481.751c3.679.263,4.2-1.427,4.946-3.341a46.682,46.682,0,0,0,1.959-8.371,83.672,83.672,0,0,0,.753-10.061l-.277.007Z" transform="translate(-191.43 -0.74)" fill="#c8d2d2"/><path d="M118.557,172.124H97.081V184.2h7.891v-1.679h13.585V184.2h7.891V172.124h-7.891Zm-13.585,7.059v-4.031h13.585v4.031Z" transform="translate(-7.101 -21.245)" fill="#c8d2d2"/><path d="M215.084,157.794v-19.35h-6.709v6.271h-9.9v3.731h9.9v10.292l-9.936,1.4L199,164.9l19.053-3.728-.466-3.728Z" transform="translate(-65.676 -1.781)" fill="#c8d2d2"/><path d="M261.969,155.27a11.411,11.411,0,0,1-.213,2.76c-.2,1.244-1.289,1.532-2.358,1.57a2.358,2.358,0,0,1-2.075-1.067,11.141,11.141,0,0,1-.4-3.581v-6.506h8.724v-3.731h-8.724v-6.271h-6.653v18.427a14.054,14.054,0,0,0,.414,3.488c.408,1.087,1.783,3.872,7.558,4.213,5.395.319,7.4-2.188,7.4-2.188a6.493,6.493,0,0,0,1.314-3.444,22.29,22.29,0,0,0,.136-2.764Z" transform="translate(-95.629 -1.781)" fill="#c8d2d2"/><path d="M315.143,160.078l.642,2.511,25.127-1.372c1.455,1.166,2.964,2.423,2.964,2.423l3.387-2.395s-2.134-1.876-3.764-3.126c-.886-.68-1.988-1.435-2.762-1.951h2.121v-2.521H319.952v2.521h3.237l-1.98,3.695Zm15.019-3.91h8.556c-.994.632-2.317,1.515-2.317,1.515s.918.714,2.013,1.569l-9.932.352Z" transform="translate(-133.119 -10.567)" fill="#c8d2d2"/><rect width="3.343" height="10.402" transform="translate(274.114 136.212)" fill="#c8d2d2"/><path d="M544.511,146.415c0,1.655.734,2.608,2.655,2.608a4.339,4.339,0,0,0,2.077-.453l-.047-1.359a2.547,2.547,0,0,1-.78.109c-.516,0-.687-.25-.687-.734v-3.655h1.515v-1.343h-1.515v-2.327l-3.218.25v2.077h-.984v1.343h.984Z" transform="translate(-265.102 -2.254)" fill="#c8d2d2"/><path d="M566.045,149.9c0-.125-.016-.281-.031-.422l-2.452-.234a1.914,1.914,0,0,1,.031.3.621.621,0,0,1-.687.7c-.749,0-1.093-.718-1.109-1.624h4.186a7.307,7.307,0,0,0,.125-1.109c0-1.89-1.218-3.108-3.467-3.108a3.732,3.732,0,0,0-4.092,3.8c0,2.186,1.125,3.8,4.045,3.8C564.608,152,566.045,151.418,566.045,149.9Zm-3.264-3.655c.469,0,.656.328.656.828a3.158,3.158,0,0,1-.047.516H561.8C561.844,146.935,562.141,146.248,562.781,146.248Z" transform="translate(-273.783 -5.226)" fill="#c8d2d2"/><path d="M582.522,149.653c0-1.7.3-2.812,1.125-2.812.469,0,.672.3.672.781v4.217h3.217v-2.186c0-1.7.3-2.812,1.125-2.812.469,0,.672.3.672.781v4.217h3.217v-4.014c0-2.171-.843-3.42-2.624-3.42-1.421,0-2.218,1.249-2.421,2.686-.172-1.734-1.031-2.686-2.593-2.686-1.468,0-2.311.921-2.7,2.686l-.625-2.53H579.3v7.278h3.217Z" transform="translate(-285.779 -5.226)" fill="#c8d2d2"/><path d="M617.252,146.154a4.533,4.533,0,0,1,2.234.75l.8-1.484a5.675,5.675,0,0,0-3.405-1.015c-2.171,0-3.373.89-3.373,2.249,0,1.156.422,1.906,2.78,2.593.7.2.859.39.859.609,0,.25-.219.39-.718.39a4.244,4.244,0,0,1-2.421-.906l-.843,1.484A6.371,6.371,0,0,0,616.908,152c2.187,0,3.358-1.031,3.358-2.405,0-1.281-.749-1.953-2.358-2.39-1.125-.312-1.281-.406-1.281-.7C616.627,146.279,616.846,146.154,617.252,146.154Z" transform="translate(-305.343 -5.226)" fill="#c8d2d2"/><path d="M651.237,142.576c0-2.983-2-5.2-5.435-5.2h-4.967v10.4H645.8C649.238,147.777,651.237,145.559,651.237,142.576Zm-5.842,2.874h-1.218V139.7h1.218c1.672,0,2.452,1.234,2.452,2.874S647.066,145.45,645.395,145.45Z" transform="translate(-321.336 -1.163)" fill="#c8d2d2"/><rect width="3.217" height="7.278" transform="translate(331.039 139.335)" fill="#c8d2d2"/><rect width="3.217" height="2.39" transform="translate(331.039 136.212)" fill="#c8d2d2"/><path d="M682.555,146.154a4.534,4.534,0,0,1,2.234.75l.8-1.484a5.673,5.673,0,0,0-3.4-1.015c-2.171,0-3.373.89-3.373,2.249,0,1.156.422,1.906,2.78,2.593.7.2.859.39.859.609,0,.25-.219.39-.718.39a4.244,4.244,0,0,1-2.421-.906l-.843,1.484A6.373,6.373,0,0,0,682.212,152c2.187,0,3.358-1.031,3.358-2.405,0-1.281-.749-1.953-2.358-2.39-1.125-.312-1.281-.406-1.281-.7C681.931,146.279,682.149,146.154,682.555,146.154Z" transform="translate(-343.082 -5.226)" fill="#c8d2d2"/><path d="M703.448,144.4a2.789,2.789,0,0,0-2.7,2.2l-.718-2.046h-1.843v9.84H701.4v-4.045a2.464,2.464,0,0,0,2.3,1.64c2,0,2.921-1.812,2.921-3.8C706.618,146.31,705.743,144.4,703.448,144.4ZM702.4,150.09c-.64,0-1-.687-1-1.89,0-1.141.36-1.89.984-1.89.64,0,1.015.656,1.015,1.89C703.4,149.419,703.057,150.09,702.4,150.09Z" transform="translate(-354.479 -5.226)" fill="#c8d2d2"/><rect width="3.217" height="10.402" transform="translate(353.31 136.212)" fill="#c8d2d2"/><path d="M739.653,149.856V147.4c0-2-1.234-3-3.749-3-2.53,0-3.92.921-3.92,2.3a2.809,2.809,0,0,0,.328,1.234l2.874-.672a1.384,1.384,0,0,1-.094-.469.576.576,0,0,1,.656-.625c.453,0,.687.312.687.875v1.3a13.583,13.583,0,0,0-1.7-.125c-1.734,0-2.842.515-2.842,1.812a1.948,1.948,0,0,0,2.2,1.968,2.438,2.438,0,0,0,2.467-1.343c.157.672.656,1.343,2.125,1.343a2.818,2.818,0,0,0,1.843-.547v-1.093a.98.98,0,0,1-.391.062C739.746,150.418,739.653,150.215,739.653,149.856Zm-3.2-.515c0,.562-.172,1.171-.859,1.171a.489.489,0,0,1-.547-.5c0-.547.515-.687,1.406-.812Z" transform="translate(-373.958 -5.226)" fill="#c8d2d2"/><path d="M757.745,144.775l-1.265,4.92-1.39-4.92h-3.108l2.967,7.356c-.219.687-.484,1.046-1.312,1.046a3.044,3.044,0,0,1-.672-.078l-.063,1.328a4.3,4.3,0,0,0,1.827.312c1.531,0,2.484-.64,3.264-2.7.859-2.28,2.656-7.263,2.656-7.263Z" transform="translate(-385.569 -5.44)" fill="#c8d2d2"/><rect width="3.217" height="2.39" transform="translate(274.005 150.141)" fill="#c8d2d2"/><rect width="3.217" height="7.278" transform="translate(274.005 153.264)" fill="#c8d2d2"/><path d="M550.355,177.4c-1.468,0-2.312.921-2.7,2.686l-.625-2.53h-2.281v7.278h3.217v-2.187c0-1.7.3-2.811,1.125-2.811.468,0,.671.3.671.781v4.217h3.217v-4.014C552.978,178.654,552.135,177.4,550.355,177.4Z" transform="translate(-265.807 -24.297)" fill="#c8d2d2"/><path d="M584.1,170.375h-9.934v2.437h3.3v7.965H580.8v-7.965h3.3Z" transform="translate(-282.806 -20.234)" fill="#c8d2d2"/><path d="M604.457,182.856V180.4c0-2-1.234-3-3.749-3-2.53,0-3.92.921-3.92,2.3a2.806,2.806,0,0,0,.328,1.234l2.874-.672a1.391,1.391,0,0,1-.093-.469.576.576,0,0,1,.656-.625c.453,0,.687.313.687.875v1.3a13.579,13.579,0,0,0-1.7-.125c-1.734,0-2.842.516-2.842,1.812A1.948,1.948,0,0,0,598.9,185a2.439,2.439,0,0,0,2.468-1.343c.156.672.656,1.343,2.125,1.343a2.82,2.82,0,0,0,1.843-.547v-1.094a.971.971,0,0,1-.391.063C604.551,183.418,604.457,183.215,604.457,182.856Zm-3.2-.516c0,.563-.172,1.172-.859,1.172a.49.49,0,0,1-.547-.5c0-.547.515-.687,1.406-.813Z" transform="translate(-295.828 -24.297)" fill="#c8d2d2"/><rect width="3.217" height="7.278" transform="translate(310.518 153.264)" fill="#c8d2d2"/><rect width="3.217" height="2.39" transform="translate(310.518 150.141)" fill="#c8d2d2"/><path d="M636.516,177.4a2.788,2.788,0,0,0-2.7,2.2l-.719-2.046h-1.843v9.84h3.217v-4.045a2.464,2.464,0,0,0,2.3,1.64c2,0,2.921-1.812,2.921-3.8C639.686,179.31,638.811,177.4,636.516,177.4Zm-1.046,5.685c-.64,0-1-.687-1-1.89,0-1.14.36-1.89.984-1.89.64,0,1.015.656,1.015,1.89C636.469,182.419,636.125,183.09,635.469,183.09Z" transform="translate(-315.799 -24.297)" fill="#c8d2d2"/><path d="M660.567,180.513c0-1.889-1.218-3.108-3.468-3.108a3.732,3.732,0,0,0-4.092,3.8c0,2.187,1.124,3.8,4.045,3.8,2.015,0,3.452-.578,3.452-2.093,0-.125-.016-.281-.031-.422l-2.452-.234a1.914,1.914,0,0,1,.031.3.621.621,0,0,1-.687.7c-.749,0-1.093-.718-1.109-1.624h4.186A7.307,7.307,0,0,0,660.567,180.513Zm-2.718.079h-1.593c.047-.656.344-1.344.984-1.344.469,0,.656.328.656.828A3.162,3.162,0,0,1,657.85,180.591Z" transform="translate(-328.372 -24.297)" fill="#c8d2d2"/><rect width="3.217" height="7.278" transform="translate(333.398 153.264)" fill="#c8d2d2"/><rect width="3.217" height="2.39" transform="translate(333.398 150.141)" fill="#c8d2d2"/></g></svg>