<svg xmlns="http://www.w3.org/2000/svg" width="116.839" height="31.397" viewBox="0 0 116.839 31.397"><g transform="translate(-86.353 -422.792)"><g transform="translate(86.353 422.792)"><path d="M109.452,427.137a32.371,32.371,0,0,0-3.264-2.751l-3.121,1.889s.876.671,2.1,1.769l-.134.022-9.138.508,2.979-4.762L94.6,422.8l-4.286,6.085-3.963.22.553,2.4,20.269-1.264h.3c1.563,1.551,2.4,2.406,2.4,2.406l2.771-2.151A44.062,44.062,0,0,0,109.452,427.137Z" transform="translate(-86.353 -422.798)" fill="#c8d2d2"/><path d="M323.4,463.474h6.757v-1.8h-6.747l.008-1.437-4.943.249v1.189H311.7v1.8h6.77V464.9H308.49v2.2H333.37v-2.2h-9.979Z" transform="translate(-247.547 -449.965)" fill="#c8d2d2"/><path d="M313.134,426h16.832v2.7h3.789v-4.511H323.483v-1.393h-3.866v1.393H309.345V428.7h3.789Z" transform="translate(-248.167 -422.792)" fill="#c8d2d2"/><path d="M111.694,458.689h-14.3v7.961h5.129v-1.118h9.172v1.118h5.129v-7.961h-5.129Zm0,4.674h-9.172v-2.706h9.172Z" transform="translate(-94.364 -448.841)" fill="#c8d2d2"/><path d="M209.258,437.133V424.385H204.9v4.247H198.46v2.425H204.9v6.689l-6.458.908.363,3.1,12.384-2.423-.3-2.423Z" transform="translate(-167.688 -423.948)" fill="#c8d2d2"/><path d="M257.874,435.493a7.414,7.414,0,0,1-.138,1.793c-.132.809-.838,1-1.533,1.02a1.532,1.532,0,0,1-1.349-.693,8.212,8.212,0,0,1-.259-2.5v-4.058h5.67v-2.425H254.6v-4.247h-4.324v11.977a10.288,10.288,0,0,0,.269,2.438c.265.707,1.159,2.517,4.913,2.739,3.507.207,4.807-1.422,4.807-1.422a4.219,4.219,0,0,0,.854-2.238,14.49,14.49,0,0,0,.088-1.8Z" transform="translate(-205.3 -423.948)" fill="#c8d2d2"/><path d="M312.337,443.6l.417,1.632,16.828-.721c1.08.839,2.429,1.857,2.429,1.857l2.3-1.626s-1.717-1.363-2.824-2.212c-.587-.45-1.316-.95-1.839-1.3h1.37v-1.639h-14.6v1.639h1.571l-1.189,2.218Zm9.505-2.37h6.36c-.67.427-1.534,1-1.534,1l1.081.843-6.925.235Z" transform="translate(-250.338 -434.98)" fill="#c8d2d2"/><path d="M442.251,426.372v0h-10a15,15,0,0,0,1.356-2.579l-2.9-.582a27.534,27.534,0,0,1-1.885,3.307,13.415,13.415,0,0,1-2.126,2.364V427.3h-2.157v-3.876H421V427.3h-.937c.113-.83.209-1.647.209-1.647l-2.466-.577a20.413,20.413,0,0,1-.673,2.659c-.513,1.633-1.089,3.171-1.089,3.171l2.947.993s.442-1.511.726-2.674H421v4.33c-2.127.487-4.411.821-4.411.821l.865,2.36s2.009-.335,3.547-.715v4.79h3.534v-5.857c1.1-.351,2.016-.652,2.016-.652l-.224-2.466s-.753.305-1.792.672v-3.282h1.759c-.414.353-.7.564-.7.564l2.437,1.363s1.353-1.286,2.727-2.862H432.3a20.775,20.775,0,0,1-2.082,3.055,29.981,29.981,0,0,1-3.695,3.556l1.806,1.389a25.381,25.381,0,0,0,3.973-3.75,28.908,28.908,0,0,0,2.756-4.25h.79a16.985,16.985,0,0,1-2.478,4.626,20.219,20.219,0,0,1-4.187,4.314c-1.142.846-1.9,1.311-1.9,1.311l2.327,1.523a22.665,22.665,0,0,0,5.733-5.348,29.354,29.354,0,0,0,3.6-6.358c-.067.809-.17,1.825-.329,2.969a39.864,39.864,0,0,1-.71,4.057c-.228.906-.549,2.8-2.034,2.666a15.7,15.7,0,0,1-1.973-.266v2.244a20.885,20.885,0,0,0,3.562.488c2.391.171,2.727-.927,3.215-2.171a30.344,30.344,0,0,0,1.274-5.441,54.384,54.384,0,0,0,.489-6.539Z" transform="translate(-325.593 -423.093)" fill="#c8d2d2"/></g><g transform="translate(89.353 445.397)"><rect width="2.245" height="6.988" transform="translate(0 0)" fill="#c8d2d2"/><path d="M110.669,507.136l-2.162.168v1.4h-.661v.9h.661v2.34c0,1.112.493,1.752,1.784,1.752a2.918,2.918,0,0,0,1.4-.3l-.032-.913a1.716,1.716,0,0,1-.525.073c-.346,0-.461-.168-.461-.493V509.6h1.018v-.9h-1.018Z" transform="translate(-104.95 -506.601)" fill="#c8d2d2"/><path d="M128.453,514.54c0-1.27-.818-2.088-2.329-2.088a2.507,2.507,0,0,0-2.749,2.55c0,1.469.755,2.549,2.717,2.549,1.353,0,2.319-.388,2.319-1.406a2.717,2.717,0,0,0-.021-.283l-1.647-.157a1.3,1.3,0,0,1,.021.2.417.417,0,0,1-.462.472c-.5,0-.734-.483-.745-1.091h2.812A4.912,4.912,0,0,0,128.453,514.54Zm-1.826.052h-1.07c.031-.441.231-.9.661-.9.315,0,.441.22.441.556A2.1,2.1,0,0,1,126.627,514.593Z" transform="translate(-116.218 -510.459)" fill="#c8d2d2"/><path d="M151.965,512.452c-.955,0-1.49.84-1.626,1.8-.116-1.164-.692-1.8-1.742-1.8-.986,0-1.553.619-1.815,1.8l-.42-1.7h-1.532v4.889h2.162v-1.469c0-1.144.2-1.889.755-1.889.315,0,.451.2.451.525v2.833h2.161v-1.469c0-1.144.2-1.889.756-1.889.315,0,.451.2.451.525v2.833h2.161v-2.7C153.728,513.292,153.161,512.452,151.965,512.452Z" transform="translate(-131.788 -510.459)" fill="#c8d2d2"/><path d="M182.576,513.627a3.042,3.042,0,0,1,1.5.5l.535-1a3.812,3.812,0,0,0-2.287-.682c-1.458,0-2.266.6-2.266,1.511,0,.776.283,1.28,1.868,1.742.472.137.577.263.577.409,0,.168-.147.262-.483.262a2.851,2.851,0,0,1-1.626-.609l-.567,1a4.28,4.28,0,0,0,2.518.787c1.469,0,2.256-.692,2.256-1.616,0-.86-.5-1.311-1.584-1.605-.755-.21-.86-.273-.86-.472C182.157,513.711,182.3,513.627,182.576,513.627Z" transform="translate(-157.183 -510.459)" fill="#c8d2d2"/><path d="M211.773,505.186h-3.337v6.988h3.337a3.5,3.5,0,1,0,0-6.988Zm-.273,5.424h-.819v-3.861h.819c1.123,0,1.647.829,1.647,1.931S212.623,510.61,211.5,510.61Z" transform="translate(-177.943 -505.186)" fill="#c8d2d2"/><rect width="2.161" height="4.889" transform="translate(38.248 2.098)" fill="#c8d2d2"/><rect width="2.147" height="1.595" transform="translate(38.731 0.057)" fill="#c8d2d2"/><path d="M250.083,513.627a3.042,3.042,0,0,1,1.5.5l.536-1a3.813,3.813,0,0,0-2.288-.682c-1.458,0-2.266.6-2.266,1.511,0,.776.283,1.28,1.868,1.742.472.137.577.263.577.409,0,.168-.147.262-.483.262a2.852,2.852,0,0,1-1.627-.609l-.567,1a4.28,4.28,0,0,0,2.518.787c1.469,0,2.256-.692,2.256-1.616,0-.86-.5-1.311-1.584-1.605-.755-.21-.86-.273-.86-.472C249.664,513.711,249.81,513.627,250.083,513.627Z" transform="translate(-206.169 -510.459)" fill="#c8d2d2"/><path d="M271.256,512.452a1.873,1.873,0,0,0-1.815,1.479l-.483-1.375H267.72v6.61h2.162V516.45a1.654,1.654,0,0,0,1.542,1.1c1.343,0,1.962-1.217,1.962-2.549C273.386,513.732,272.8,512.452,271.256,512.452Zm-.7,3.819c-.43,0-.671-.461-.671-1.269,0-.766.241-1.27.661-1.27s.682.441.682,1.27S270.994,516.271,270.553,516.271Z" transform="translate(-220.962 -510.459)" fill="#c8d2d2"/><rect width="2.161" height="6.988" transform="translate(53.211 0)" fill="#c8d2d2"/><path d="M307.779,516.114v-1.647c0-1.343-.829-2.015-2.518-2.015s-2.634.619-2.634,1.542a1.882,1.882,0,0,0,.22.829l1.931-.451a.925.925,0,0,1-.063-.315.387.387,0,0,1,.441-.419c.3,0,.461.21.461.588v.871a9.127,9.127,0,0,0-1.143-.084c-1.165,0-1.909.346-1.909,1.217a1.308,1.308,0,0,0,1.479,1.322,1.639,1.639,0,0,0,1.658-.9c.105.451.441.9,1.427.9a1.894,1.894,0,0,0,1.238-.367v-.734a.661.661,0,0,1-.263.042C307.842,516.492,307.779,516.355,307.779,516.114Zm-2.151-.346c0,.378-.115.787-.577.787a.329.329,0,0,1-.367-.336c0-.367.346-.462.944-.546Z" transform="translate(-246.248 -510.459)" fill="#c8d2d2"/><path d="M326.354,516.139l-.934-3.305h-2.088l1.994,4.942c-.147.462-.325.7-.881.7a2.043,2.043,0,0,1-.451-.052l-.042.892a2.881,2.881,0,0,0,1.227.21c1.028,0,1.668-.431,2.193-1.815.577-1.532,1.784-4.879,1.784-4.879H327.2Z" transform="translate(-261.317 -510.736)" fill="#c8d2d2"/><rect width="2.161" height="4.889" transform="translate(70.567 2.098)" fill="#c8d2d2"/><rect width="2.147" height="1.595" transform="translate(70.84 0.057)" fill="#c8d2d2"/><path d="M370.357,512.452c-.986,0-1.553.619-1.815,1.8l-.419-1.7H366.59v4.889h2.162v-1.469c0-1.144.2-1.889.755-1.889.315,0,.451.2.451.525v2.833h2.161v-2.7C372.119,513.292,371.553,512.452,370.357,512.452Z" transform="translate(-292.707 -510.459)" fill="#c8d2d2"/><path d="M403.67,505.186H397v1.637h2.214v5.351h2.245v-5.351h2.214Z" transform="translate(-314.772 -505.186)" fill="#c8d2d2"/><path d="M425.5,516.114v-1.647c0-1.343-.829-2.015-2.518-2.015s-2.634.619-2.634,1.542a1.886,1.886,0,0,0,.221.829l1.93-.451a.93.93,0,0,1-.063-.315.387.387,0,0,1,.441-.419c.3,0,.461.21.461.588v.871a9.118,9.118,0,0,0-1.143-.084c-1.165,0-1.91.346-1.91,1.217a1.309,1.309,0,0,0,1.48,1.322,1.639,1.639,0,0,0,1.658-.9c.1.451.441.9,1.427.9a1.893,1.893,0,0,0,1.238-.367v-.734a.659.659,0,0,1-.262.042C425.568,516.492,425.5,516.355,425.5,516.114Zm-2.151-.346c0,.378-.116.787-.577.787a.329.329,0,0,1-.367-.336c0-.367.346-.462.944-.546Z" transform="translate(-331.675 -510.459)" fill="#c8d2d2"/><rect width="2.161" height="4.889" transform="translate(95.1 2.098)" fill="#c8d2d2"/><rect width="2.147" height="1.595" transform="translate(95.214 0.057)" fill="#c8d2d2"/><path d="M459.549,512.452a1.873,1.873,0,0,0-1.815,1.479l-.483-1.375h-1.238v6.61h2.162V516.45a1.654,1.654,0,0,0,1.542,1.1c1.343,0,1.962-1.217,1.962-2.549C461.679,513.732,461.091,512.452,459.549,512.452Zm-.7,3.819c-.43,0-.671-.461-.671-1.269,0-.766.241-1.27.661-1.27s.682.441.682,1.27S459.287,516.271,458.846,516.271Z" transform="translate(-357.597 -510.459)" fill="#c8d2d2"/><path d="M483.581,514.54c0-1.27-.818-2.088-2.329-2.088A2.507,2.507,0,0,0,478.5,515c0,1.469.755,2.549,2.717,2.549,1.354,0,2.319-.388,2.319-1.406a2.794,2.794,0,0,0-.021-.283l-1.647-.157a1.3,1.3,0,0,1,.021.2.417.417,0,0,1-.462.472c-.5,0-.734-.483-.745-1.091H483.5A4.882,4.882,0,0,0,483.581,514.54Zm-1.826.052h-1.07c.031-.441.231-.9.661-.9.315,0,.441.22.441.556A2.106,2.106,0,0,1,481.755,514.593Z" transform="translate(-373.917 -510.459)" fill="#c8d2d2"/><rect width="2.161" height="4.889" transform="translate(110.473 2.098)" fill="#c8d2d2"/><rect width="2.147" height="1.595" transform="translate(110.487 0.057)" fill="#c8d2d2"/></g></g></svg>