<svg xmlns="http://www.w3.org/2000/svg" width="265" height="25.004" viewBox="0 0 265 25.004"><g transform="translate(-296.156 -189.274)"><path d="M328.6,195.368a45.533,45.533,0,0,0-4.585-3.864l-4.383,2.654s1.23.942,2.952,2.485l-.188.03-12.212.679,4.163-6.653-6.124-1.422-6,8.518-6.067.337.777,3.373L325.4,199.73h.415c2.195,2.179,3.364,3.38,3.364,3.38l3.893-3.021A61.962,61.962,0,0,0,328.6,195.368Z" fill="#c8d2d2"/><path d="M403.042,208.488h9.741v-2.767h-9.741v-1.537h-6.434v1.537h-9.741v2.767h9.741v1.525h-14.6V213.1h35.632v-3.091h-14.6Z" fill="#c8d2d2"/><path d="M388.124,194.014h23.4v3.793h5.322V191.47H402.54v-2.2H397.11v2.2H382.8v6.336h5.322Z" fill="#c8d2d2"/><path d="M320.5,203.106H300.891V214.22h7.2v-1.5h12.4v1.5h7.2V203.106h-7.2Zm0,6.564h-12.4v-3.8h12.4Z" fill="#c8d2d2"/><path d="M355.142,207.793v-17.9h-6.124v5.965h-9.041v3.406h9.041v9.4l-9.071,1.276.509,4.348,17.393-3.4-.425-3.4Z" fill="#c8d2d2"/><path d="M370.6,205.488a10.4,10.4,0,0,1-.194,2.519c-.186,1.136-1.177,1.4-2.153,1.433a2.15,2.15,0,0,1-1.894-.973,11.514,11.514,0,0,1-.364-3.509v-5.7h7.963v-3.406h-7.963v-5.965h-6.074v16.821a14.468,14.468,0,0,0,.378,3.425c.372.993,1.627,3.535,6.9,3.846,4.925.291,6.752-2,6.752-2a5.927,5.927,0,0,0,1.2-3.144,20.349,20.349,0,0,0,.125-2.523Z" fill="#c8d2d2"/><path d="M383.835,201.617l.587,2.532,24.1-1.259c1.395,1.079,2.986,2.279,2.986,2.279l3.092-2.186s-2.308-1.832-3.8-2.974c-.775-.594-1.732-1.252-2.432-1.721h1.7v-2.3h-20.5v2.3h2.207l-1.671,3.116Zm13.351-3.329h9.158c-.894.571-2.021,1.323-2.021,1.323l1.611,1.255-10.179.346Z" fill="#c8d2d2"/><path d="M460.605,193.872H446.554a21.086,21.086,0,0,0,1.905-3.621l-4.074-.817a38.763,38.763,0,0,1-2.648,4.644,18.823,18.823,0,0,1-2.986,3.32v-2.212h-3.03v-5.445h-4.964v5.445h-1.315c.158-1.166.293-2.314.293-2.314l-3.464-.809a28.677,28.677,0,0,1-.945,3.734c-.72,2.294-1.529,4.454-1.529,4.454l4.139,1.395s.621-2.122,1.019-3.756h1.8v6.081c-2.987.684-6.2,1.154-6.2,1.154l1.215,3.314s2.821-.47,4.981-1v6.727h4.964v-8.227c1.54-.492,2.833-.915,2.833-.915l-.315-3.464s-1.057.428-2.518.944v-4.61h2.471c-.581.495-.977.792-.977.792l3.422,1.914s1.9-1.8,3.83-4.02h2.158a29.244,29.244,0,0,1-2.924,4.292,42.108,42.108,0,0,1-5.189,4.994l2.536,1.951a35.675,35.675,0,0,0,5.579-5.268,40.615,40.615,0,0,0,3.87-5.969h1.109a23.823,23.823,0,0,1-3.481,6.5,28.4,28.4,0,0,1-5.881,6.06c-1.6,1.188-2.673,1.841-2.673,1.841l3.267,2.139a31.818,31.818,0,0,0,8.052-7.512,41.242,41.242,0,0,0,5.062-8.93c-.094,1.136-.239,2.563-.462,4.17a56.242,56.242,0,0,1-1,5.7c-.321,1.273-.771,3.934-2.858,3.745a21.978,21.978,0,0,1-2.771-.373v3.152a29.384,29.384,0,0,0,5,.685c3.359.24,3.83-1.3,4.515-3.05a42.555,42.555,0,0,0,1.789-7.642,76.406,76.406,0,0,0,.687-9.185l-.253.006Z" fill="#c8d2d2"/><rect width="3.051" height="9.496" transform="translate(468.984 189.716)" fill="#c8d2d2"/><path d="M473.818,196.973c0,1.512.67,2.381,2.424,2.381a3.962,3.962,0,0,0,1.9-.413L478.1,197.7a2.307,2.307,0,0,1-.713.1c-.47,0-.627-.228-.627-.67v-3.336h1.383v-1.227h-1.383v-2.124l-2.937.228v1.9h-.9v1.227h.9Z" fill="#c8d2d2"/><path d="M485.551,197.444a3.842,3.842,0,0,0-.028-.385l-2.238-.214a1.765,1.765,0,0,1,.028.271.567.567,0,0,1-.628.641c-.684,0-1-.656-1.012-1.482h3.822a6.814,6.814,0,0,0,.114-1.013c0-1.725-1.113-2.837-3.166-2.837a3.406,3.406,0,0,0-3.735,3.465c0,2,1.026,3.464,3.692,3.464C484.24,199.354,485.551,198.827,485.551,197.444Zm-2.98-3.337c.428,0,.6.3.6.756a2.949,2.949,0,0,1-.043.471h-1.455C481.716,194.735,481.987,194.107,482.571,194.107Z" fill="#c8d2d2"/><path d="M489.643,197.216c0-1.555.271-2.567,1.027-2.567.427,0,.613.271.613.713v3.85h2.937v-2c0-1.555.271-2.567,1.026-2.567.428,0,.614.271.614.713v3.85H498.8v-3.665c0-1.981-.77-3.122-2.395-3.122-1.3,0-2.025,1.141-2.21,2.452-.157-1.582-.942-2.452-2.367-2.452-1.341,0-2.111.841-2.467,2.452l-.57-2.31h-2.082v6.645h2.937Z" fill="#c8d2d2"/><path d="M503.486,194.022a4.143,4.143,0,0,1,2.04.684l.727-1.354a5.179,5.179,0,0,0-3.109-.927c-1.982,0-3.079.813-3.079,2.053,0,1.055.385,1.74,2.538,2.367.641.185.784.356.784.556,0,.228-.2.356-.656.356a3.87,3.87,0,0,1-2.21-.827l-.77,1.355a5.818,5.818,0,0,0,3.422,1.069c2,0,3.065-.941,3.065-2.2,0-1.17-.684-1.783-2.152-2.182-1.027-.285-1.17-.371-1.17-.642C502.916,194.136,503.116,194.022,503.486,194.022Z" fill="#c8d2d2"/><path d="M519.911,194.464c0-2.723-1.825-4.748-4.962-4.748h-4.534v9.5h4.534C518.086,199.212,519.911,197.187,519.911,194.464Zm-5.333,2.623h-1.112V191.84h1.112c1.526,0,2.239,1.127,2.239,2.624S516.1,197.087,514.578,197.087Z" fill="#c8d2d2"/><rect width="2.937" height="2.181" transform="translate(520.951 189.716)" fill="#c8d2d2"/><rect width="2.937" height="6.644" transform="translate(520.951 192.567)" fill="#c8d2d2"/><path d="M528.65,194.022a4.139,4.139,0,0,1,2.039.684l.727-1.354a5.176,5.176,0,0,0-3.108-.927c-1.982,0-3.08.813-3.08,2.053,0,1.055.385,1.74,2.538,2.367.642.185.784.356.784.556,0,.228-.2.356-.656.356a3.872,3.872,0,0,1-2.21-.827l-.77,1.355a5.818,5.818,0,0,0,3.422,1.069c2,0,3.066-.941,3.066-2.2,0-1.17-.684-1.783-2.153-2.182-1.027-.285-1.169-.371-1.169-.642C528.08,194.136,528.279,194.022,528.65,194.022Z" fill="#c8d2d2"/><path d="M537.318,192.425a2.546,2.546,0,0,0-2.466,2.01l-.656-1.868h-1.683v8.983h2.937v-3.693a2.249,2.249,0,0,0,2.1,1.5c1.825,0,2.667-1.654,2.667-3.464C540.213,194.164,539.414,192.425,537.318,192.425Zm-.955,5.19c-.585,0-.913-.628-.913-1.725,0-1.041.328-1.726.9-1.726s.926.6.926,1.726S536.962,197.615,536.363,197.615Z" fill="#c8d2d2"/><rect width="2.937" height="9.496" transform="translate(541.281 189.716)" fill="#c8d2d2"/><path d="M552.588,197.4v-2.239c0-1.825-1.127-2.737-3.422-2.737-2.31,0-3.579.841-3.579,2.1a2.568,2.568,0,0,0,.3,1.126l2.624-.613a1.265,1.265,0,0,1-.086-.428.526.526,0,0,1,.6-.57c.414,0,.627.285.627.8v1.184a12.506,12.506,0,0,0-1.554-.114c-1.583,0-2.6.47-2.6,1.654a1.778,1.778,0,0,0,2.011,1.8,2.225,2.225,0,0,0,2.252-1.226c.143.613.6,1.226,1.94,1.226a2.571,2.571,0,0,0,1.682-.5v-1a.889.889,0,0,1-.357.057C552.673,197.914,552.588,197.729,552.588,197.4Zm-2.923-.471c0,.514-.157,1.07-.785,1.07a.447.447,0,0,1-.5-.456c0-.5.471-.628,1.284-.742Z" fill="#c8d2d2"/><path d="M558.5,192.567l-1.155,4.492-1.269-4.492h-2.837l2.709,6.716c-.2.627-.442.955-1.2.955a2.77,2.77,0,0,1-.613-.071l-.057,1.212a3.916,3.916,0,0,0,1.668.285c1.4,0,2.268-.585,2.98-2.467.784-2.081,2.424-6.63,2.424-6.63Z" fill="#c8d2d2"/><rect width="2.937" height="2.181" transform="translate(468.885 202.432)" fill="#c8d2d2"/><rect width="2.937" height="6.644" transform="translate(468.885 205.283)" fill="#c8d2d2"/><path d="M478.509,205.141c-1.341,0-2.111.841-2.467,2.452l-.571-2.31H473.39v6.645h2.937v-2c0-1.554.271-2.566,1.027-2.566.427,0,.613.271.613.713v3.85H480.9v-3.665C480.9,206.281,480.134,205.141,478.509,205.141Z" fill="#c8d2d2"/><path d="M493.792,202.432h-9.068v2.224h3.009v7.272h3.051v-7.272h3.009Z" fill="#c8d2d2"/><path d="M500.493,210.117v-2.239c0-1.825-1.127-2.737-3.422-2.737-2.31,0-3.579.841-3.579,2.1a2.557,2.557,0,0,0,.3,1.126l2.623-.613a1.266,1.266,0,0,1-.085-.428.525.525,0,0,1,.6-.57c.414,0,.628.285.628.8v1.184A12.343,12.343,0,0,0,496,208.62c-1.583,0-2.6.47-2.6,1.654a1.778,1.778,0,0,0,2.01,1.8,2.228,2.228,0,0,0,2.253-1.226c.142.613.6,1.226,1.939,1.226a2.572,2.572,0,0,0,1.683-.5v-1a.9.9,0,0,1-.357.057C500.578,210.63,500.493,210.445,500.493,210.117Zm-2.923-.471c0,.514-.157,1.07-.784,1.07a.447.447,0,0,1-.5-.457c0-.5.47-.627,1.283-.741Z" fill="#c8d2d2"/><rect width="2.937" height="6.644" transform="translate(502.218 205.283)" fill="#c8d2d2"/><rect width="2.937" height="2.181" transform="translate(502.218 202.432)" fill="#c8d2d2"/><path d="M511.528,205.141a2.546,2.546,0,0,0-2.467,2.01l-.656-1.868h-1.682v8.983h2.937v-3.693a2.248,2.248,0,0,0,2.1,1.5c1.825,0,2.666-1.654,2.666-3.465C514.422,206.88,513.624,205.141,511.528,205.141Zm-.956,5.19c-.584,0-.912-.628-.912-1.726,0-1.041.328-1.725.9-1.725s.927.6.927,1.725S511.171,210.331,510.572,210.331Z" fill="#c8d2d2"/><path d="M522.007,207.978c0-1.725-1.113-2.837-3.166-2.837a3.406,3.406,0,0,0-3.735,3.464c0,2,1.026,3.465,3.692,3.465,1.84,0,3.152-.527,3.152-1.91a3.833,3.833,0,0,0-.029-.385l-2.238-.214a1.761,1.761,0,0,1,.028.271.567.567,0,0,1-.627.641c-.684,0-1-.656-1.013-1.482h3.822A6.683,6.683,0,0,0,522.007,207.978Zm-2.481.071h-1.455c.043-.6.314-1.226.9-1.226.427,0,.6.3.6.756A2.937,2.937,0,0,1,519.526,208.049Z" fill="#c8d2d2"/><rect width="2.937" height="2.181" transform="translate(523.104 202.432)" fill="#c8d2d2"/><rect width="2.937" height="6.644" transform="translate(523.104 205.283)" fill="#c8d2d2"/></g></svg>