<svg xmlns="http://www.w3.org/2000/svg" width="265.624" height="25.014" viewBox="0 0 265.624 25.014"><g transform="translate(-297.715 -172.915)"><path d="M330.158,179.01a45.355,45.355,0,0,0-4.585-3.864L321.19,177.8s1.23.942,2.952,2.485l-.188.03-12.834.714,4.184-6.688-6-1.422-6.02,8.546-5.566.31.777,3.372,28.468-1.775h.415c2.2,2.18,3.364,3.38,3.364,3.38l3.893-3.021A61.841,61.841,0,0,0,330.158,179.01Z" fill="#c8d2d2"/><path d="M404.251,191.889h9.49v-2.527h-9.476l.011-2.019-6.943.349v1.67h-9.508v2.527h9.508v2.005H383.311v3.091h34.943v-3.091H404.24Z" fill="#c8d2d2"/><path d="M388.962,177.415H412.6v3.793h5.322v-6.336H403.5v-1.956h-5.429v1.956H383.641v6.336h5.322Z" fill="#c8d2d2"/><path d="M461.563,177.514H447.512a21.112,21.112,0,0,0,1.9-3.622l-4.074-.817a38.76,38.76,0,0,1-2.648,4.644,18.788,18.788,0,0,1-2.986,3.32v-2.212h-3.03v-5.444h-4.964v5.444H430.4c.158-1.165.293-2.313.293-2.313l-3.464-.81a28.632,28.632,0,0,1-.945,3.734c-.719,2.295-1.529,4.454-1.529,4.454l4.139,1.4s.621-2.122,1.019-3.756h1.8v6.082c-2.987.683-6.2,1.153-6.2,1.153l1.214,3.315s2.821-.471,4.981-1V197.8h4.964v-8.227c1.54-.492,2.833-.915,2.833-.915L439.2,185.2s-1.057.429-2.518.944v-4.61h2.471c-.581.5-.977.792-.977.792l3.422,1.915s1.9-1.806,3.83-4.02h2.158a29.2,29.2,0,0,1-2.924,4.291,42.11,42.11,0,0,1-5.189,4.994l2.536,1.951a35.7,35.7,0,0,0,5.579-5.267,40.662,40.662,0,0,0,3.87-5.969h1.109a23.835,23.835,0,0,1-3.481,6.5,28.376,28.376,0,0,1-5.881,6.06c-1.6,1.188-2.673,1.842-2.673,1.842l3.267,2.138a31.818,31.818,0,0,0,8.052-7.512,41.242,41.242,0,0,0,5.062-8.93c-.094,1.136-.239,2.564-.462,4.17a56.319,56.319,0,0,1-1,5.7c-.321,1.273-.771,3.933-2.858,3.745a22.231,22.231,0,0,1-2.771-.373v3.151a29.3,29.3,0,0,0,5,.686c3.359.239,3.83-1.3,4.516-3.051a42.628,42.628,0,0,0,1.788-7.642,76.382,76.382,0,0,0,.687-9.184l-.253.006Z" fill="#c8d2d2"/><path d="M322.055,186.747H301.969v11.182h7.2v-1.57h12.882v1.57h7.2V186.747h-7.2Zm-12.882,6.564v-3.8h12.882v3.8Z" fill="#c8d2d2"/><path d="M356.1,191.434v-17.9h-6.124v5.965h-9.041V182.9h9.041v9.4l-9.071,1.276.509,4.348,17.393-3.4-.425-3.4Z" fill="#c8d2d2"/><path d="M371.556,189.13a10.4,10.4,0,0,1-.194,2.519c-.185,1.136-1.177,1.4-2.153,1.433a2.151,2.151,0,0,1-1.894-.974,11.512,11.512,0,0,1-.364-3.509v-5.7h7.963v-3.406h-7.963v-5.965h-6.073V190.35a14.451,14.451,0,0,0,.377,3.425c.373.993,1.628,3.535,6.9,3.846,4.925.291,6.752-2,6.752-2a5.927,5.927,0,0,0,1.2-3.144,20.407,20.407,0,0,0,.124-2.523Z" fill="#c8d2d2"/><path d="M384.793,185.018l.587,2.292,23.635-1.013c1.516,1.179,3.411,2.609,3.411,2.609l3.231-2.284s-2.412-1.914-3.966-3.107c-.824-.633-1.848-1.335-2.583-1.826h1.925v-2.3h-20.5v2.3h2.207l-1.67,3.116Zm13.351-3.329h8.932c-.941.6-2.155,1.41-2.155,1.41l1.518,1.184-9.726.33Z" fill="#c8d2d2"/><rect width="3.051" height="9.496" transform="translate(471.167 173.357)" fill="#c8d2d2"/><path d="M476,180.614c0,1.512.67,2.382,2.424,2.382a3.964,3.964,0,0,0,1.9-.414l-.043-1.24a2.342,2.342,0,0,1-.713.1c-.471,0-.627-.229-.627-.671v-3.336h1.383v-1.226h-1.383v-2.125l-2.938.228v1.9h-.9v1.226h.9Z" fill="#c8d2d2"/><path d="M487.734,181.085a3.833,3.833,0,0,0-.028-.385l-2.239-.214a1.782,1.782,0,0,1,.028.271.567.567,0,0,1-.627.642c-.684,0-1-.656-1.012-1.483h3.821a6.684,6.684,0,0,0,.114-1.012c0-1.726-1.112-2.838-3.165-2.838a3.407,3.407,0,0,0-3.736,3.465c0,2,1.027,3.465,3.693,3.465C486.422,183,487.734,182.468,487.734,181.085Zm-2.98-3.336c.428,0,.6.3.6.755a2.831,2.831,0,0,1-.043.471h-1.454C483.9,178.376,484.17,177.749,484.754,177.749Z" fill="#c8d2d2"/><path d="M491.825,180.857c0-1.554.271-2.567,1.027-2.567.428,0,.613.271.613.713v3.85H496.4v-2c0-1.554.271-2.567,1.027-2.567.428,0,.613.271.613.713v3.85h2.937v-3.664c0-1.982-.77-3.123-2.395-3.123-1.3,0-2.025,1.141-2.21,2.452-.157-1.582-.941-2.452-2.367-2.452-1.34,0-2.11.841-2.466,2.452l-.571-2.309h-2.082v6.644h2.937Z" fill="#c8d2d2"/><path d="M505.669,177.663a4.139,4.139,0,0,1,2.039.684l.727-1.354a5.176,5.176,0,0,0-3.108-.927c-1.982,0-3.08.813-3.08,2.053,0,1.055.385,1.74,2.538,2.367.642.185.784.357.784.556,0,.228-.2.357-.656.357a3.88,3.88,0,0,1-2.21-.827l-.769,1.354a5.815,5.815,0,0,0,3.422,1.07c2,0,3.065-.941,3.065-2.2,0-1.169-.684-1.782-2.153-2.182-1.026-.285-1.169-.37-1.169-.641C505.1,177.777,505.3,177.663,505.669,177.663Z" fill="#c8d2d2"/><path d="M522.094,178.1c0-2.723-1.825-4.748-4.962-4.748H512.6v9.5h4.535C520.269,182.853,522.094,180.828,522.094,178.1Zm-5.333,2.624h-1.112v-5.247h1.112c1.526,0,2.238,1.126,2.238,2.623S518.287,180.729,516.761,180.729Z" fill="#c8d2d2"/><rect width="2.937" height="6.644" transform="translate(523.133 176.209)" fill="#c8d2d2"/><rect width="2.937" height="2.181" transform="translate(523.133 173.357)" fill="#c8d2d2"/><path d="M530.832,177.663a4.143,4.143,0,0,1,2.04.684l.727-1.354a5.179,5.179,0,0,0-3.109-.927c-1.982,0-3.079.813-3.079,2.053,0,1.055.385,1.74,2.538,2.367.641.185.784.357.784.556,0,.228-.2.357-.656.357a3.877,3.877,0,0,1-2.21-.827l-.77,1.354a5.818,5.818,0,0,0,3.422,1.07c2,0,3.065-.941,3.065-2.2,0-1.169-.684-1.782-2.152-2.182-1.027-.285-1.17-.37-1.17-.641C530.262,177.777,530.462,177.663,530.832,177.663Z" fill="#c8d2d2"/><path d="M539.5,176.066a2.546,2.546,0,0,0-2.467,2.011l-.656-1.868H534.7v8.982h2.937V181.5a2.251,2.251,0,0,0,2.1,1.5c1.825,0,2.666-1.654,2.666-3.465C542.4,177.806,541.6,176.066,539.5,176.066Zm-.956,5.19c-.584,0-.912-.627-.912-1.725,0-1.041.328-1.725.9-1.725s.926.6.926,1.725S539.145,181.256,538.545,181.256Z" fill="#c8d2d2"/><rect width="2.937" height="9.496" transform="translate(543.464 173.357)" fill="#c8d2d2"/><path d="M554.77,181.042V178.8c0-1.825-1.126-2.738-3.422-2.738s-3.578.841-3.578,2.1a2.562,2.562,0,0,0,.3,1.127l2.623-.614a1.285,1.285,0,0,1-.085-.427.527.527,0,0,1,.6-.571c.413,0,.627.286.627.8v1.183a12.519,12.519,0,0,0-1.554-.114c-1.583,0-2.595.471-2.595,1.654a1.778,1.778,0,0,0,2.01,1.8,2.227,2.227,0,0,0,2.253-1.226c.143.613.6,1.226,1.939,1.226a2.578,2.578,0,0,0,1.683-.5v-1a.907.907,0,0,1-.357.057C554.856,181.556,554.77,181.37,554.77,181.042Zm-2.923-.47c0,.513-.157,1.069-.784,1.069a.447.447,0,0,1-.5-.456c0-.5.47-.628,1.283-.742Z" fill="#c8d2d2"/><path d="M560.687,176.209l-1.155,4.491-1.269-4.491h-2.837l2.709,6.715c-.2.628-.442.956-1.2.956a2.769,2.769,0,0,1-.613-.072l-.057,1.212a3.915,3.915,0,0,0,1.668.285c1.4,0,2.267-.584,2.98-2.466.784-2.082,2.424-6.63,2.424-6.63Z" fill="#c8d2d2"/><rect width="2.937" height="6.644" transform="translate(471.067 188.925)" fill="#c8d2d2"/><rect width="2.937" height="2.181" transform="translate(471.067 186.073)" fill="#c8d2d2"/><path d="M480.691,188.782c-1.34,0-2.11.841-2.466,2.452l-.571-2.309h-2.082v6.644h2.937v-2c0-1.554.271-2.567,1.027-2.567.428,0,.613.271.613.713v3.85h2.937V191.9C483.086,189.923,482.316,188.782,480.691,188.782Z" fill="#c8d2d2"/><path d="M495.975,186.073h-9.068V188.3h3.008v7.272h3.051V188.3h3.008Z" fill="#c8d2d2"/><path d="M502.676,193.758V191.52c0-1.825-1.127-2.738-3.422-2.738s-3.579.841-3.579,2.1a2.568,2.568,0,0,0,.3,1.126l2.624-.613a1.265,1.265,0,0,1-.086-.428.527.527,0,0,1,.6-.57c.414,0,.627.286.627.8v1.183a12.519,12.519,0,0,0-1.554-.114c-1.583,0-2.6.471-2.6,1.654a1.779,1.779,0,0,0,2.011,1.8,2.224,2.224,0,0,0,2.252-1.227c.143.614.6,1.227,1.94,1.227a2.577,2.577,0,0,0,1.682-.5v-1a.889.889,0,0,1-.357.057C502.761,194.271,502.676,194.086,502.676,193.758Zm-2.923-.471c0,.514-.157,1.07-.785,1.07a.447.447,0,0,1-.5-.456c0-.5.471-.628,1.284-.742Z" fill="#c8d2d2"/><rect width="2.937" height="2.181" transform="translate(504.4 186.073)" fill="#c8d2d2"/><rect width="2.937" height="6.644" transform="translate(504.4 188.925)" fill="#c8d2d2"/><path d="M513.71,188.782a2.545,2.545,0,0,0-2.466,2.011l-.656-1.868H508.9v8.982h2.937v-3.693a2.25,2.25,0,0,0,2.1,1.5c1.825,0,2.667-1.654,2.667-3.465C516.6,190.522,515.806,188.782,513.71,188.782Zm-.955,5.19c-.585,0-.913-.627-.913-1.725,0-1.041.328-1.725.9-1.725s.926.6.926,1.725S513.354,193.972,512.755,193.972Z" fill="#c8d2d2"/><path d="M524.189,191.619c0-1.725-1.112-2.837-3.165-2.837a3.407,3.407,0,0,0-3.736,3.465c0,2,1.027,3.465,3.693,3.465,1.839,0,3.151-.528,3.151-1.911a3.842,3.842,0,0,0-.028-.385l-2.239-.214a1.661,1.661,0,0,1,.029.271.568.568,0,0,1-.628.642c-.684,0-1-.656-1.012-1.483h3.821A6.683,6.683,0,0,0,524.189,191.619Zm-2.481.072h-1.454c.043-.6.314-1.227.9-1.227.428,0,.6.3.6.756A2.83,2.83,0,0,1,521.708,191.691Z" fill="#c8d2d2"/><rect width="2.937" height="2.181" transform="translate(525.287 186.073)" fill="#c8d2d2"/><rect width="2.937" height="6.644" transform="translate(525.287 188.925)" fill="#c8d2d2"/></g></svg>