<svg xmlns="http://www.w3.org/2000/svg" width="116.264" height="39.444" viewBox="0 0 116.264 39.444"><g transform="translate(-88.008 -395.372)"><g transform="translate(89.381 425.936)"><rect width="2.268" height="7.057" fill="#bac5c5"/><path d="M96.454,435.862l-2.183.17v1.409H93.6v.912h.668v2.362c0,1.124.5,1.77,1.8,1.77a2.946,2.946,0,0,0,1.41-.307l-.032-.922a1.729,1.729,0,0,1-.529.075c-.35,0-.466-.17-.466-.5v-2.479h1.028v-.912H96.454Z" transform="translate(-90.678 -435.322)" fill="#bac5c5"/><path d="M104.333,439.888c0-1.283-.827-2.109-2.352-2.109a2.532,2.532,0,0,0-2.776,2.575c0,1.483.763,2.575,2.745,2.575,1.367,0,2.341-.392,2.341-1.42a2.759,2.759,0,0,0-.022-.287l-1.663-.159a1.386,1.386,0,0,1,.021.2.421.421,0,0,1-.466.476c-.509,0-.741-.487-.752-1.1h2.839A4.883,4.883,0,0,0,104.333,439.888Zm-1.844.052h-1.081c.031-.445.234-.911.668-.911.318,0,.445.223.445.562A2.1,2.1,0,0,1,102.489,439.941Z" transform="translate(-91.977 -435.766)" fill="#bac5c5"/><path d="M114.148,437.779c-.964,0-1.5.848-1.642,1.823-.116-1.176-.7-1.823-1.759-1.823-1,0-1.568.625-1.833,1.823l-.423-1.717h-1.547v4.938h2.182V441.34c0-1.155.2-1.907.763-1.907.318,0,.456.2.456.53v2.861h2.183V441.34c0-1.155.2-1.907.763-1.907.318,0,.456.2.456.53v2.861h2.182V440.1C115.928,438.627,115.356,437.779,114.148,437.779Z" transform="translate(-93.77 -435.766)" fill="#bac5c5"/><path d="M122.341,438.966a3.075,3.075,0,0,1,1.515.509l.541-1.006a3.85,3.85,0,0,0-2.31-.689c-1.473,0-2.289.6-2.289,1.526,0,.784.287,1.292,1.887,1.758.476.138.582.265.582.413,0,.17-.148.265-.487.265a2.878,2.878,0,0,1-1.642-.615l-.572,1.007a4.324,4.324,0,0,0,2.543.794c1.483,0,2.278-.7,2.278-1.632,0-.869-.509-1.324-1.6-1.621-.763-.212-.869-.276-.869-.477C121.917,439.051,122.065,438.966,122.341,438.966Z" transform="translate(-96.696 -435.766)" fill="#bac5c5"/><path d="M133.253,435.159h-3.37v7.057h3.37a3.532,3.532,0,1,0,0-7.057Zm-.276,5.478h-.827v-3.9h.827c1.134,0,1.664.837,1.664,1.95S134.111,440.637,132.977,440.637Z" transform="translate(-99.088 -435.159)" fill="#bac5c5"/><rect width="2.183" height="4.938" transform="translate(38.627 2.119)" fill="#bac5c5"/><rect width="2.169" height="1.611" transform="translate(39.114 0.058)" fill="#bac5c5"/><path d="M146.689,438.966a3.075,3.075,0,0,1,1.515.509l.541-1.006a3.85,3.85,0,0,0-2.31-.689c-1.473,0-2.289.6-2.289,1.526,0,.784.287,1.292,1.887,1.758.476.138.582.265.582.413,0,.17-.148.265-.487.265a2.88,2.88,0,0,1-1.642-.615l-.572,1.007a4.324,4.324,0,0,0,2.543.794c1.484,0,2.278-.7,2.278-1.632,0-.869-.509-1.324-1.6-1.621-.763-.212-.869-.276-.869-.477C146.265,439.051,146.413,438.966,146.689,438.966Z" transform="translate(-102.34 -435.766)" fill="#bac5c5"/><path d="M154.837,437.779A1.892,1.892,0,0,0,153,439.273l-.488-1.388h-1.25v6.676h2.182v-2.744a1.671,1.671,0,0,0,1.558,1.112c1.356,0,1.981-1.229,1.981-2.575C156.988,439.072,156.394,437.779,154.837,437.779Zm-.71,3.857c-.435,0-.678-.466-.678-1.282,0-.774.244-1.282.668-1.282s.689.445.689,1.282S154.572,441.636,154.127,441.636Z" transform="translate(-104.044 -435.766)" fill="#bac5c5"/><rect width="2.183" height="7.057" transform="translate(53.739)" fill="#bac5c5"/><path d="M169.1,441.477v-1.663c0-1.357-.837-2.035-2.543-2.035s-2.66.625-2.66,1.558a1.9,1.9,0,0,0,.222.837l1.95-.456A.945.945,0,0,1,166,439.4a.392.392,0,0,1,.446-.424c.307,0,.466.212.466.594v.88a9.124,9.124,0,0,0-1.155-.085c-1.176,0-1.928.35-1.928,1.229a1.322,1.322,0,0,0,1.494,1.335,1.655,1.655,0,0,0,1.674-.911c.106.456.445.911,1.441.911a1.912,1.912,0,0,0,1.251-.371v-.741a.669.669,0,0,1-.265.042C169.163,441.859,169.1,441.721,169.1,441.477Zm-2.172-.35c0,.382-.116.8-.582.8a.333.333,0,0,1-.371-.34c0-.37.35-.466.953-.551Z" transform="translate(-106.957 -435.766)" fill="#bac5c5"/><path d="M174.375,441.255l-.943-3.338h-2.109l2.013,4.991c-.148.466-.328.71-.89.71a2.03,2.03,0,0,1-.456-.053l-.043.9a2.918,2.918,0,0,0,1.24.212c1.039,0,1.685-.435,2.215-1.834.582-1.546,1.8-4.927,1.8-4.927h-1.971Z" transform="translate(-108.694 -435.798)" fill="#bac5c5"/><rect width="2.183" height="4.938" transform="translate(71.266 2.119)" fill="#bac5c5"/><rect width="2.169" height="1.611" transform="translate(71.542 0.058)" fill="#bac5c5"/><path d="M190.729,437.779c-1,0-1.568.625-1.833,1.823l-.424-1.717h-1.547v4.938h2.183V441.34c0-1.155.2-1.907.763-1.907.318,0,.456.2.456.53v2.861h2.182V440.1C192.509,438.627,191.937,437.779,190.729,437.779Z" transform="translate(-112.31 -435.766)" fill="#bac5c5"/><path d="M204.631,435.159h-6.739v1.653h2.236v5.4H202.4v-5.4h2.236Z" transform="translate(-114.852 -435.159)" fill="#bac5c5"/><path d="M211.56,441.477v-1.663c0-1.357-.837-2.035-2.544-2.035s-2.66.625-2.66,1.558a1.906,1.906,0,0,0,.223.837l1.95-.456a.945.945,0,0,1-.064-.318.391.391,0,0,1,.446-.424c.307,0,.466.212.466.594v.88a9.123,9.123,0,0,0-1.155-.085c-1.176,0-1.928.35-1.928,1.229a1.321,1.321,0,0,0,1.493,1.335,1.656,1.656,0,0,0,1.675-.911c.106.456.445.911,1.44.911a1.91,1.91,0,0,0,1.251-.371v-.741a.667.667,0,0,1-.265.042C211.624,441.859,211.56,441.721,211.56,441.477Zm-2.172-.35c0,.382-.117.8-.583.8a.332.332,0,0,1-.37-.34c0-.37.35-.466.953-.551Z" transform="translate(-116.8 -435.766)" fill="#bac5c5"/><rect width="2.183" height="4.938" transform="translate(96.043 2.119)" fill="#bac5c5"/><rect width="2.169" height="1.611" transform="translate(96.158 0.058)" fill="#bac5c5"/><path d="M222.749,437.779a1.892,1.892,0,0,0-1.833,1.494l-.487-1.388h-1.251v6.676h2.182v-2.744a1.672,1.672,0,0,0,1.558,1.112c1.356,0,1.981-1.229,1.981-2.575C224.9,439.072,224.307,437.779,222.749,437.779Zm-.71,3.857c-.435,0-.678-.466-.678-1.282,0-.774.244-1.282.668-1.282s.689.445.689,1.282S222.484,441.636,222.039,441.636Z" transform="translate(-119.786 -435.766)" fill="#bac5c5"/><path d="M232.418,439.888c0-1.283-.827-2.109-2.352-2.109a2.532,2.532,0,0,0-2.776,2.575c0,1.483.763,2.575,2.745,2.575,1.367,0,2.341-.392,2.341-1.42a2.761,2.761,0,0,0-.021-.287l-1.663-.159a1.286,1.286,0,0,1,.022.2.421.421,0,0,1-.466.476c-.509,0-.742-.487-.753-1.1h2.84A4.975,4.975,0,0,0,232.418,439.888Zm-1.844.052h-1.081c.032-.445.234-.911.668-.911.318,0,.446.223.446.562A2.1,2.1,0,0,1,230.574,439.941Z" transform="translate(-121.666 -435.766)" fill="#bac5c5"/><rect width="2.183" height="4.938" transform="translate(111.568 2.119)" fill="#bac5c5"/><rect width="2.169" height="1.611" transform="translate(111.582 0.058)" fill="#bac5c5"/></g><path d="M231.44,401.012V401H221.7c.31-.961.6-1.96.862-2.989l-2.991-.6a26.432,26.432,0,0,1-2.738,7.283v-2.213h-2.021v-5.167H211.13v5.167h-1.109c.062-.573.116-1.151.157-1.735l-2.792-.662a34.13,34.13,0,0,1-1.44,7.485l2.911.96a32.769,32.769,0,0,0,.752-3.217h1.521v5.427c-1.384.429-2.772.836-4.171,1.208l.7,3.47q1.766-.535,3.468-1.145v6.815h3.678v-8.247q1.457-.615,2.862-1.288l-.641-2.822c-.738.276-1.479.54-2.221.8v-4.22h1.675c-.34.59-.708,1.188-1.112,1.8l2.513,1.407a17.917,17.917,0,0,0,2.769-4.685H221.7a38.833,38.833,0,0,1-5.57,11.583l2.273,1.406a49.883,49.883,0,0,0,6.5-12.989h.642c-.512,3.329-3.1,9.965-6.834,14.859l2.06,1.311c2.511-2.1,5.607-8.86,7.151-13.569-.09,1.85-.214,3.744-.376,4.914a41.377,41.377,0,0,1-.736,4.207c-.237.94-.569,2.9-2.109,2.765-1.437-.13-1.429-.276-1.429-.276v2.327a9.281,9.281,0,0,0,3.077.506c2.479.177,2.827-.962,3.333-2.252A31.437,31.437,0,0,0,231,412.983c.467-2.985.614-11.971.614-11.971Z" transform="translate(-27.338 -0.451)" fill="#bac5c5"/><g transform="translate(117.252 396.865)"><path d="M152.5,415.069a1.652,1.652,0,0,1,.247,1.025c-.007.854-.652,1.062-1.424,1.089a1.371,1.371,0,0,1-1.3-.741,10.477,10.477,0,0,1-.3-2.981V407.55h6.188v-3.395h-6.188v-6.839H145.2v17.53a12.222,12.222,0,0,0,.34,2.714c.294.785.937,3.111,5.114,3.032,3.858-.074,5.576-1.887,5.825-3.756a4.981,4.981,0,0,0-.663-2.924Z" transform="translate(-130.509 -397.316)" fill="#bac5c5"/><path d="M137.07,414.273V397.316h-4.527v6.839h-5.958v3.4h5.958v7.879l-6.467,1.652.692,3.958,12.521-3.658-.843-3.46Z" transform="translate(-126.076 -397.316)" fill="#bac5c5"/></g><g transform="translate(148.711 396.866)"><path d="M181.878,417.157h6.7V414.61h-6.7v-1.982h8.148v-2.547h-2.737a13.688,13.688,0,0,1-1.967-2.375H187.4v-2.263H171.519v2.263h2.066a11.815,11.815,0,0,1-2.1,2.375h-2.57v2.547h8.148v1.982h-6.7v2.547h6.7v1.907h-10.04v2.829h24.891v-2.829h-10.04Zm-3.872-9.45h2.934a22.528,22.528,0,0,0,1.532,2.375h-6.053A20.9,20.9,0,0,0,178.005,407.706Z" transform="translate(-167.027 -399.2)" fill="#bac5c5"/><path d="M170.877,401.8h17.4v2.873h3.4v-4.022h-.008v-1.68h-9.686v-1.653h-4.81v1.653h-9.686v1.68h-.006v4.022h3.4Z" transform="translate(-167.132 -397.316)" fill="#bac5c5"/></g><g transform="translate(88.008 395.372)"><path d="M110.7,414.133H90.037v2.361h0v8.557h5.092v-1.539h10.488v1.539h5.092v-8.557H110.7Zm-15.575,6.55v-3.72h10.488v3.72Z" transform="translate(-88.478 -399.721)" fill="#bac5c5"/><path d="M108.114,400.258l-3.713,1.9a22.326,22.326,0,0,1,2.556,2.564H94.78a23.19,23.19,0,0,0,5.448-7.33l-3.717-2.019c-1.923,3.895-4.782,6.367-8.5,9.349h0v0h0l.466,3.111h23.4l.374-3.112.009-.005C111.033,403.267,109.565,401.672,108.114,400.258Z" transform="translate(-88.008 -395.372)" fill="#bac5c5"/></g></g></svg>