<svg xmlns="http://www.w3.org/2000/svg" width="100%" height="100%" viewBox="0 0 346.538 36.593">
  <defs>
    <style>
      .cls-1 {
        fill: #dee6c7;
      }
    </style>
  </defs>
  <g id="logo_header_home" transform="translate(-173.704 -271.655)">
    <path id="Path_989" data-name="Path 989" class="cls-1" d="M631.568,274.35v-2.695h-8.057v2.695h-10.5v-.018l-8.56.02c0,.9.011,1.189.02,1.428.008.273.015.471-.015,2.553l-.008.574c-.046,3.19-.068,4.646-.207,7.458-.16,3.21-.4,5.816-.789,8.715-.245,1.809-.466,3.328-1.1,6.407-.232,1.129-.49,2.138-.717,3.028-.143.561-.271,1.062-.369,1.5l8.348,1.9c.084-.37.194-.8.316-1.275.238-.934.536-2.1.808-3.426.686-3.345.929-5,1.2-6.98.426-3.15.682-5.972.855-9.436.108-2.151.148-3.535.181-5.391h34.1v-7.05Z" transform="translate(-126.829)"/>
    <path id="Path_990" data-name="Path 990" class="cls-1" d="M637.54,287.031h-7.554v9.507H618.761v15.947h8.057v-1.4h15.447v1.4h8.057V296.539H637.54v-1.853h13.942v-5.539H637.54Zm-10.722,17.01v-1.964h15.447v1.964Z" transform="translate(-132.016 -4.561)"/>
    <path id="Path_991" data-name="Path 991" class="cls-1" d="M499.512,273.646H471.168v-.011l-8.561.02c0,.82.013,1.277.023,1.709.016.682.029,1.271,0,3.439l-.008.555c-.046,3.2-.067,4.658-.207,7.476-.16,3.205-.4,5.811-.788,8.715-.244,1.809-.466,3.328-1.1,6.408-.231,1.126-.489,2.133-.716,3.022-.143.565-.272,1.068-.371,1.5l8.348,1.893c.084-.371.194-.8.316-1.278.238-.933.535-2.095.807-3.42.528-2.567.793-4.141,1.008-5.628h9.223v10.463h7.131V298.049h9.68l-.008,1.938a1.489,1.489,0,0,1-.3.84,1.232,1.232,0,0,1-.884.364c-.711.043-2,.041-2.709.014-.551-.022-2.67-.025-2.67-.025l1.93,7.144a17.989,17.989,0,0,0,2.342.11c.561,0,1.06.046,1.628.039a22.712,22.712,0,0,0,5.265-.261c1.137-.258,2.464-.387,3.15-3.058.165-.641.2-3.456.226-3.807l.016,2.165.168-29.862h-4.6ZM470.59,292.51c.106-1.112.194-2.243.269-3.43h8.409v3.43Zm.5-8.466c.031-1.037.049-2.056.068-3.348h8.106v3.348Zm14.932-3.348h10l-.014,3.348h-9.987Zm0,11.814v-3.43h9.966l-.015,3.43Z" transform="translate(-84.757 -0.587)"/>
    <path id="Path_992" data-name="Path 992" class="cls-1" d="M543.432,296.76H529.609v18.6h7.554v-1.38h6.27v1.38h8.056v-18.6h-8.056Zm-6.27,11.682v-6.354h6.27v6.354Z" transform="translate(-105.571 -7.447)"/>
    <path id="Path_993" data-name="Path 993" class="cls-1" d="M578.244,296.76H564.331v18.6h7.554v-1.38h6.36v1.38H586.3v-18.6h-8.057Zm-6.36,11.682v-6.354h6.571v6.354Z" transform="translate(-115.871 -7.447)"/>
    <path id="Path_994" data-name="Path 994" class="cls-1" d="M544.809,287.862h21.017v0h5.756V273.593h-5.756v-.012H544.809v.012h-6V287.86h6Zm2.556-5.035v-4.21h15.658v4.21Z" transform="translate(-108.299 -0.571)"/>
    <path id="Path_995" data-name="Path 995" class="cls-1" d="M359.667,273.3H351.61v.009h-6.517V273.3h-8.056v27.785h-3.952l3.849-3.155c-.354-.431-.7-.847-1.033-1.251a42.063,42.063,0,0,1-4.773-6.558h4.563v-5.741h-5.443v-4.538a45.2,45.2,0,0,0,4.724-2.232l-3.326-5.183a75.671,75.671,0,0,1-15.056,4.775l2.8,5.636c1.165-.238,2.257-.471,3.3-.711v2.253h-6.1v5.741H322.6a47.927,47.927,0,0,1-6.652,9.243l4.341,5.3c.869-1.411,1.664-2.667,2.4-3.838v7.191h7.553v-9.491c.451.558.913,1.116,1.387,1.688.329.4.668.806,1.015,1.229l.045-.037v6.731h29.165v-7.05h-2.192Zm-8.057,18.534h-6.517v-3.4h6.517Zm0-11.475V283.4h-6.517v-3.041Zm-6.517,16.51h6.517v4.216h-6.517Z" transform="translate(-42.194 -0.229)"/>
    <path id="Path_996" data-name="Path 996" class="cls-1" d="M423.361,308.3v-.992h12.352v-4.029h-3.641l2.636-1.86-3.868-5.48h5.386v-4.029H403.212v4.029h5.5l-1.851,2.8-3.316.106.113,3.522,8.04-.257.124.082.058-.089,3.931-.126v1.306h-12.2v4.029h12.2v1l-14.693.011,0,5.539,36.385-.026,0-5.539Zm-7.4-12.362h8.1l1.548,2.193-11.347.364Zm7.4,5.792,4.682-.15,1.2,1.7h-5.882Z" transform="translate(-67.457 -6.009)"/>
    <path id="Path_997" data-name="Path 997" class="cls-1" d="M194.251,297.868v-24h-8.78v10.351H174.308v8.048h11.162v6.847L173.7,300.778l2.178,8.126,22.052-4.323-1.728-6.991Z" transform="translate(0 -0.656)"/>
    <path id="Path_998" data-name="Path 998" class="cls-1" d="M223.524,298.92a6.556,6.556,0,0,1-.248,1.092,1.623,1.623,0,0,1-.166.4c-.106.155-.256.176-.473.2-.264.025-1.362.022-1.789,0-.6-.032-1.6-.023-1.864-.1a.2.2,0,0,1-.1-.065.179.179,0,0,1-.039-.1,3.472,3.472,0,0,1-.019-.5V299.6c.026-2.622.021-5.341.011-8.092L230.8,289.05l-2.241-7.713-9.74,2.112c0-4.161-.01-4.955.015-9.629l-8.9-.007c-.023,5.035.011,5.234.037,10.463.026,5.151.084,10.5.037,15.4v.252a30.23,30.23,0,0,0,.235,4.732,4.186,4.186,0,0,0,2.4,3.3,13.038,13.038,0,0,0,4.011.61c1.754.1,3.383.134,3.725.135a37.224,37.224,0,0,0,4.909-.249,6.277,6.277,0,0,0,1.969-.6c2.882-1.457,3.393-4.976,3.636-6.651.07-.48.1-.622.152-1.056.108-.864.1-1.057.218-2.489l-7.213-2.94C223.925,296.089,223.7,297.766,223.524,298.92Z" transform="translate(-10.744 -0.64)"/>
    <path id="Path_999" data-name="Path 999" class="cls-1" d="M256.013,276.089a33.035,33.035,0,0,0-5.952-3.878l-4.075,4.589a50.112,50.112,0,0,1,7.413,4.931l2.614-4.3v1.85h10.332v1.08h-8.827v8.619h1.994v.008h23.45V289H289V280.36h-9.261v-1.08h11.539v-6.043h-35.27Zm18.882,7.8v1.578h-3.932v-1.578Zm-7.96,1.578H263.56v-1.578h3.374Zm11.988,0v-1.578h4.039v1.578Zm-4.085-5.1h-3.608v-1.08h3.608Z" transform="translate(-21.441 -0.165)"/>
    <path id="Path_1000" data-name="Path 1000" class="cls-1" d="M259.7,308.549h4.2a32.677,32.677,0,0,1-6.337,3.788l4,5.038a24.735,24.735,0,0,0,7.307-4.7l1.305,4.831a15.312,15.312,0,0,0,1.993.093c.476,0,.9.039,1.385.033a19.33,19.33,0,0,0,4.479-.222c.967-.219,2.1-.328,2.68-2.6.14-.545.168-2.939.191-3.238l.014,1.841.018-4.862h3.921l-2.211,4.061c.355.193.7.377,1.032.556a21.43,21.43,0,0,1,6.3,4.487l4.376-4.167a24.66,24.66,0,0,0-6.516-4.937h6.6v-5.035H259.7Zm14.409,1.864a1.263,1.263,0,0,1-.251.714,1.048,1.048,0,0,1-.753.31c-.6.037-1.7.034-2.3.011-.129,0-.359-.008-.623-.011l.025-.024-2.259-2.864h6.194Z" transform="translate(-24.875 -9.45)"/>
    <rect id="Rectangle_384" data-name="Rectangle 384" class="cls-1" width="30.489" height="3.525" transform="translate(236.69 289.685)"/>
    <path id="Path_1001" data-name="Path 1001" class="cls-1" d="M255.733,289.014a32.5,32.5,0,0,0-6.342-4.317l-4.083,4.587a46.6,46.6,0,0,1,7.14,4.749Z" transform="translate(-21.24 -3.869)"/>
    <path id="Path_1002" data-name="Path 1002" class="cls-1" d="M398.279,287.5c.039-.794.07-1.483.094-2.13h33.874v-4.028h-.012v-7.684h-7.05v0h-26.7v-.014l-7.553.018c0,.8.011,1.279.021,1.743.016.786.03,1.466,0,3.67l-.008.556c-.046,3.205-.066,4.668-.205,7.5-.159,3.225-.393,5.845-.783,8.761-.243,1.82-.464,3.348-1.092,6.444-.231,1.137-.487,2.152-.712,3.046-.141.56-.267,1.059-.364,1.491l7.37,1.652c.084-.376.194-.809.317-1.295.234-.926.525-2.08.791-3.392.675-3.328.913-4.978,1.176-6.945C397.859,293.759,398.11,290.95,398.279,287.5Zm26.905-6.158H398.471c.007-.49.015-1.016.023-1.6v-.037h26.69Z" transform="translate(-63.502 -0.592)"/>
    <path id="Path_1003" data-name="Path 1003" class="cls-1" d="M249.848,298.442c-.75,5.194-3,9.868-5.44,14.516l5.924,3.1a52.283,52.283,0,0,0,5.168-15.03Z" transform="translate(-20.973 -7.946)"/>
  </g>
</svg>
