<svg xmlns="http://www.w3.org/2000/svg" width="251.607" height="23.694" viewBox="0 0 251.607 23.694"><g transform="translate(-297.715 -172.915)"><path d="M328.446,178.689a42.964,42.964,0,0,0-4.343-3.66l-4.152,2.513s1.165.892,2.8,2.354l-.178.028-12.157.676,3.963-6.335-5.686-1.347-5.7,8.1-5.272.294.736,3.194,26.966-1.681h.393c2.079,2.065,3.186,3.2,3.186,3.2l3.688-2.862A58.577,58.577,0,0,0,328.446,178.689Z" transform="translate(0 0)" fill="#c8d2d2"/><path d="M403.146,191.65h8.989v-2.393h-8.976l.011-1.912-6.577.331v1.581h-9.007v2.393h9.007v1.9H383.311v2.928h33.1v-2.928H403.135Z" transform="translate(-4.517 -0.761)" fill="#c8d2d2"/><path d="M388.681,177.177h22.394v3.593h5.041v-6H402.45v-1.853h-5.143v1.853H383.641v6h5.041Z" transform="translate(-4.534)" fill="#c8d2d2"/><path d="M459.621,177.28h-13.31a20,20,0,0,0,1.8-3.431l-3.859-.774a36.712,36.712,0,0,1-2.508,4.4,17.8,17.8,0,0,1-2.828,3.145v-2.1h-2.87v-5.157h-4.7v5.157H430.1c.15-1.1.278-2.191.278-2.191l-3.281-.767a27.121,27.121,0,0,1-.9,3.537c-.681,2.174-1.448,4.219-1.448,4.219l3.921,1.321s.588-2.01.965-3.558h1.707v5.761c-2.829.647-5.868,1.092-5.868,1.092l1.15,3.14s2.672-.446,4.718-.952V196.5h4.7v-7.793c1.459-.466,2.684-.867,2.684-.867l-.3-3.281s-1,.406-2.385.894v-4.367h2.341c-.55.47-.925.75-.925.75l3.241,1.814s1.8-1.711,3.628-3.808h2.044a27.654,27.654,0,0,1-2.77,4.065,39.887,39.887,0,0,1-4.915,4.73l2.4,1.848a33.816,33.816,0,0,0,5.285-4.989,38.519,38.519,0,0,0,3.666-5.654h1.05A22.578,22.578,0,0,1,447.8,186a26.877,26.877,0,0,1-5.571,5.74c-1.519,1.125-2.532,1.745-2.532,1.745l3.095,2.025a30.138,30.138,0,0,0,7.627-7.116,39.066,39.066,0,0,0,4.795-8.459c-.089,1.076-.226,2.429-.438,3.95a53.354,53.354,0,0,1-.944,5.4c-.3,1.206-.73,3.725-2.707,3.547a21.063,21.063,0,0,1-2.625-.353v2.985a27.755,27.755,0,0,0,4.739.65c3.182.226,3.628-1.234,4.278-2.89a40.377,40.377,0,0,0,1.694-7.239,72.347,72.347,0,0,0,.651-8.7l-.24.006Z" transform="translate(-6.704 -0.008)" fill="#c8d2d2"/><path d="M321,186.747H301.969v10.592h6.824v-1.487H321v1.487h6.823V186.747H321Zm-12.2,6.218v-3.6H321v3.6Z" transform="translate(-0.224 -0.73)" fill="#c8d2d2"/><path d="M355.3,190.489v-16.96h-5.8v5.65h-8.563v3.226H349.5v8.9l-8.592,1.208.483,4.119,16.475-3.223-.4-3.223Z" transform="translate(-2.279 -0.032)" fill="#c8d2d2"/><path d="M370.992,188.307a9.855,9.855,0,0,1-.184,2.386c-.175,1.076-1.115,1.325-2.039,1.357a2.037,2.037,0,0,1-1.794-.923,10.9,10.9,0,0,1-.345-3.324v-5.4h7.543v-3.226H366.63v-5.65h-5.753v15.933a13.69,13.69,0,0,0,.357,3.244c.353.941,1.542,3.348,6.536,3.643,4.665.276,6.4-1.892,6.4-1.892a5.614,5.614,0,0,0,1.137-2.978,19.33,19.33,0,0,0,.117-2.39Z" transform="translate(-3.333 -0.032)" fill="#c8d2d2"/><path d="M384.793,184.721l.556,2.171,22.388-.96c1.436,1.117,3.231,2.471,3.231,2.471l3.061-2.163s-2.285-1.813-3.757-2.943c-.781-.6-1.75-1.265-2.447-1.73h1.823v-2.181H390.23v2.181h2.091l-1.582,2.952Zm12.646-3.153H405.9c-.891.568-2.041,1.336-2.041,1.336l1.438,1.122-9.213.313Z" transform="translate(-4.595 -0.342)" fill="#c8d2d2"/><rect width="2.89" height="8.995" transform="translate(462.014 173.334)" fill="#c8d2d2"/><path d="M475.953,180.269c0,1.432.635,2.256,2.3,2.256a3.755,3.755,0,0,0,1.8-.392L480,180.959a2.218,2.218,0,0,1-.675.095c-.446,0-.594-.217-.594-.636v-3.16h1.31V176.1h-1.31v-2.013l-2.783.216v1.8H475.1v1.161h.851Z" transform="translate(-9.361 -0.062)" fill="#c8d2d2"/><path d="M487.373,180.82a3.638,3.638,0,0,0-.027-.365l-2.121-.2a1.688,1.688,0,0,1,.027.257.537.537,0,0,1-.594.608c-.648,0-.945-.621-.959-1.4h3.619a6.333,6.333,0,0,0,.108-.959c0-1.635-1.053-2.688-3-2.688a3.227,3.227,0,0,0-3.539,3.282c0,1.891.973,3.282,3.5,3.282C486.13,182.63,487.373,182.13,487.373,180.82Zm-2.823-3.16c.405,0,.567.283.567.715a2.681,2.681,0,0,1-.041.446H483.7C483.74,178.254,484,177.66,484.55,177.66Z" transform="translate(-9.666 -0.166)" fill="#c8d2d2"/><path d="M491.67,180.6c0-1.472.257-2.432.973-2.432.405,0,.581.257.581.675v3.647h2.782V180.6c0-1.472.257-2.432.973-2.432.405,0,.581.257.581.675v3.647h2.782v-3.471c0-1.877-.729-2.958-2.269-2.958-1.229,0-1.918,1.081-2.093,2.323-.149-1.5-.891-2.323-2.242-2.323-1.269,0-2,.8-2.336,2.323l-.541-2.187h-1.972v6.293h2.782Z" transform="translate(-10.089 -0.166)" fill="#c8d2d2"/><path d="M505.472,177.579a3.921,3.921,0,0,1,1.931.648l.689-1.283a4.9,4.9,0,0,0-2.944-.878c-1.877,0-2.917.77-2.917,1.945,0,1,.365,1.648,2.4,2.242.608.175.743.338.743.527,0,.216-.189.338-.621.338a3.675,3.675,0,0,1-2.093-.783l-.728,1.283a5.509,5.509,0,0,0,3.241,1.014c1.891,0,2.9-.891,2.9-2.08,0-1.107-.648-1.688-2.039-2.067-.972-.27-1.107-.35-1.107-.607C504.932,177.687,505.12,177.579,505.472,177.579Z" transform="translate(-10.777 -0.166)" fill="#c8d2d2"/><path d="M521.593,177.854a4.331,4.331,0,0,0-4.7-4.5h-4.3v8.995h4.3A4.331,4.331,0,0,0,521.593,177.854Zm-5.052,2.486h-1.053v-4.97h1.053c1.445,0,2.12,1.067,2.12,2.485S517.987,180.34,516.541,180.34Z" transform="translate(-11.34 -0.023)" fill="#c8d2d2"/><rect width="2.782" height="6.294" transform="translate(511.238 176.035)" fill="#c8d2d2"/><rect width="2.782" height="2.066" transform="translate(511.238 173.334)" fill="#c8d2d2"/><path d="M530.635,177.579a3.924,3.924,0,0,1,1.932.648l.689-1.283a4.906,4.906,0,0,0-2.945-.878c-1.877,0-2.917.77-2.917,1.945,0,1,.365,1.648,2.4,2.242.607.175.743.338.743.527,0,.216-.189.338-.621.338a3.672,3.672,0,0,1-2.093-.783l-.729,1.283a5.511,5.511,0,0,0,3.241,1.014c1.891,0,2.9-.891,2.9-2.08,0-1.107-.648-1.688-2.038-2.067-.973-.27-1.108-.35-1.108-.607C530.095,177.687,530.284,177.579,530.635,177.579Z" transform="translate(-12.105 -0.166)" fill="#c8d2d2"/><path d="M539.247,176.066a2.411,2.411,0,0,0-2.337,1.9l-.621-1.769H534.7v8.508h2.782v-3.5a2.132,2.132,0,0,0,1.985,1.418c1.729,0,2.525-1.567,2.525-3.282C541.989,177.714,541.233,176.066,539.247,176.066Zm-.906,4.916c-.553,0-.864-.594-.864-1.634,0-.986.311-1.634.852-1.634s.877.566.877,1.634S538.91,180.982,538.342,180.982Z" transform="translate(-12.506 -0.166)" fill="#c8d2d2"/><rect width="2.782" height="8.995" transform="translate(530.495 173.334)" fill="#c8d2d2"/><path d="M554.4,180.779v-2.12c0-1.729-1.067-2.594-3.241-2.594s-3.389.8-3.389,1.985a2.427,2.427,0,0,0,.283,1.068l2.485-.582a1.217,1.217,0,0,1-.081-.4.5.5,0,0,1,.567-.541c.391,0,.594.271.594.757v1.121a11.856,11.856,0,0,0-1.472-.108c-1.5,0-2.458.446-2.458,1.567a1.685,1.685,0,0,0,1.9,1.7,2.109,2.109,0,0,0,2.134-1.161c.135.581.567,1.161,1.837,1.161a2.442,2.442,0,0,0,1.594-.473v-.945a.859.859,0,0,1-.338.054C554.478,181.266,554.4,181.09,554.4,180.779Zm-2.769-.445c0,.486-.149,1.013-.743,1.013a.423.423,0,0,1-.473-.432c0-.473.445-.595,1.215-.7Z" transform="translate(-13.191 -0.166)" fill="#c8d2d2"/><path d="M560.409,176.209l-1.094,4.254-1.2-4.254h-2.687l2.566,6.361c-.189.595-.419.906-1.135.906a2.623,2.623,0,0,1-.581-.068l-.054,1.148a3.709,3.709,0,0,0,1.58.27c1.324,0,2.147-.553,2.823-2.336.743-1.972,2.3-6.28,2.3-6.28Z" transform="translate(-13.6 -0.174)" fill="#c8d2d2"/><rect width="2.782" height="6.294" transform="translate(461.919 188.08)" fill="#c8d2d2"/><rect width="2.782" height="2.066" transform="translate(461.919 185.379)" fill="#c8d2d2"/><path d="M480.421,188.782c-1.269,0-2,.8-2.336,2.323l-.541-2.187h-1.972v6.293h2.782V193.32c0-1.472.257-2.432.973-2.432.405,0,.581.257.581.675v3.647h2.782V191.74C482.689,189.863,481.96,188.782,480.421,188.782Z" transform="translate(-9.386 -0.837)" fill="#c8d2d2"/><path d="M495.5,186.073h-8.59v2.107h2.85v6.888h2.89V188.18h2.85Z" transform="translate(-9.984 -0.694)" fill="#c8d2d2"/><path d="M502.3,193.5v-2.12c0-1.729-1.068-2.594-3.241-2.594s-3.39.8-3.39,1.985a2.432,2.432,0,0,0,.283,1.067l2.486-.581a1.2,1.2,0,0,1-.081-.405.5.5,0,0,1,.567-.54c.392,0,.594.271.594.757v1.121a11.86,11.86,0,0,0-1.472-.108c-1.5,0-2.458.446-2.458,1.567a1.685,1.685,0,0,0,1.9,1.7,2.107,2.107,0,0,0,2.133-1.162c.135.582.567,1.162,1.838,1.162a2.441,2.441,0,0,0,1.593-.473v-.946a.842.842,0,0,1-.338.054C502.382,193.981,502.3,193.806,502.3,193.5Zm-2.769-.446c0,.487-.149,1.014-.744,1.014a.423.423,0,0,1-.473-.432c0-.473.446-.595,1.216-.7Z" transform="translate(-10.442 -0.837)" fill="#c8d2d2"/><rect width="2.782" height="2.066" transform="translate(493.493 185.379)" fill="#c8d2d2"/><rect width="2.782" height="6.294" transform="translate(493.493 188.08)" fill="#c8d2d2"/><path d="M513.456,188.782a2.41,2.41,0,0,0-2.336,1.9l-.621-1.769H508.9v8.508h2.782v-3.5a2.131,2.131,0,0,0,1.985,1.419c1.729,0,2.526-1.567,2.526-3.282C516.2,190.43,515.442,188.782,513.456,188.782Zm-.9,4.916c-.554,0-.865-.594-.865-1.634,0-.986.311-1.634.852-1.634s.877.566.877,1.634S513.119,193.7,512.552,193.7Z" transform="translate(-11.145 -0.837)" fill="#c8d2d2"/><path d="M523.825,191.469c0-1.634-1.053-2.687-3-2.687a3.227,3.227,0,0,0-3.539,3.282c0,1.891.973,3.282,3.5,3.282,1.742,0,2.985-.5,2.985-1.81a3.656,3.656,0,0,0-.026-.365l-2.121-.2a1.574,1.574,0,0,1,.027.257.538.538,0,0,1-.595.608c-.648,0-.945-.621-.959-1.4h3.619A6.336,6.336,0,0,0,523.825,191.469Zm-2.35.068H520.1c.041-.567.3-1.162.851-1.162.405,0,.567.284.567.716A2.681,2.681,0,0,1,521.475,191.537Z" transform="translate(-11.587 -0.837)" fill="#c8d2d2"/><rect width="2.782" height="2.066" transform="translate(513.277 185.379)" fill="#c8d2d2"/><rect width="2.782" height="6.294" transform="translate(513.277 188.08)" fill="#c8d2d2"/></g></svg>