<svg xmlns="http://www.w3.org/2000/svg" width="119.434" height="31.974" viewBox="0 0 119.434 31.974"><g transform="translate(-84.794 -422.805)"><g transform="translate(88.286 445.824)"><rect width="2.287" height="7.117" transform="translate(0 0)" fill="#c8d2d2"/><path d="M110.721,507.136l-2.2.171v1.421h-.673v.919h.673v2.383c0,1.133.5,1.785,1.817,1.785a2.971,2.971,0,0,0,1.421-.31l-.032-.93a1.749,1.749,0,0,1-.534.075c-.353,0-.47-.171-.47-.5v-2.5h1.036v-.919h-1.036Z" transform="translate(-104.896 -506.591)" fill="#c8d2d2"/><path d="M128.547,514.579c0-1.293-.834-2.127-2.372-2.127a2.553,2.553,0,0,0-2.8,2.6c0,1.5.769,2.6,2.768,2.6,1.378,0,2.361-.4,2.361-1.432a2.771,2.771,0,0,0-.022-.288l-1.677-.16a1.323,1.323,0,0,1,.021.2.425.425,0,0,1-.47.481c-.513,0-.748-.492-.758-1.111h2.864A5,5,0,0,0,128.547,514.579Zm-1.859.053H125.6c.032-.449.235-.919.673-.919.321,0,.449.224.449.566A2.144,2.144,0,0,1,126.688,514.632Z" transform="translate(-116.086 -510.422)" fill="#c8d2d2"/><path d="M152.1,512.452c-.972,0-1.518.855-1.656,1.838-.118-1.186-.705-1.838-1.774-1.838-1,0-1.582.631-1.849,1.838l-.428-1.731h-1.56v4.98h2.2v-1.5c0-1.165.2-1.924.769-1.924.32,0,.459.2.459.534v2.885h2.2v-1.5c0-1.165.2-1.924.77-1.924.32,0,.459.2.459.534v2.885h2.2v-2.746C153.892,513.307,153.315,512.452,152.1,512.452Z" transform="translate(-131.547 -510.422)" fill="#c8d2d2"/><path d="M182.627,513.649a3.1,3.1,0,0,1,1.528.513l.545-1.015a3.882,3.882,0,0,0-2.33-.695c-1.485,0-2.308.609-2.308,1.539,0,.791.289,1.3,1.9,1.774.481.139.588.267.588.417,0,.171-.149.267-.492.267a2.9,2.9,0,0,1-1.656-.62l-.577,1.015a4.359,4.359,0,0,0,2.565.8c1.5,0,2.3-.705,2.3-1.646,0-.876-.513-1.336-1.614-1.635-.769-.214-.876-.278-.876-.481C182.2,513.734,182.349,513.649,182.627,513.649Z" transform="translate(-156.764 -510.422)" fill="#c8d2d2"/><path d="M211.834,505.186h-3.4V512.3h3.4a3.562,3.562,0,1,0,0-7.117Zm-.278,5.525h-.834v-3.933h.834c1.143,0,1.677.844,1.677,1.966S212.7,510.711,211.557,510.711Z" transform="translate(-177.379 -505.186)" fill="#c8d2d2"/><rect width="2.201" height="4.98" transform="translate(38.955 2.137)" fill="#c8d2d2"/><rect width="2.187" height="1.624" transform="translate(39.447 0.058)" fill="#c8d2d2"/><path d="M250.134,513.649a3.1,3.1,0,0,1,1.528.513l.545-1.015a3.883,3.883,0,0,0-2.33-.695c-1.485,0-2.308.609-2.308,1.539,0,.791.289,1.3,1.9,1.774.481.139.588.267.588.417,0,.171-.15.267-.492.267a2.9,2.9,0,0,1-1.657-.62l-.577,1.015a4.359,4.359,0,0,0,2.565.8c1.5,0,2.3-.705,2.3-1.646,0-.876-.513-1.336-1.614-1.635-.769-.214-.876-.278-.876-.481C249.707,513.734,249.856,513.649,250.134,513.649Z" transform="translate(-205.408 -510.422)" fill="#c8d2d2"/><path d="M271.321,512.452a1.908,1.908,0,0,0-1.849,1.507l-.492-1.4H267.72v6.732h2.2v-2.767a1.685,1.685,0,0,0,1.571,1.122c1.368,0,2-1.24,2-2.6C273.49,513.756,272.892,512.452,271.321,512.452Zm-.716,3.89c-.438,0-.684-.47-.684-1.293,0-.78.245-1.293.673-1.293s.695.449.695,1.293S271.054,516.342,270.605,516.342Z" transform="translate(-220.098 -510.422)" fill="#c8d2d2"/><rect width="2.201" height="7.117" transform="translate(54.195 0)" fill="#c8d2d2"/><path d="M307.876,516.182V514.5c0-1.368-.844-2.052-2.565-2.052s-2.682.631-2.682,1.571a1.917,1.917,0,0,0,.224.844l1.966-.459a.941.941,0,0,1-.064-.321.4.4,0,0,1,.449-.427c.31,0,.47.214.47.6v.887a9.3,9.3,0,0,0-1.165-.086c-1.186,0-1.945.352-1.945,1.24a1.333,1.333,0,0,0,1.506,1.346,1.669,1.669,0,0,0,1.689-.919c.107.459.449.919,1.453.919a1.929,1.929,0,0,0,1.261-.374v-.748a.672.672,0,0,1-.267.043C307.94,516.566,307.876,516.427,307.876,516.182Zm-2.191-.353c0,.385-.118.8-.588.8a.335.335,0,0,1-.374-.342c0-.374.353-.47.961-.556Z" transform="translate(-245.206 -510.422)" fill="#c8d2d2"/><path d="M326.41,516.2l-.951-3.366h-2.127l2.031,5.033c-.15.47-.331.716-.9.716a2.075,2.075,0,0,1-.46-.053l-.043.908a2.933,2.933,0,0,0,1.25.214c1.047,0,1.7-.438,2.233-1.849.588-1.56,1.817-4.969,1.817-4.969h-1.988Z" transform="translate(-260.17 -510.697)" fill="#c8d2d2"/><rect width="2.201" height="4.98" transform="translate(71.872 2.137)" fill="#c8d2d2"/><rect width="2.187" height="1.624" transform="translate(72.15 0.058)" fill="#c8d2d2"/><path d="M370.426,512.452c-1,0-1.582.631-1.849,1.838l-.427-1.731h-1.56v4.98h2.2v-1.5c0-1.165.2-1.924.769-1.924.32,0,.459.2.459.534v2.885h2.2v-2.746C372.221,513.307,371.644,512.452,370.426,512.452Z" transform="translate(-291.341 -510.422)" fill="#c8d2d2"/><path d="M403.793,505.186H397v1.667h2.255v5.45h2.287v-5.45h2.255Z" transform="translate(-313.252 -505.186)" fill="#c8d2d2"/><path d="M425.6,516.182V514.5c0-1.368-.844-2.052-2.565-2.052s-2.682.631-2.682,1.571a1.921,1.921,0,0,0,.225.844l1.966-.459a.947.947,0,0,1-.064-.321.394.394,0,0,1,.449-.427c.31,0,.47.214.47.6v.887a9.287,9.287,0,0,0-1.164-.086c-1.186,0-1.945.352-1.945,1.24a1.333,1.333,0,0,0,1.507,1.346,1.669,1.669,0,0,0,1.688-.919c.107.459.449.919,1.453.919a1.929,1.929,0,0,0,1.261-.374v-.748a.671.671,0,0,1-.267.043C425.665,516.566,425.6,516.427,425.6,516.182Zm-2.191-.353c0,.385-.118.8-.588.8a.335.335,0,0,1-.374-.342c0-.374.353-.47.962-.556Z" transform="translate(-330.036 -510.422)" fill="#c8d2d2"/><rect width="2.201" height="4.98" transform="translate(96.859 2.137)" fill="#c8d2d2"/><rect width="2.187" height="1.624" transform="translate(96.975 0.058)" fill="#c8d2d2"/><path d="M459.614,512.452a1.908,1.908,0,0,0-1.849,1.507l-.491-1.4h-1.261v6.732h2.2v-2.767a1.685,1.685,0,0,0,1.571,1.122c1.368,0,2-1.24,2-2.6C461.783,513.756,461.185,512.452,459.614,512.452Zm-.716,3.89c-.438,0-.684-.47-.684-1.293,0-.78.245-1.293.673-1.293s.695.449.695,1.293S459.347,516.342,458.9,516.342Z" transform="translate(-355.777 -510.422)" fill="#c8d2d2"/><path d="M483.675,514.579c0-1.293-.833-2.127-2.372-2.127a2.553,2.553,0,0,0-2.8,2.6c0,1.5.769,2.6,2.768,2.6,1.379,0,2.362-.4,2.362-1.432a2.849,2.849,0,0,0-.022-.288l-1.678-.16a1.323,1.323,0,0,1,.022.2.425.425,0,0,1-.47.481c-.513,0-.748-.492-.759-1.111h2.864A4.967,4.967,0,0,0,483.675,514.579Zm-1.86.053h-1.09c.032-.449.235-.919.673-.919.32,0,.449.224.449.566A2.141,2.141,0,0,1,481.816,514.632Z" transform="translate(-371.983 -510.422)" fill="#c8d2d2"/><rect width="2.201" height="4.98" transform="translate(112.515 2.137)" fill="#c8d2d2"/><rect width="2.187" height="1.624" transform="translate(112.53 0.058)" fill="#c8d2d2"/></g><g transform="translate(84.794 422.805)"><path d="M108.32,427.23a32.974,32.974,0,0,0-3.325-2.8l-3.179,1.924s.892.683,2.141,1.8l-.136.022-8.855.493,3.018-4.825-4.44-1.031-4.351,6.177-4.4.244.563,2.446L106,430.393h.3c1.592,1.58,2.44,2.451,2.44,2.451l2.823-2.191A44.875,44.875,0,0,0,108.32,427.23Z" transform="translate(-84.794 -422.811)" fill="#c8d2d2"/><path d="M322.849,464.622h7.064v-2.007h-7.064V461.5h-4.665v1.114H311.12v2.007h7.064v1.106H307.6v2.242h25.838v-2.242H322.849Z" transform="translate(-245.341 -450.689)" fill="#c8d2d2"/><path d="M313.516,426.242h16.97v2.75h3.859V424.4H323.969V422.8h-3.937V424.4H309.657v4.595h3.859Z" transform="translate(-246.825 -422.805)" fill="#c8d2d2"/><path d="M111.3,458.7H97.081v8.06H102.3v-1.09H111.3v1.09h5.224V458.7H111.3Zm0,4.76H102.3v-2.756H111.3Z" transform="translate(-93.648 -448.671)" fill="#c8d2d2"/><path d="M209.458,437.382V424.4h-4.441v4.326h-6.556v2.47h6.556v6.813l-6.578.925.369,3.153,12.613-2.468-.308-2.468Z" transform="translate(-166.684 -423.953)" fill="#c8d2d2"/><path d="M258.015,435.711a7.554,7.554,0,0,1-.141,1.827c-.134.824-.854,1.015-1.561,1.039a1.56,1.56,0,0,1-1.374-.706,8.363,8.363,0,0,1-.264-2.544v-4.133h5.775v-2.47h-5.775V424.4h-4.4v12.2a10.474,10.474,0,0,0,.274,2.483c.27.72,1.18,2.563,5,2.789,3.571.211,4.9-1.449,4.9-1.449a4.3,4.3,0,0,0,.87-2.28,14.757,14.757,0,0,0,.09-1.83Z" transform="translate(-204.033 -423.953)" fill="#c8d2d2"/><path d="M312.337,444.308l.425,1.837,17.477-.913c1.011.782,2.165,1.653,2.165,1.653l2.242-1.585s-1.674-1.329-2.753-2.157c-.562-.431-1.256-.908-1.763-1.248h1.234v-1.669H316.5v1.669h1.6l-1.211,2.259Zm9.681-2.414h6.641c-.649.414-1.466.96-1.466.96s.519.4,1.168.91l-7.381.251Z" transform="translate(-248.756 -435.357)" fill="#c8d2d2"/><path d="M442.736,426.439H432.547a15.29,15.29,0,0,0,1.381-2.626l-2.954-.592a28.041,28.041,0,0,1-1.92,3.368A13.664,13.664,0,0,1,426.888,429v-1.6h-2.2v-3.948h-3.6v3.948h-.954c.115-.845.213-1.677.213-1.677l-2.512-.587a20.783,20.783,0,0,1-.685,2.708c-.522,1.664-1.109,3.23-1.109,3.23l3,1.011s.45-1.539.739-2.724h1.307v4.41c-2.166.5-4.493.836-4.493.836l.881,2.4s2.046-.341,3.612-.728v4.878h3.6v-5.965c1.116-.357,2.054-.664,2.054-.664l-.228-2.512s-.766.311-1.825.684v-3.343h1.792c-.421.359-.709.574-.709.574l2.482,1.388s1.378-1.309,2.777-2.915H432.6a21.136,21.136,0,0,1-2.12,3.112,30.523,30.523,0,0,1-3.763,3.622l1.839,1.415a25.852,25.852,0,0,0,4.046-3.82,29.434,29.434,0,0,0,2.807-4.329h.8a17.3,17.3,0,0,1-2.524,4.712,20.592,20.592,0,0,1-4.265,4.394c-1.163.861-1.939,1.335-1.939,1.335l2.37,1.551a23.085,23.085,0,0,0,5.839-5.447,29.9,29.9,0,0,0,3.67-6.476c-.068.823-.173,1.859-.335,3.024a40.6,40.6,0,0,1-.723,4.132c-.232.923-.559,2.852-2.072,2.716a16,16,0,0,1-2.01-.271v2.286a21.272,21.272,0,0,0,3.628.5c2.435.174,2.777-.944,3.274-2.212a30.9,30.9,0,0,0,1.3-5.542,55.378,55.378,0,0,0,.5-6.66l-.184,0Z" transform="translate(-323.485 -423.104)" fill="#c8d2d2"/></g></g></svg>