<svg xmlns="http://www.w3.org/2000/svg" width="225.513" height="28.687" viewBox="0 0 225.513 28.687"><g transform="translate(-90.192 -287.676)"><g transform="translate(219.645 289.772)"><path d="M244.511,300.058v-9.886h3.176v9.886Z" transform="translate(-244.407 -290.172)" fill="#c8d2d2"/><path d="M254.823,299.921a4.129,4.129,0,0,1-1.975.431c-1.825,0-2.523-.906-2.523-2.479v-3.31h-.935v-1.277h.935v-1.974l3.058-.238v2.211h1.44v1.277h-1.44v3.473c0,.461.163.7.653.7a2.438,2.438,0,0,0,.742-.1Z" transform="translate(-245.19 -290.317)" fill="#c8d2d2"/><path d="M259.655,297.54c.015.861.341,1.543,1.054,1.543a.59.59,0,0,0,.653-.667,1.893,1.893,0,0,0-.029-.282l2.331.222c.014.133.029.282.029.4,0,1.441-1.365,1.99-3.28,1.99-2.776,0-3.845-1.529-3.845-3.608a3.547,3.547,0,0,1,3.89-3.607c2.137,0,3.3,1.158,3.3,2.953a6.932,6.932,0,0,1-.119,1.055Zm0-.98h1.514a2.954,2.954,0,0,0,.044-.49c0-.475-.178-.787-.623-.787C259.981,295.283,259.7,295.936,259.655,296.56Z" transform="translate(-246.341 -290.711)" fill="#c8d2d2"/><path d="M271.25,300.6V296.59c0-.46-.193-.742-.639-.742-.787,0-1.069,1.054-1.069,2.671V300.6h-3.058V293.68h2.167l.594,2.405c.371-1.677,1.172-2.553,2.568-2.553,1.483,0,2.3.9,2.464,2.553.192-1.366.949-2.553,2.3-2.553,1.693,0,2.493,1.187,2.493,3.251V300.6h-3.058V296.59c0-.46-.193-.742-.638-.742-.787,0-1.069,1.054-1.069,2.671V300.6Z" transform="translate(-247.933 -290.711)" fill="#c8d2d2"/><path d="M286.224,300.746a6.055,6.055,0,0,1-3.562-1.113l.8-1.41a4.038,4.038,0,0,0,2.3.861c.475,0,.683-.133.683-.371,0-.207-.149-.385-.816-.578-2.242-.653-2.642-1.366-2.642-2.464,0-1.291,1.143-2.137,3.206-2.137a5.394,5.394,0,0,1,3.236.965l-.757,1.41a4.308,4.308,0,0,0-2.122-.713c-.386,0-.594.118-.594.327,0,.282.149.371,1.217.668,1.529.416,2.241,1.054,2.241,2.271C289.415,299.766,288.3,300.746,286.224,300.746Z" transform="translate(-250.529 -290.711)" fill="#c8d2d2"/><path d="M300.606,300.058h-4.721v-9.886h4.721c3.266,0,5.166,2.108,5.166,4.943S303.872,300.058,300.606,300.058Zm-.386-7.674h-1.158v5.462h1.158c1.588,0,2.331-1.172,2.331-2.731S301.808,292.384,300.22,292.384Z" transform="translate(-252.65 -290.172)" fill="#c8d2d2"/><path d="M308.95,292.444v-2.272h3.058v2.272Zm0,7.615v-6.918h3.058v6.918Z" transform="translate(-254.747 -290.172)" fill="#c8d2d2"/><path d="M317.427,300.746a6.057,6.057,0,0,1-3.562-1.113l.8-1.41a4.034,4.034,0,0,0,2.3.861c.475,0,.683-.133.683-.371,0-.207-.149-.385-.817-.578-2.242-.653-2.642-1.366-2.642-2.464,0-1.291,1.143-2.137,3.206-2.137a5.4,5.4,0,0,1,3.236.965l-.757,1.41a4.308,4.308,0,0,0-2.122-.713c-.386,0-.594.118-.594.327,0,.282.149.371,1.217.668,1.529.416,2.242,1.054,2.242,2.271C320.619,299.766,319.506,300.746,317.427,300.746Z" transform="translate(-255.535 -290.711)" fill="#c8d2d2"/><path d="M328.528,300.746a2.342,2.342,0,0,1-2.183-1.559v3.844h-3.058V293.68h1.751l.683,1.945a2.649,2.649,0,0,1,2.567-2.093c2.183,0,3.014,1.811,3.014,3.607C331.3,299.024,330.428,300.746,328.528,300.746Zm-1.247-5.4c-.594,0-.935.712-.935,1.8,0,1.143.342,1.8.95,1.8s.95-.639.95-1.8C328.246,295.966,327.89,295.343,327.281,295.343Z" transform="translate(-257.047 -290.711)" fill="#c8d2d2"/><path d="M334.161,300.058v-9.886h3.058v9.886Z" transform="translate(-258.792 -290.172)" fill="#c8d2d2"/><path d="M347.6,300.226a2.678,2.678,0,0,1-1.752.52c-1.395,0-1.87-.639-2.018-1.277a2.319,2.319,0,0,1-2.346,1.277,1.852,1.852,0,0,1-2.093-1.871c0-1.232,1.054-1.722,2.7-1.722a13.053,13.053,0,0,1,1.619.118v-1.232c0-.535-.223-.831-.653-.831a.548.548,0,0,0-.624.594,1.307,1.307,0,0,0,.089.445l-2.731.639a2.665,2.665,0,0,1-.312-1.173c0-1.306,1.321-2.182,3.727-2.182,2.389,0,3.562.949,3.562,2.849v2.331c0,.342.089.535.46.535a.928.928,0,0,0,.371-.06Zm-3.874-2.137c-.846.118-1.336.252-1.336.772a.465.465,0,0,0,.52.475c.653,0,.816-.579.816-1.113Z" transform="translate(-259.632 -290.711)" fill="#c8d2d2"/><path d="M354.708,300.611c-.742,1.96-1.647,2.568-3.1,2.568a4.075,4.075,0,0,1-1.737-.3l.06-1.262a2.846,2.846,0,0,0,.638.075c.787,0,1.039-.342,1.247-.995l-2.82-6.992h2.953l1.321,4.676,1.2-4.676h2.761S355.525,298.444,354.708,300.611Z" transform="translate(-261.172 -290.739)" fill="#c8d2d2"/><path d="M244.387,309.443v-2.272h3.058v2.272Zm0,7.615V310.14h3.058v6.918Z" transform="translate(-244.387 -292.9)" fill="#c8d2d2"/><path d="M254.738,317.6v-4.008c0-.46-.193-.742-.638-.742-.787,0-1.069,1.054-1.069,2.671V317.6h-3.058v-6.918h2.168l.594,2.405c.371-1.677,1.173-2.553,2.568-2.553,1.692,0,2.493,1.187,2.493,3.251V317.6Z" transform="translate(-245.283 -293.439)" fill="#c8d2d2"/><path d="M270.336,309.487v7.57H267.16v-7.57h-3.132v-2.316h9.441v2.316Z" transform="translate(-247.539 -292.9)" fill="#c8d2d2"/><path d="M283,317.225a2.677,2.677,0,0,1-1.751.52c-1.4,0-1.87-.639-2.019-1.277a2.319,2.319,0,0,1-2.346,1.277,1.852,1.852,0,0,1-2.093-1.87c0-1.232,1.054-1.722,2.7-1.722a13.066,13.066,0,0,1,1.619.118V313.04c0-.535-.222-.831-.653-.831a.548.548,0,0,0-.624.594,1.307,1.307,0,0,0,.089.445l-2.731.639a2.664,2.664,0,0,1-.312-1.173c0-1.306,1.321-2.182,3.727-2.182,2.389,0,3.562.95,3.562,2.849v2.331c0,.342.089.535.46.535a.928.928,0,0,0,.371-.06Zm-3.874-2.137c-.846.118-1.336.252-1.336.772a.465.465,0,0,0,.52.475c.653,0,.816-.579.816-1.113Z" transform="translate(-249.266 -293.439)" fill="#c8d2d2"/><path d="M285.721,309.443v-2.272h3.058v2.272Zm0,7.615V310.14h3.058v6.918Z" transform="translate(-251.019 -292.9)" fill="#c8d2d2"/><path d="M296.547,317.745a2.342,2.342,0,0,1-2.182-1.559v3.844h-3.058v-9.352h1.751l.683,1.945a2.649,2.649,0,0,1,2.567-2.093c2.182,0,3.014,1.811,3.014,3.607C299.323,316.023,298.447,317.745,296.547,317.745Zm-1.247-5.4c-.594,0-.935.712-.935,1.8,0,1.143.342,1.8.95,1.8s.95-.639.95-1.8C296.264,312.965,295.909,312.342,295.3,312.342Z" transform="translate(-251.916 -293.439)" fill="#c8d2d2"/><path d="M304.79,314.539c.014.861.341,1.543,1.054,1.543a.59.59,0,0,0,.653-.667,1.792,1.792,0,0,0-.03-.282l2.331.222a3.876,3.876,0,0,1,.03.4c0,1.44-1.366,1.99-3.281,1.99-2.776,0-3.844-1.53-3.844-3.607a3.546,3.546,0,0,1,3.889-3.607c2.138,0,3.3,1.158,3.3,2.953a6.913,6.913,0,0,1-.118,1.054Zm0-.98H306.3a3.045,3.045,0,0,0,.044-.49c0-.475-.178-.787-.624-.787C305.116,312.282,304.834,312.935,304.79,313.559Z" transform="translate(-253.584 -293.439)" fill="#c8d2d2"/><path d="M311.62,309.443v-2.272h3.058v2.272Zm0,7.615V310.14h3.058v6.918Z" transform="translate(-255.175 -292.9)" fill="#c8d2d2"/></g><g transform="translate(90.192 287.676)"><path d="M153.617,309.023a1.8,1.8,0,0,1,.271,1.119c-.008.934-.714,1.161-1.557,1.19a1.5,1.5,0,0,1-1.42-.809,11.452,11.452,0,0,1-.327-3.257v-6.46h6.762v-3.711h-6.762v-7.474h-4.941v19.158a13.356,13.356,0,0,0,.371,2.966c.322.858,1.024,3.4,5.589,3.313,4.216-.08,6.094-2.062,6.366-4.1a5.439,5.439,0,0,0-.724-3.2Z" transform="translate(-99.09 -287.988)" fill="#c8d2d2"/><path d="M231,293.659v-.01H220.351c.339-1.05.651-2.142.942-3.267l-3.269-.656a28.885,28.885,0,0,1-2.992,7.96v-2.42h-2.209v-5.646H208.8v5.646h-1.211c.068-.625.127-1.257.171-1.9l-3.052-.724a37.3,37.3,0,0,1-1.573,8.18l3.181,1.049a35.813,35.813,0,0,0,.822-3.516H208.8v5.931c-1.512.468-3.03.913-4.559,1.321l.769,3.792q1.931-.584,3.79-1.251V315.6h4.02v-9.012q1.592-.672,3.127-1.409l-.7-3.083c-.807.3-1.616.59-2.427.874V298.36h1.831c-.372.645-.774,1.3-1.216,1.965l2.746,1.536a19.562,19.562,0,0,0,3.027-5.12h1.14a42.439,42.439,0,0,1-6.088,12.659l2.484,1.536a54.53,54.53,0,0,0,7.1-14.195h.7c-.56,3.638-3.386,10.891-7.469,16.239l2.251,1.432c2.744-2.3,6.128-9.683,7.815-14.828-.1,2.022-.233,4.092-.411,5.371a45.208,45.208,0,0,1-.8,4.6c-.259,1.027-.622,3.173-2.305,3.022-1.571-.142-1.562-.3-1.562-.3v2.543a10.143,10.143,0,0,0,3.362.553c2.709.193,3.09-1.051,3.643-2.461a34.347,34.347,0,0,0,1.443-6.166c.51-3.262.671-13.083.671-13.083Z" transform="translate(-108.315 -287.988)" fill="#c8d2d2"/><path d="M138.534,308.152V289.621h-4.948v7.474h-6.511v3.711h6.511v8.61l-7.068,1.805.757,4.325,13.684-4-.921-3.781Z" transform="translate(-96.021 -287.988)" fill="#c8d2d2"/><path d="M114.8,306.438H92.221v2.581h0v9.351h5.565v-1.681h11.462v1.681h5.565v-9.351H114.8ZM97.783,313.6V309.53h11.462V313.6Z" transform="translate(-90.517 -290.686)" fill="#c8d2d2"/><path d="M182.139,310.549h7.326v-2.783h-7.326V305.6h8.9v-2.783h-2.99a14.891,14.891,0,0,1-2.151-2.6h2.275v-2.474H170.819v2.474h2.259a12.938,12.938,0,0,1-2.291,2.6h-2.809V305.6h8.9v2.167h-7.327v2.783h7.327v2.084H165.91v3.092h27.2v-3.092H182.139Zm-4.232-10.328h3.206a24.741,24.741,0,0,0,1.674,2.6h-6.615A22.751,22.751,0,0,0,177.907,300.221Z" transform="translate(-102.342 -289.292)" fill="#c8d2d2"/><path d="M170.074,294.52H189.1v3.14h3.711v-4.4H192.8v-1.836H182.212v-1.806h-5.257v1.806H166.37v1.836h-.007v4.4h3.711Z" transform="translate(-102.414 -287.988)" fill="#c8d2d2"/><path d="M112.165,293.016l-4.058,2.075a24.393,24.393,0,0,1,2.793,2.8H97.593a25.338,25.338,0,0,0,5.954-8.012l-4.063-2.206c-2.1,4.257-5.226,6.958-9.291,10.218h0l.51,3.4h25.572l.409-3.4.01-.005C115.355,296.3,113.75,294.562,112.165,293.016Z" transform="translate(-90.192 -287.676)" fill="#c8d2d2"/></g></g></svg>