<svg xmlns="http://www.w3.org/2000/svg" width="88.842" height="29.252" viewBox="0 0 88.842 29.252"><g transform="translate(-88.01 -396.263)"><g transform="translate(89.058 418.729)"><rect width="1.733" height="5.393" transform="translate(0 0)" fill="#bac5c5"/><path d="M95.781,435.238l-1.668.13v1.077H93.6v.7h.51v1.805c0,.859.381,1.353,1.377,1.353a2.251,2.251,0,0,0,1.077-.235l-.025-.7a1.321,1.321,0,0,1-.4.057c-.268,0-.356-.13-.356-.381v-1.894h.785v-.7h-.785Z" transform="translate(-91.368 -434.825)" fill="#bac5c5"/><path d="M103.123,438.767c0-.98-.632-1.612-1.8-1.612a1.935,1.935,0,0,0-2.121,1.968,1.823,1.823,0,0,0,2.1,1.968c1.044,0,1.789-.3,1.789-1.085a2.108,2.108,0,0,0-.016-.219l-1.271-.122a1.059,1.059,0,0,1,.016.154.322.322,0,0,1-.356.364c-.389,0-.566-.372-.575-.842h2.17A3.733,3.733,0,0,0,103.123,438.767Zm-1.409.04h-.826c.024-.34.178-.7.51-.7.243,0,.34.17.34.429A1.6,1.6,0,0,1,101.714,438.807Z" transform="translate(-93.681 -435.617)" fill="#bac5c5"/><path d="M112.449,437.155c-.737,0-1.15.648-1.255,1.393-.089-.9-.534-1.393-1.344-1.393-.761,0-1.2.478-1.4,1.393l-.323-1.312h-1.182v3.773h1.668v-1.134c0-.882.154-1.458.583-1.458.243,0,.348.154.348.405v2.186h1.668v-1.134c0-.882.154-1.458.583-1.458.243,0,.348.154.348.405v2.186h1.668v-2.081C113.809,437.8,113.371,437.155,112.449,437.155Z" transform="translate(-96.877 -435.617)" fill="#bac5c5"/><path d="M121.686,438.062a2.349,2.349,0,0,1,1.158.389l.413-.769a2.943,2.943,0,0,0-1.765-.527c-1.126,0-1.749.462-1.749,1.166,0,.6.219.987,1.442,1.344.364.106.445.2.445.316,0,.13-.113.2-.372.2a2.2,2.2,0,0,1-1.255-.47l-.437.77a3.3,3.3,0,0,0,1.943.607c1.134,0,1.741-.534,1.741-1.247,0-.664-.389-1.012-1.223-1.239-.583-.162-.664-.211-.664-.365C121.362,438.127,121.476,438.062,121.686,438.062Z" transform="translate(-102.09 -435.617)" fill="#bac5c5"/><path d="M132.458,434.535h-2.575v5.392h2.575a2.7,2.7,0,1,0,0-5.392Zm-.211,4.186h-.632v-2.98h.632c.866,0,1.271.64,1.271,1.49S133.114,438.721,132.248,438.721Z" transform="translate(-106.351 -434.535)" fill="#bac5c5"/><rect width="1.668" height="3.773" transform="translate(29.517 1.619)" fill="#bac5c5"/><rect width="1.657" height="1.231" transform="translate(29.889 0.044)" fill="#bac5c5"/><path d="M146.034,438.062a2.349,2.349,0,0,1,1.158.389l.413-.769a2.943,2.943,0,0,0-1.765-.527c-1.125,0-1.749.462-1.749,1.166,0,.6.219.987,1.442,1.344.364.106.445.2.445.316,0,.13-.113.2-.372.2a2.2,2.2,0,0,1-1.255-.47l-.437.77a3.3,3.3,0,0,0,1.943.607c1.134,0,1.741-.534,1.741-1.247,0-.664-.389-1.012-1.223-1.239-.583-.162-.664-.211-.664-.365C145.71,438.127,145.824,438.062,146.034,438.062Z" transform="translate(-112.145 -435.617)" fill="#bac5c5"/><path d="M153.994,437.155a1.446,1.446,0,0,0-1.4,1.142l-.373-1.061h-.955v5.1h1.668v-2.1a1.277,1.277,0,0,0,1.19.85c1.036,0,1.514-.939,1.514-1.968C155.638,438.143,155.184,437.155,153.994,437.155Zm-.542,2.947c-.332,0-.518-.356-.518-.98,0-.591.186-.98.51-.98s.527.34.527.98S153.792,440.1,153.452,440.1Z" transform="translate(-115.182 -435.617)" fill="#bac5c5"/><rect width="1.668" height="5.393" transform="translate(41.064 0)" fill="#bac5c5"/><path d="M167.857,439.981V438.71c0-1.037-.639-1.555-1.943-1.555s-2.032.478-2.032,1.19a1.455,1.455,0,0,0,.17.64l1.49-.348a.722.722,0,0,1-.049-.243.3.3,0,0,1,.34-.324c.235,0,.356.162.356.454v.672a6.974,6.974,0,0,0-.883-.065c-.9,0-1.473.267-1.473.939a1.01,1.01,0,0,0,1.142,1.02,1.265,1.265,0,0,0,1.279-.7c.081.348.34.7,1.1.7a1.461,1.461,0,0,0,.956-.284v-.566a.511.511,0,0,1-.2.032C167.906,440.273,167.857,440.168,167.857,439.981Zm-1.66-.267c0,.292-.089.608-.445.608a.254.254,0,0,1-.284-.26c0-.283.267-.356.728-.421Z" transform="translate(-120.372 -435.617)" fill="#bac5c5"/><path d="M173.655,439.844l-.721-2.551h-1.611l1.539,3.814c-.113.356-.251.542-.68.542a1.551,1.551,0,0,1-.348-.04l-.033.689a2.229,2.229,0,0,0,.947.162c.794,0,1.287-.332,1.692-1.4.445-1.182,1.377-3.765,1.377-3.765h-1.506Z" transform="translate(-123.465 -435.674)" fill="#bac5c5"/><rect width="1.668" height="3.773" transform="translate(54.458 1.619)" fill="#bac5c5"/><rect width="1.657" height="1.231" transform="translate(54.669 0.044)" fill="#bac5c5"/><path d="M189.832,437.155c-.761,0-1.2.478-1.4,1.393l-.324-1.312h-1.182v3.773h1.668v-1.134c0-.882.154-1.458.583-1.458.243,0,.348.154.348.405v2.186h1.668v-2.081C191.192,437.8,190.755,437.155,189.832,437.155Z" transform="translate(-129.908 -435.617)" fill="#bac5c5"/><path d="M203.042,434.535h-5.15V435.8H199.6v4.129h1.733V435.8h1.709Z" transform="translate(-134.437 -434.535)" fill="#bac5c5"/><path d="M210.318,439.981V438.71c0-1.037-.64-1.555-1.944-1.555s-2.032.478-2.032,1.19a1.457,1.457,0,0,0,.17.64l1.49-.348a.722.722,0,0,1-.049-.243.3.3,0,0,1,.34-.324c.234,0,.356.162.356.454v.672a6.974,6.974,0,0,0-.882-.065c-.9,0-1.473.267-1.473.939a1.009,1.009,0,0,0,1.141,1.02,1.266,1.266,0,0,0,1.28-.7c.081.348.34.7,1.1.7a1.46,1.46,0,0,0,.956-.284v-.566a.509.509,0,0,1-.2.032C210.367,440.273,210.318,440.168,210.318,439.981Zm-1.66-.267c0,.292-.089.608-.446.608a.254.254,0,0,1-.283-.26c0-.283.267-.356.728-.421Z" transform="translate(-137.907 -435.617)" fill="#bac5c5"/><rect width="1.668" height="3.773" transform="translate(73.391 1.619)" fill="#bac5c5"/><rect width="1.657" height="1.231" transform="translate(73.479 0.044)" fill="#bac5c5"/><path d="M221.906,437.155a1.446,1.446,0,0,0-1.4,1.142l-.372-1.061h-.956v5.1h1.668v-2.1a1.278,1.278,0,0,0,1.19.85c1.036,0,1.514-.939,1.514-1.968C223.55,438.143,223.1,437.155,221.906,437.155Zm-.542,2.947c-.332,0-.518-.356-.518-.98,0-.591.186-.98.51-.98s.527.34.527.98S221.7,440.1,221.364,440.1Z" transform="translate(-143.228 -435.617)" fill="#bac5c5"/><path d="M231.208,438.767c0-.98-.632-1.612-1.8-1.612a1.935,1.935,0,0,0-2.121,1.968,1.823,1.823,0,0,0,2.1,1.968c1.044,0,1.789-.3,1.789-1.085a2.106,2.106,0,0,0-.016-.219l-1.271-.122a.984.984,0,0,1,.016.154.322.322,0,0,1-.356.364c-.389,0-.567-.372-.575-.842h2.17A3.8,3.8,0,0,0,231.208,438.767Zm-1.409.04h-.826c.025-.34.178-.7.51-.7.243,0,.34.17.34.429A1.608,1.608,0,0,1,229.8,438.807Z" transform="translate(-146.577 -435.617)" fill="#bac5c5"/><rect width="1.668" height="3.773" transform="translate(85.255 1.619)" fill="#bac5c5"/><rect width="1.657" height="1.231" transform="translate(85.265 0.044)" fill="#bac5c5"/></g><path d="M225.427,400.055v-.008h-7.446c.237-.734.455-1.5.659-2.284l-2.286-.458a20.2,20.2,0,0,1-2.092,5.566v-1.691h-1.544v-3.948h-2.811v3.948h-.847c.048-.438.089-.879.12-1.327l-2.134-.506a26.086,26.086,0,0,1-1.1,5.72l2.224.733a25.04,25.04,0,0,0,.575-2.458h1.162v4.147c-1.057.328-2.119.639-3.188.923l.538,2.652q1.35-.409,2.65-.875V415.4h2.811v-6.3q1.113-.47,2.187-.985l-.49-2.156c-.564.211-1.13.413-1.7.611v-3.224H214c-.26.451-.541.908-.85,1.374l1.92,1.075a13.691,13.691,0,0,0,2.116-3.58h.8a29.673,29.673,0,0,1-4.257,8.851l1.737,1.074a38.129,38.129,0,0,0,4.966-9.925h.491a29.811,29.811,0,0,1-5.222,11.355l1.574,1c1.919-1.6,4.285-6.771,5.465-10.368-.069,1.414-.163,2.861-.288,3.755a31.611,31.611,0,0,1-.562,3.215c-.181.718-.435,2.219-1.612,2.113-1.1-.1-1.092-.211-1.092-.211v1.778a7.091,7.091,0,0,0,2.351.387c1.894.135,2.16-.735,2.547-1.721a24.014,24.014,0,0,0,1.009-4.311c.357-2.281.469-9.148.469-9.148Z" transform="translate(-48.705 -0.4)" fill="#bac5c5"/><g transform="translate(110.356 396.831)"><path d="M150.777,410.8a1.262,1.262,0,0,1,.189.783c-.005.653-.5.811-1.088.832a1.049,1.049,0,0,1-.993-.566,8.006,8.006,0,0,1-.228-2.278v-4.517h4.728v-2.595h-4.728v-5.226H145.2v13.4a9.34,9.34,0,0,0,.259,2.074c.225.6.716,2.377,3.908,2.316,2.948-.056,4.261-1.442,4.451-2.869a3.806,3.806,0,0,0-.507-2.234Z" transform="translate(-133.975 -397.231)" fill="#bac5c5"/><path d="M134.477,410.188V397.231h-3.459v5.226h-4.553v2.595h4.553v6.02l-4.942,1.262.529,3.024,9.568-2.795-.644-2.644Z" transform="translate(-126.076 -397.231)" fill="#bac5c5"/></g><g transform="translate(134.395 396.831)"><path d="M178.375,414.309H183.5v-1.946h-5.122v-1.515H184.6V408.9H182.51a10.458,10.458,0,0,1-1.5-1.815h1.59v-1.729H170.46v1.729h1.579a9.028,9.028,0,0,1-1.6,1.815h-1.964v1.945H174.7v1.515h-5.122v1.946H174.7v1.457h-7.672v2.162h19.021v-2.162h-7.672Zm-2.959-7.222h2.242a17.267,17.267,0,0,0,1.171,1.815H174.2A15.968,15.968,0,0,0,175.416,407.087Z" transform="translate(-167.027 -400.587)" fill="#bac5c5"/><path d="M170.076,400.656h13.3v2.2h2.595v-3.074h-.006v-1.284h-7.4v-1.263h-3.676v1.263h-7.4v1.284h0v3.074h2.595Z" transform="translate(-167.215 -397.231)" fill="#bac5c5"/></g><g transform="translate(88.01 396.263)"><path d="M105.827,414.048H90.036v1.8h0v6.539h3.891v-1.176h8.015v1.176h3.891v-6.539h0Zm-11.9,5.006V416.21h8.015v2.844Z" transform="translate(-88.846 -403.608)" fill="#bac5c5"/><path d="M103.172,399.522l-2.636,1.353a13.268,13.268,0,0,1,2.128,1.959h-9.3a11.787,11.787,0,0,0,4.06-5.028l-2.841-1.543a13.768,13.768,0,0,1-6.576,6.574l.355,2.211h17.88l.277-2.211A19.877,19.877,0,0,0,103.172,399.522Z" transform="translate(-88.01 -396.263)" fill="#bac5c5"/></g></g></svg>