<svg xmlns="http://www.w3.org/2000/svg" width="105.347" height="36.648" viewBox="0 0 105.347 36.648"><g transform="translate(-90.192 -393.199)"><g transform="translate(90.192 393.199)"><path d="M152.48,411.778a1.545,1.545,0,0,1,.232.96c-.007.8-.612.995-1.335,1.02a1.285,1.285,0,0,1-1.217-.694,9.816,9.816,0,0,1-.28-2.793v-5.538h5.8v-3.182h-5.8v-6.408h-4.236v16.425a11.456,11.456,0,0,0,.318,2.544c.276.736.878,2.914,4.792,2.84,3.615-.068,5.225-1.769,5.458-3.518a4.661,4.661,0,0,0-.62-2.74Z" transform="translate(-105.729 -393.744)" fill="#c8d2d2"/><path d="M227.026,398.606V398.6H217.9c.291-.9.558-1.837.808-2.8l-2.8-.562a24.771,24.771,0,0,1-2.565,6.824v-2.074h-1.894v-4.841H208v4.841h-1.039c.058-.536.109-1.078.147-1.626l-2.617-.62a31.985,31.985,0,0,1-1.349,7.014l2.727.9a30.717,30.717,0,0,0,.7-3.015H208v5.085c-1.3.4-2.6.784-3.909,1.133l.659,3.251q1.655-.5,3.249-1.072v6.385h3.446v-7.726q1.365-.577,2.681-1.208l-.6-2.644c-.692.259-1.386.507-2.081.749v-3.954h1.57c-.319.553-.664,1.114-1.042,1.685l2.354,1.317a16.784,16.784,0,0,0,2.595-4.389h.977a36.374,36.374,0,0,1-5.219,10.853l2.13,1.317a46.737,46.737,0,0,0,6.089-12.17h.6a36.561,36.561,0,0,1-6.4,13.923l1.93,1.228c2.353-1.969,5.254-8.3,6.7-12.713-.084,1.733-.2,3.508-.353,4.6a38.78,38.78,0,0,1-.69,3.942c-.222.881-.533,2.721-1.977,2.591-1.347-.121-1.339-.258-1.339-.258v2.18a8.691,8.691,0,0,0,2.883.474c2.323.166,2.649-.9,3.123-2.11a29.461,29.461,0,0,0,1.237-5.286c.438-2.8.575-11.217.575-11.217Z" transform="translate(-121.839 -393.744)" fill="#c8d2d2"/><path d="M136.82,411.032V395.144h-4.242v6.408H127v3.181h5.583v7.382l-6.06,1.548.649,3.708,11.732-3.427-.79-3.242Z" transform="translate(-100.37 -393.744)" fill="#c8d2d2"/><path d="M111.583,411.961H92.221v2.212h0v8.018H96.99V420.75h9.828v1.441h4.772v-8.018h-.006ZM96.99,418.1v-3.487h9.828V418.1Z" transform="translate(-90.76 -398.456)" fill="#c8d2d2"/><path d="M179.825,414.246h6.281v-2.386h-6.281V410h7.634v-2.386h-2.564a12.793,12.793,0,0,1-1.844-2.225H185V403.27H170.119v2.121h1.937a11.112,11.112,0,0,1-1.964,2.225h-2.408V410h7.635v1.857h-6.282v2.386h6.282v1.787H165.91v2.652h23.322v-2.652h-9.408Zm-3.629-8.854h2.749a21.212,21.212,0,0,0,1.435,2.225h-5.671A19.635,19.635,0,0,0,176.2,405.391Z" transform="translate(-111.408 -396.021)" fill="#c8d2d2"/><path d="M169.545,399.344h16.308v2.692h3.181v-3.769h-.007v-1.574h-9.076v-1.549h-4.507v1.549h-9.075v1.574h-.006v3.769h3.181Z" transform="translate(-111.535 -393.744)" fill="#c8d2d2"/><path d="M109.032,397.777l-3.479,1.78a20.8,20.8,0,0,1,2.395,2.4H96.538a21.741,21.741,0,0,0,5.1-6.869L98.16,393.2c-1.8,3.649-4.481,5.966-7.966,8.761h0l.437,2.915h21.925l.351-2.916.009,0C111.766,400.6,110.391,399.1,109.032,397.777Z" transform="translate(-90.192 -393.199)" fill="#c8d2d2"/></g><g transform="translate(91.672 421.785)"><rect width="2.059" height="6.407" transform="translate(0 0)" fill="#c8d2d2"/><path d="M98.526,433.594l-1.982.154v1.279h-.606v.828h.606V438c0,1.02.452,1.607,1.635,1.607a2.675,2.675,0,0,0,1.279-.279l-.029-.837a1.57,1.57,0,0,1-.481.067c-.317,0-.423-.153-.423-.452v-2.251h.933v-.828h-.933Z" transform="translate(-93.282 -433.103)" fill="#c8d2d2"/><path d="M106.02,437.367c0-1.165-.75-1.915-2.136-1.915a2.3,2.3,0,0,0-2.521,2.338,2.165,2.165,0,0,0,2.492,2.337c1.241,0,2.126-.356,2.126-1.289,0-.077-.01-.173-.019-.26l-1.51-.144a1.212,1.212,0,0,1,.019.183.382.382,0,0,1-.423.433c-.461,0-.673-.442-.683-1h2.578A4.453,4.453,0,0,0,106.02,437.367Zm-1.674.048h-.982c.029-.4.212-.827.606-.827.289,0,.4.2.4.51A2,2,0,0,1,104.347,437.414Z" transform="translate(-94.802 -433.624)" fill="#c8d2d2"/><path d="M115.4,435.452c-.875,0-1.366.769-1.491,1.655-.106-1.068-.635-1.655-1.6-1.655-.9,0-1.424.567-1.664,1.655l-.385-1.559h-1.4v4.484h1.982v-1.347c0-1.049.183-1.732.693-1.732.288,0,.413.183.413.481v2.6h1.982v-1.347c0-1.049.183-1.732.693-1.732.289,0,.413.183.413.481v2.6h1.982v-2.473C117.021,436.221,116.5,435.452,115.4,435.452Z" transform="translate(-96.904 -433.624)" fill="#c8d2d2"/><path d="M123.614,436.53a2.792,2.792,0,0,1,1.376.461l.491-.914a3.5,3.5,0,0,0-2.1-.625c-1.337,0-2.078.548-2.078,1.385,0,.712.26,1.174,1.712,1.6.433.125.529.24.529.375,0,.154-.135.24-.442.24a2.614,2.614,0,0,1-1.491-.558l-.52.914a3.925,3.925,0,0,0,2.309.721c1.347,0,2.068-.635,2.068-1.481,0-.789-.461-1.2-1.453-1.472-.692-.192-.788-.25-.788-.433C123.229,436.607,123.363,436.53,123.614,436.53Z" transform="translate(-100.33 -433.624)" fill="#c8d2d2"/><path d="M134.151,432.912h-3.059v6.408h3.059a3.207,3.207,0,1,0,0-6.408Zm-.25,4.974h-.75v-3.54h.75c1.029,0,1.51.76,1.51,1.77S134.93,437.886,133.9,437.886Z" transform="translate(-103.132 -432.912)" fill="#c8d2d2"/><rect width="1.982" height="4.483" transform="translate(35.07 1.924)" fill="#c8d2d2"/><rect width="1.969" height="1.462" transform="translate(35.513 0.053)" fill="#c8d2d2"/><path d="M147.206,436.53a2.79,2.79,0,0,1,1.376.461l.491-.914a3.5,3.5,0,0,0-2.1-.625c-1.337,0-2.078.548-2.078,1.385,0,.712.26,1.174,1.712,1.6.433.125.529.24.529.375,0,.154-.135.24-.443.24a2.616,2.616,0,0,1-1.491-.558l-.519.914a3.921,3.921,0,0,0,2.308.721c1.347,0,2.069-.635,2.069-1.481,0-.789-.462-1.2-1.453-1.472-.693-.192-.789-.25-.789-.433C146.822,436.607,146.956,436.53,147.206,436.53Z" transform="translate(-106.941 -433.624)" fill="#c8d2d2"/><path d="M155.052,435.452a1.716,1.716,0,0,0-1.664,1.356l-.443-1.26H151.81v6.061h1.982v-2.491a1.517,1.517,0,0,0,1.414,1.01c1.232,0,1.8-1.116,1.8-2.337C157,436.625,156.466,435.452,155.052,435.452Zm-.644,3.5c-.4,0-.616-.423-.616-1.164,0-.7.221-1.165.606-1.165s.626.4.626,1.165S154.812,438.954,154.408,438.954Z" transform="translate(-108.937 -433.624)" fill="#c8d2d2"/><rect width="1.982" height="6.407" transform="translate(48.79 0)" fill="#c8d2d2"/><path d="M168.769,438.809V437.3c0-1.232-.76-1.847-2.309-1.847s-2.415.567-2.415,1.414a1.729,1.729,0,0,0,.2.759l1.77-.413a.861.861,0,0,1-.058-.289.355.355,0,0,1,.4-.385c.279,0,.423.192.423.539v.8a8.378,8.378,0,0,0-1.048-.077c-1.068,0-1.751.317-1.751,1.116a1.2,1.2,0,0,0,1.357,1.212,1.5,1.5,0,0,0,1.52-.827c.1.414.4.827,1.308.827a1.737,1.737,0,0,0,1.135-.337v-.673a.6.6,0,0,1-.24.038C168.826,439.155,168.769,439.031,168.769,438.809Zm-1.972-.317c0,.346-.106.722-.529.722a.3.3,0,0,1-.337-.308c0-.337.317-.423.866-.5Z" transform="translate(-112.349 -433.624)" fill="#c8d2d2"/><path d="M174.016,438.615l-.856-3.03h-1.915l1.828,4.531c-.135.423-.3.645-.808.645a1.886,1.886,0,0,1-.414-.048l-.038.818a2.639,2.639,0,0,0,1.126.192c.942,0,1.53-.394,2.01-1.664.529-1.4,1.635-4.474,1.635-4.474H174.8Z" transform="translate(-114.383 -433.661)" fill="#c8d2d2"/><rect width="1.982" height="4.483" transform="translate(64.704 1.924)" fill="#c8d2d2"/><rect width="1.969" height="1.462" transform="translate(64.954 0.053)" fill="#c8d2d2"/><path d="M189.817,435.452c-.9,0-1.424.567-1.664,1.655l-.385-1.559h-1.4v4.484h1.982v-1.347c0-1.049.183-1.732.692-1.732.289,0,.414.183.414.481v2.6h1.982v-2.473C191.433,436.221,190.913,435.452,189.817,435.452Z" transform="translate(-118.618 -433.624)" fill="#c8d2d2"/><path d="M203.108,432.912h-6.119v1.5h2.03v4.906h2.059v-4.906h2.03Z" transform="translate(-121.596 -432.912)" fill="#c8d2d2"/><path d="M209.911,438.809V437.3c0-1.232-.759-1.847-2.308-1.847s-2.415.567-2.415,1.414a1.729,1.729,0,0,0,.2.759l1.77-.413a.844.844,0,0,1-.058-.289.355.355,0,0,1,.4-.385c.279,0,.423.192.423.539v.8a8.389,8.389,0,0,0-1.049-.077c-1.067,0-1.751.317-1.751,1.116a1.2,1.2,0,0,0,1.356,1.212,1.5,1.5,0,0,0,1.52-.827c.1.414.4.827,1.309.827a1.737,1.737,0,0,0,1.135-.337v-.673a.606.606,0,0,1-.241.038C209.969,439.155,209.911,439.031,209.911,438.809Zm-1.972-.317c0,.346-.106.722-.529.722a.3.3,0,0,1-.336-.308c0-.337.317-.423.865-.5Z" transform="translate(-123.877 -433.624)" fill="#c8d2d2"/><rect width="1.982" height="4.483" transform="translate(87.199 1.924)" fill="#c8d2d2"/><rect width="1.969" height="1.462" transform="translate(87.303 0.053)" fill="#c8d2d2"/><path d="M220.856,435.452a1.718,1.718,0,0,0-1.664,1.356l-.443-1.26h-1.135v6.061H219.6v-2.491a1.516,1.516,0,0,0,1.414,1.01c1.232,0,1.8-1.116,1.8-2.337C222.809,436.625,222.27,435.452,220.856,435.452Zm-.644,3.5c-.394,0-.615-.423-.615-1.164,0-.7.221-1.165.606-1.165s.625.4.625,1.165S220.616,438.954,220.212,438.954Z" transform="translate(-127.375 -433.624)" fill="#c8d2d2"/><path d="M230.13,437.367c0-1.165-.751-1.915-2.136-1.915a2.3,2.3,0,0,0-2.521,2.338,2.165,2.165,0,0,0,2.492,2.337c1.241,0,2.126-.356,2.126-1.289a2.431,2.431,0,0,0-.019-.26l-1.51-.144a1.127,1.127,0,0,1,.019.183.382.382,0,0,1-.423.433c-.462,0-.674-.442-.683-1h2.578A4.542,4.542,0,0,0,230.13,437.367Zm-1.674.048h-.981c.029-.4.212-.827.606-.827.289,0,.4.2.4.51A1.917,1.917,0,0,1,228.456,437.414Z" transform="translate(-129.577 -433.624)" fill="#c8d2d2"/><rect width="1.982" height="4.483" transform="translate(101.294 1.924)" fill="#c8d2d2"/><rect width="1.969" height="1.462" transform="translate(101.307 0.053)" fill="#c8d2d2"/></g></g></svg>